<?xml version="1.0" encoding="utf-8" ?><svg xmlns="http://www.w3.org/2000/svg" xmlns:xlink="http://www.w3.org/1999/xlink" width="320" height="320" viewBox="0 0 320 320"><path fill="white" d="M0 0L133.484 0L138.507 0L320 0L320 261.499L320 266.205L320 320L244.379 320L237.794 320L220.746 320L214.066 320L106.465 320L99.2734 320L73.4564 320L66.0064 320L0 320L0 165.444L0 160.287L0 0Z"/><path fill="#005CFB" d="M219.798 156.143C208.82 156.786 200.812 159.897 190.662 162.448C184.48 163.978 178.183 164.999 171.835 165.5C163.821 166.12 156.678 165.876 148.654 165.717C139.712 165.505 130.768 165.35 121.824 165.252C112.637 165.165 103.45 165.031 94.2634 164.849C90.7612 164.79 84.4112 164.953 81.1249 164.511C79.2793 164.245 77.5516 163.446 76.1544 162.211C74.1635 160.47 73.0773 158.21 72.9501 155.566C72.7661 151.742 74.8667 147.94 78.4051 146.349C82.1701 144.657 102.235 143.355 107.753 142.799L180.113 135.444L203.541 133.08C206.978 132.738 219.495 131.935 220.875 130.307C224.686 125.813 228.828 107.158 230.345 101.893C232.468 94.5181 235.305 87.3676 238.814 80.5426C241.61 75.0834 245.413 69.0361 248.592 63.7416L263.778 38.4207L275.619 18.6236C278.389 13.9412 281.932 6.32787 286.395 3.59637C292.923 -0.39865 302.066 6.51432 300.22 13.8668C299.325 17.4314 297.322 21.2329 295.8 24.5945L288.487 40.7694L256.638 111.66L248.015 130.773C246.426 134.277 244.741 137.727 243.438 141.352C242.249 144.663 244.566 147.193 246.547 149.613C249.943 153.597 253.576 157.863 257.506 161.345C269.718 172.161 277.338 184.577 285.161 198.632L297.312 220.523C304.799 233.941 312.845 247.942 320 261.499L320 266.205L320 320L244.379 320L237.794 320L220.746 320L214.066 320C213.619 289.23 214.101 258.454 215.512 227.713L218.701 175.132C219.06 168.915 219.643 162.328 219.798 156.143Z"/><path fill="white" d="M244.379 320C244.415 296.885 244.759 272.674 243.995 249.667C243.802 243.853 243.571 238.04 243.301 232.228C243.074 228.003 240.191 185.009 240.62 184.082C240.962 184.197 241.023 184.213 241.245 184.517L288.223 249.742C291.133 253.787 302.218 270.478 305.632 272.35C307.846 273.563 310.925 273.91 313.321 273.103C316.683 271.969 318.513 269.24 320 266.205L320 320L244.379 320Z"/><path fill="white" d="M226.014 163.643C233.508 173.345 232.993 171.273 233.687 183.371L234.711 200.615C235.776 218.268 237.028 235.954 237.465 253.633C238.012 275.726 237.797 297.896 237.794 320L220.746 320C220.736 292.512 220.308 263.996 221.729 236.604L224.65 187.34C225.064 180.554 226.07 169.968 226.014 163.643Z"/><path fill="white" d="M226.084 135.278C228.72 134.995 230.78 135.169 232.9 136.814C238.736 141.343 234.429 144.593 237.678 149.235C245.625 161.161 258.621 169.855 266.666 181.478C277.434 197.035 286.498 214.983 295.721 231.551L306.561 250.985C308.013 253.588 313.058 261.967 313.333 264.388C312.608 266.841 310.329 267.803 308.368 265.934C305.592 262.505 302.487 257.948 299.858 254.298L284.96 233.619L239.105 170.025C235.188 164.586 231.237 158.927 227.186 153.597C224.543 150.463 221.048 150.528 219.653 146.108C218.091 141.159 221.444 136.882 226.084 135.278Z"/><path fill="white" d="M212.877 138.9L213.344 138.869C213.367 139.559 212.972 140.777 212.87 141.635C212.483 144.888 213.011 147.159 213.98 150.165C210.194 150.764 204.835 151.607 201.241 152.599C192.216 155.089 184.796 157.403 175.329 158.452C163.766 159.732 152.261 159.061 140.6 158.921L82.7178 157.985C81.1615 157.659 79.7349 156.939 79.5699 155.147C79.5069 154.476 79.7291 153.809 80.1821 153.31C81.0333 152.36 82.7636 151.977 83.9978 151.855C89.4976 151.308 95.0213 150.797 100.519 150.233L138.238 146.389L185.833 141.562C194.594 140.669 204.142 139.512 212.877 138.9Z"/><path fill="white" d="M289.801 9.23615C292.185 8.93788 292.698 9.99776 293.982 11.7625C292.641 15.6912 289.638 21.8689 287.833 25.8712L276.808 50.3802L239.42 133.586C238.124 132.309 237.323 131.733 235.876 130.686C233.432 129.224 231.768 128.908 229.049 128.472C232.542 121.766 234.16 113.105 236.182 105.862C238.639 97.0631 241.949 88.2745 246.583 80.3776C254.649 66.6302 262.907 52.986 271.1 39.314L282.194 20.7771C283.712 18.2393 287.729 10.8176 289.801 9.23615Z"/><path fill="#005CFB" d="M54.5534 93.2784C49.7868 83.8774 43.974 80.5603 39.5926 71.6238C36.9213 66.1753 35.5601 58.487 34.3206 52.5081L30.8222 35.6591C29.3357 28.537 27.7829 21.5346 26.4861 14.3277C25.0925 6.58324 32.5828 0.56568 39.7971 3.17233C42.4055 4.11478 44.5087 5.89142 45.5038 8.48348C46.97 11.9112 48.1862 15.3793 49.4676 18.8716L55.4066 35.0029L74.1844 86.0234C83.4466 86.7786 88.7274 83.8894 97.8151 83.9345C109.143 83.9908 119.501 89.4515 130.074 91.7072C129.461 93.5196 128.55 96.684 127.832 98.2678C124.546 97.0135 120.402 95.8348 117.06 94.8743C110.492 92.9872 102.167 89.785 95.1832 90.6338C85.7126 91.7849 79.0797 94.0475 69.2414 92.0215L49.3324 37.8956L42.99 20.691C41.9928 17.9962 39.8545 10.3796 37.424 9.35202C36.8023 9.08914 36.1014 9.08525 35.4768 9.34122C34.1289 9.89124 33.473 11.067 32.8304 12.2729C34.4947 21.2849 36.5503 31.0897 38.5189 40.0869C40.6566 49.8567 42.1182 61.5704 46.5495 70.3576C48.6239 74.4712 52.3208 77.8529 55.1476 81.4257C58.2846 85.3904 60.3208 89.7253 62.2535 94.3489L24.309 140.374L14.0483 152.734C12.8921 154.118 6.37279 161.269 6.66691 162.975C7.94588 166.784 10.2698 167.198 12.9929 164.816C23.3906 155.723 33.8114 145.854 44.1615 136.834C53.0592 129.079 56.7717 123.544 60.0703 112.281C61.2261 108.335 65.2081 102.564 67.7871 99.2273C71.2585 100.107 75.3889 100.798 78.9526 101.339C92.5051 103.398 106.221 106.441 119.786 108.254C119.466 110.283 119.123 112.931 118.71 114.902C102.946 112.387 86.5112 109.463 70.7691 106.641L70.6066 106.845C65.3032 113.587 64.7702 122.577 59.8689 129.775C55.557 136.108 50.2147 140.498 44.5793 145.559L30.5216 158.185C26.0593 162.196 21.6746 166.345 17.0898 170.202C15.9703 171.144 13.1873 172.775 11.6937 172.949C5.74916 173.644 2.56486 170.315 0 165.444L0 160.287C2.94778 154.944 7.53738 149.968 11.4861 145.191L28.2804 124.895L45.1671 104.421C47.7597 101.283 51.7867 96.1304 54.5534 93.2784Z"/><path fill="#005CFB" d="M133.484 0L138.507 0C138.78 0.182907 139.365 0.46693 139.659 0.585528C145.483 2.93755 146.086 8.31966 147.626 13.7575C148.642 17.3448 149.697 21.2856 150.766 25.0435L161.661 63.5583C163.607 70.508 165.844 79.4005 168.125 86.116C174.892 87.5825 179.941 86.1056 186.608 85.729C198.585 85.0523 210.921 91.6462 221.996 96.2628C221.221 97.6192 219.921 100.866 219.249 102.422C216.084 100.978 212.364 99.6624 209.463 98.2932C198.949 93.3303 190.542 91.0344 178.93 93.1221C174.638 93.8937 167.265 92.88 162.717 91.8169C160.496 85.1392 158.159 75.7708 156.236 68.9093L145.474 30.8667C143.551 23.9631 141.715 17.0658 139.659 10.1665C138.584 6.55989 135.517 5.17853 132.938 8.55531C132.513 9.11246 132.555 10.4534 132.632 11.1617C133.145 15.8551 133.983 20.6057 134.52 25.2899C135.326 32.0272 136.171 38.7599 137.053 45.4877C137.614 49.857 138.178 55.0444 138.958 59.3105C139.428 62.0094 140.177 64.6523 141.192 67.197C143.335 72.5425 146.357 75.6705 149.517 80.323C152.375 84.5324 154.023 88.9359 155.512 93.7561C150.305 98.4826 143.482 105.984 138.467 111.191L114.615 135.623C113.57 134.407 110.823 131.967 109.553 130.949C115.081 125.697 120.253 119.915 125.678 114.517C133.189 107.044 140.381 99.2199 147.941 91.7859C144.719 84.5639 140.816 80.2179 136.788 73.6499C135.042 70.8033 133.457 65.7857 132.807 62.4875C131.176 54.2146 130.515 45.5812 129.312 37.2248C128.273 28.657 126.959 20.1223 126.111 11.5336C125.501 5.34561 128.246 2.64546 133.484 0Z"/><path fill="#005CFB" d="M86.4203 306.271C90.7896 310.69 96.7351 313.193 102.95 313.23C109.196 313.287 114.952 310.623 119.366 306.282L124.361 311.154C120.749 314.375 116.813 317.044 112.098 318.456C110.959 318.798 107.316 319.521 106.465 320L99.2734 320L73.4564 320L66.0064 320C64.7504 319.308 61.7865 318.856 60.239 318.323C55.6219 316.734 52.1207 314.154 48.3766 311.151C50.1221 309.852 51.9395 307.978 53.3267 306.302C63.2622 315.222 76.6725 315.928 86.4203 306.271Z"/><path fill="white" d="M73.4564 320C74.1149 319.616 74.5711 319.536 75.302 319.37C79.06 318.515 83.2728 317.203 86.4688 314.965C89.5622 316.973 92.0028 317.96 95.5639 318.922C96.4421 319.16 98.6332 319.658 99.2734 320L73.4564 320Z"/><path fill="#005CFB" d="M204.162 241.481C205.158 242.7 208.373 245.568 208.809 246.677C201.525 252.863 193.662 256.067 183.949 254.961C180.028 254.514 174.259 252.689 171.18 250.188C163.208 255.294 153.788 256.568 144.745 253.513C142.735 252.834 139.811 251.549 138.184 250.218C130.411 255.162 121.088 256.575 112.255 253.684C109.996 252.945 107.059 251.699 105.196 250.224C92.6794 258.056 77.7474 256.487 67.1603 246.2C69.0887 244.689 70.2476 243.398 71.9536 241.629C73.3803 242.614 74.7433 244.048 76.1899 244.91C86.5884 251.107 96.5358 249.045 105.262 241.572C114.581 251.092 128.767 250.606 138.157 241.498C147.021 251.213 161.889 250.393 171.122 241.533C171.245 241.667 171.37 241.8 171.496 241.931C180.389 251.167 195.235 250.316 204.162 241.481Z"/><path fill="#005CFB" d="M104.492 278.301C112.6 287.737 128.98 287.384 137.41 278.347C138.688 279.917 140.782 281.464 141.949 283.152C142.083 283.345 141.97 283.453 141.88 283.82C135.839 288.68 130.93 291.211 123.062 291.867C117.431 292.337 108.918 290.703 104.619 286.977C94.8014 293.235 81.2848 293.975 71.598 287.038C62.1821 293.004 47.6727 294.127 38.5941 287.005C32.0651 291.467 23.691 292.842 15.9975 291.363C9.65881 290.144 5.34279 287.177 0.429065 283.223C2.22639 281.982 3.95821 280.076 5.3574 278.403C10.4449 282.811 14.9621 285.197 21.9479 285.292C28.2201 285.377 34.0472 282.776 38.4959 278.386C38.9804 278.885 39.621 279.459 40.1502 279.907C44.9003 283.853 51.0216 285.755 57.1716 285.194C62.2436 284.74 68.0464 282.256 71.3689 278.301L71.7568 278.677C76.2823 283.071 82.3893 285.453 88.6946 285.283C94.6752 285.131 100.353 282.621 104.492 278.301Z"/><path fill="#005CFB" d="M60.047 139.957C62.3934 139.968 64.4324 140.009 66.772 140.158C66.501 149.191 66.0418 158.052 65.8513 167.138C65.5277 184.783 65.4296 202.432 65.5571 220.08C65.5612 221.782 65.7541 231.997 65.3197 233.127L58.9965 233.141C58.6538 225.944 58.9159 216.354 58.9172 208.926C58.8548 195.222 58.9436 181.518 59.1837 167.816C59.3819 158.512 59.8738 149.203 60.047 139.957Z"/><path fill="#005CFB" d="M160.565 98.9727C161.933 99.5652 165.667 100.43 167.255 100.832L179.129 103.828C191.654 106.993 204.679 110.56 217.224 113.426C216.935 115.295 216.162 118.182 215.71 120.095C212.643 119.015 206.191 117.579 202.765 116.713C195.159 114.789 187.4 112.723 179.781 110.907C176.359 110.011 165.666 107.603 162.931 106.533C158.121 112.62 157.051 116.577 153.738 123.384C151.914 127.13 148.2 131.375 145.253 134.293C143.891 132.673 141.982 130.732 140.513 129.15C148.198 122.836 149.321 115.763 153.851 107.596C155.261 105.054 158.601 101.274 160.565 98.9727Z"/><path fill="#005CFB" d="M75.616 169.588L82.0292 169.554L82.2134 213.782C82.2204 218.957 82.5192 228.123 82.1813 232.858L81.7719 233.031C79.739 233.118 77.645 233.149 75.6058 233.203L75.6084 188.531C75.601 185.571 75.0418 171.2 75.616 169.588Z"/><path fill="#005CFB" d="M164.434 175.957C166.583 176.014 168.98 175.956 171.15 175.951C170.799 180.051 171.162 187.801 171.085 192.259C170.854 205.721 171.373 219.554 171.059 232.997C169.9 233.182 165.747 233.193 164.473 233.216C164.187 214.363 164.429 194.862 164.434 175.957Z"/><path fill="#005CFB" d="M147.951 175.969L154.661 175.941C154.273 179.889 154.546 190.59 154.544 194.877L154.573 233.168L147.992 233.133C147.664 214.401 147.962 194.765 147.951 175.969Z"/><path fill="#005CFB" d="M5.67285 194.924L5.9035 195.166C10.0501 199.465 15.7582 201.905 21.7308 201.932C28.3871 202.017 33.6691 199.513 38.3332 194.973C40.182 196.837 43.7326 199.067 46.1561 200.136C47.2476 200.618 48.0735 200.766 49.1883 201.402C49.2253 202.433 48.2212 207.312 47.3529 207.727C43.6665 206.417 41.9864 205.704 38.6373 203.705C25.1843 211.698 11.9777 209.761 0.424662 199.647C2.22412 198.394 4.06866 196.483 5.67285 194.924Z"/><path fill="#005CFB" d="M78.4756 114.865L79.1342 114.809C79.6838 115.318 79.58 117.129 79.646 118.008C80.1934 125.3 80.5967 132.601 81.0131 139.901L75.0599 140.078L74.5895 140.123C74.4844 140.003 74.3793 139.883 74.2742 139.763C74.0616 133.023 73.2257 121.609 72.7653 115.257L78.4756 114.865Z"/><path fill="#005CFB" d="M167.179 114.867L168.001 114.774L168.393 115.099C168.867 119.197 169.103 124.83 169.261 129.012C167.584 129.203 165.561 129.288 163.851 129.399L162.901 129.415C162.484 128.878 161.833 116.771 161.731 115.291C163.546 115.138 165.362 114.997 167.179 114.867Z"/></svg>