<?xml version="1.0" encoding="utf-8" ?><svg xmlns="http://www.w3.org/2000/svg" xmlns:xlink="http://www.w3.org/1999/xlink" width="320" height="320" viewBox="0 0 320 320"><path fill="white" d="M0 0L320 0L320 320L0 320L0 0Z"/><path fill="#005CFB" d="M154.504 26.8585C164.996 26.4183 175.505 27.195 185.818 29.1732C220.474 36.0362 250.998 56.3538 270.704 85.676C290.436 115.124 297.67 151.202 290.816 185.982C286.438 208.439 276.287 229.368 261.362 246.709C259.688 248.649 255.47 253.638 253.582 254.906C251.973 253.314 250.373 251.713 248.784 250.102C251.635 247.787 255.253 243.259 257.918 240.42C253.976 235.148 252.384 228.507 255.469 222.576C258.22 217.288 260.203 214.227 260.052 207.98C260.076 203.719 260.122 199.454 260.093 195.193C260.04 187.563 260.885 180.855 255.028 174.866C253.312 173.104 251.195 171.784 248.857 171.02C239.721 167.969 235.387 173.826 225.918 173.393C218.879 173.072 213.139 170.508 208.161 165.49C203.775 161.067 202.171 155.105 199.751 149.719C194.835 138.782 193.805 128.096 198.501 116.886C199.707 114.007 201.46 110.876 202.962 108.036L212.295 90.3934C214.207 86.7688 216.726 82.6761 216.785 78.5081C216.917 69.1014 207.412 63.6354 204.829 54.6755C203.317 49.4331 203.359 46.661 203.487 41.2248C194.935 38.0909 189.028 36.8843 180.354 34.9377C179.73 39.8755 179.176 47.4173 178.005 51.9593C177.081 55.4836 175.522 58.8097 173.404 61.7741C163.679 75.4612 146.641 73.6656 133.41 81.767C124.245 87.3783 113.428 100.313 106.899 109.001C101.715 115.9 104.908 129.823 103.323 137.792C102.156 143.66 95.3264 147.148 89.6698 145.474C76.1528 141.201 87.7188 128.894 74.6098 125.382C71.8325 126.197 68.457 127.846 68.1677 131.194C67.575 137.924 68.1148 145.503 67.9087 152.176C67.574 163.009 72.8696 165.579 82.0679 168.543C85.6676 169.703 89.2938 171.62 93.1356 172.305C97.5445 173.091 101.966 170.743 106.142 169.652C108.746 168.981 111.421 168.624 114.11 168.586C122.348 168.463 131.492 171.813 137.288 177.708C142.201 182.704 143.03 184.903 149.709 188.006C158.009 191.863 175.795 193.736 181.891 199.713C184.096 201.901 185.695 204.624 186.532 207.616C189.242 217.145 183.302 222.072 180.725 230.21C179.727 233.36 179.933 239.625 179.947 243.115C177.747 243.235 175.529 243.192 173.324 243.178C173.669 238.74 173.025 234.459 173.815 230.018C175.235 222.041 183.987 214.782 178.862 206.651C175.585 201.452 168.767 200.919 163.366 199.191C156.527 197.004 149.216 195.938 143.004 192.114C133 185.612 132.293 178.2 119.01 175.556C107.137 173.193 100.644 181.549 90.123 178.472C85.9687 177.258 72.6566 172.542 69.4082 170.38C67.2082 168.935 65.3615 167.013 64.0048 164.757C62.8245 162.77 62.027 160.58 61.6534 158.299C60.9092 153.948 60.8207 132.92 61.8193 128.97C62.7949 125.11 65.05 122.56 68.4112 120.566C70.9999 119.234 73.9577 118.603 76.8496 119.108C79.2196 119.519 81.4465 120.525 83.321 122.032C85.5897 123.875 86.9763 126.199 87.6637 128.991C88.1596 130.551 88.2218 136.727 89.4761 137.623C97.6911 143.491 97.1873 132.363 97.0702 128.796C96.9148 124.063 97.0343 120.678 97.3882 117.005C98.2747 107.801 103.41 101.397 109.534 95.0046C118.159 84.9008 125.806 76.576 138.633 71.8829C146.526 68.9947 157.115 67.1973 163.843 62.1093C172.631 55.4635 172.595 44.1194 173.723 34.0384C171.556 33.9423 169.13 33.6591 166.896 33.5306C133.476 31.6841 100.694 43.2113 75.7853 65.5686C54.9535 84.1612 40.8296 109.101 35.5987 136.529C34.2146 143.837 33.6982 150.767 33.2766 158.157C36.7038 160.708 40.443 163.112 43.9283 165.629C52.8027 172.038 61.0267 177.618 70.9612 182.403C74.0549 183.874 77.1903 185.256 80.3635 186.546C85.0123 188.436 91.7076 190.398 95.1765 193.825C101.445 200.018 98.1745 208.715 98.1407 216.802C98.0873 224.543 101.65 231.865 107.773 236.6C111.386 239.38 114.142 240.605 117.474 244.013C128.536 255.332 126.595 267.561 126.517 282.019C137.585 284.914 145.55 286.043 156.869 286.569C158.011 281.925 159.802 277.417 163.878 274.65C169.289 270.976 172.54 269.403 173.115 262.32C175.202 262.476 177.841 262.467 179.971 262.516C177.441 280.62 168.262 274.537 163.535 286.577C181.454 286.05 199.063 281.759 215.217 273.984C218.142 272.567 222.699 270.263 225.271 268.34C226.434 270.293 227.725 272.263 228.95 274.186C227.168 275.417 222.289 277.969 220.293 278.979C203.91 287.288 185.975 292.087 167.632 293.071C131.894 294.785 97.4868 283.345 70.9049 259.166C44.5981 235.638 28.775 202.579 26.9499 167.333C23.5304 92.3982 79.5236 30.2037 154.504 26.8585Z"/><path fill="white" d="M209.945 43.7772C215.962 45.3481 229.607 54.1546 234.682 57.8379C290.838 98.5878 303.894 178.814 261.995 234.798C261.232 233.178 260.894 231.779 260.533 230.056C260.195 224.731 265.472 220.409 266.161 215.047C266.731 210.606 266.617 205.334 266.57 200.806C266.518 195.771 266.734 189.978 266.496 185.03C266.216 179.045 263.54 173.423 259.07 169.432C253.484 164.416 245.182 162.138 237.878 164.132C234.607 165.025 231.031 166.657 227.644 166.807C222.681 167.007 217.839 165.244 214.166 161.9C209.743 157.799 208.264 152.455 206.003 147.231C199.46 132.111 201.521 125.173 208.776 111.46L218.261 93.5622C222.053 86.4047 224.915 80.7956 222.627 72.3298C220.552 64.6492 214.102 60.0686 211.284 52.8456C210.202 50.0723 210.038 46.7337 209.945 43.7772Z"/><path fill="white" d="M33.6846 167.013C35.6932 167.908 40.9184 171.743 43.0474 173.219C48.9207 177.289 54.4637 181.263 60.7564 184.737C64.5066 186.764 68.3301 188.652 72.2193 190.398C76.783 192.426 87.2945 195.966 90.7716 198.785C93.6841 201.146 91.4629 212.014 91.4574 216.548C91.4455 226.431 95.4928 235.42 103.288 241.672C106.525 244.268 109.524 245.625 112.641 248.76C121.435 257.605 120.115 267.862 120.016 279.312L119.871 279.823C118.432 279.902 114.412 278.049 112.978 277.482C68.1257 259.748 35.8514 215.348 33.6846 167.013Z"/><path fill="#005CFB" d="M176.581 249.393C189.654 248.522 210.255 250.186 223 253.228C250.446 259.78 275.235 264.035 303.642 258.757C304.004 261.066 304.29 263.101 304.907 265.357C300.602 266.238 296.303 266.638 291.94 267.063C274.892 268.683 255.402 267.189 238.622 263.608C228.082 261.358 219.766 259.013 208.882 257.566C192.883 255.439 180.377 255.685 164.425 256.849C164.203 254.635 164.027 252.416 163.898 250.194C167.995 249.801 172.466 249.615 176.581 249.393Z"/><path fill="#005CFB" d="M41.9775 46.1103C48.6841 45.9245 59.9064 46.1994 66.588 47.3078L65.7173 53.8725C56.4935 52.6142 46.4569 52.5343 37.1877 53.0161C33.6759 53.1426 28.9775 53.7585 25.4186 54.1045C22.209 54.4166 17.6269 54.8008 14.536 55.3626C14.4929 53.4458 14.1203 50.5385 13.9251 48.5615C23.4269 47.7838 32.3622 46.4885 41.9775 46.1103Z"/></svg>