<?xml version="1.0" encoding="utf-8" ?><svg xmlns="http://www.w3.org/2000/svg" xmlns:xlink="http://www.w3.org/1999/xlink" width="320" height="320" viewBox="0 0 320 320"><path fill="white" d="M0 0L320 0L320 320L209.114 320L202.461 320L185.396 320L178.793 320L0 320L0 0Z"/><path fill="#005CFB" d="M219.498 53.135C229.491 37.5704 238.163 20.912 248.434 5.5332C249.62 4.1485 251.613 3.18533 253.281 2.78081C260.594 1.00658 267.233 8.46285 264.357 15.5456C260.998 23.8202 256.998 31.8942 253.416 40.0867L221.409 111.349L212.444 131.271C210.941 134.598 208.695 139.181 207.458 142.534C207.572 143.328 207.717 144.169 207.757 144.965C216.407 157.522 227.125 164.662 236.206 176.728C242.645 185.284 246.94 193.523 252.094 202.787L268.646 232.528L278.473 250.181C280.841 254.422 285.385 260.735 284.515 265.599C284.037 268.161 282.549 270.424 280.385 271.877C276.73 274.363 271.245 273.961 268.224 270.649C265.911 268.113 263.954 265.181 261.956 262.393L252.51 249.21L221.22 205.868L211.002 191.646C209.25 189.208 206.819 185.655 204.943 183.389C207.048 211.469 208.416 239.599 209.047 267.75C209.279 283.232 208.969 298.771 209.09 314.258C209.105 316.157 209.036 318.107 209.114 320L202.461 320L185.396 320L178.793 320C178.806 299.087 178.645 277.95 178.958 257.05C179.213 240.036 180.506 222.652 181.511 205.654L184.527 156.091C168.933 157.352 157.032 163.155 141.68 164.993C131.706 166.188 123.775 165.916 113.804 165.726L85.5864 165.231C76.259 165.162 66.9322 165.029 57.6067 164.83C50.1297 164.67 38.2384 166.377 37.583 155.654C37.4289 152.98 38.3608 150.358 40.1673 148.381C43.3917 144.889 51.017 144.916 55.643 144.457L74.1065 142.625L148.85 135.023L169.604 132.917C172.691 132.631 184.244 132.2 185.644 129.979C190.385 122.46 192.21 111.66 194.627 103.089C195.54 99.9132 196.564 96.7704 197.696 93.6661C200.274 86.7882 203.438 80.1441 207.152 73.807C208.758 74.9484 211.246 76.4234 213.01 77.3666C207.687 86.0846 203.623 95.5109 200.937 105.366C199.1 112.055 196.951 122.246 193.766 128.342C198.584 129.407 200.56 130.173 204.125 133.737C205.529 129.985 207.653 125.531 209.314 121.829L218.104 102.284L246.626 38.7721L253.991 22.4902C255.381 19.4171 256.858 16.3578 258.001 13.1815C258.318 12.2863 258.511 11.5412 258.059 10.6595C257.169 8.92446 254.708 8.98239 253.451 10.2592C251.469 12.272 250.065 15.418 248.597 17.8771L239.684 32.7268L230.263 48.4716C228.816 50.897 226.679 54.2462 225.398 56.6888C223.454 55.4667 221.487 54.2819 219.498 53.135Z"/><path fill="white" d="M190.61 163.27C192.866 166.791 195.503 169.886 197.71 173.289L199.79 208.093C200.829 223.015 201.595 237.955 202.088 252.905C202.707 275.324 202.275 297.61 202.461 320L185.396 320C185.415 292.021 185.009 263.968 186.393 236.034C187.231 219.119 188.506 202.155 189.422 185.243C189.808 178.121 190.477 170.357 190.61 163.27Z"/><path fill="white" d="M192.124 135.094C198.522 134.986 202.296 140.765 200.574 146.752C203.308 150.521 207.682 156.35 210.909 159.672C218.146 167.12 224.755 172.843 231.086 181.208C233.666 184.625 236.053 188.182 238.238 191.864C244.793 202.893 251.418 215.484 257.722 226.784L268.953 247.006C271.906 252.258 275.7 258.242 277.834 263.776C278.409 265.268 275.56 268.79 272.454 265.317C265.882 256.439 259.36 247.167 252.884 238.184L215.445 186.281L199.183 163.756C197.016 160.762 191.918 152.717 189.129 151.356C180.468 147.13 183.346 136.382 192.124 135.094Z"/><path fill="white" d="M177.388 138.901L177.707 138.833C178.104 139.337 177.204 142.454 177.345 144.022C177.591 146.759 177.601 147.457 178.703 150.046C174.767 150.871 169.941 151.506 166.116 152.552C157.113 155.016 149.572 157.362 140.141 158.438C128.484 159.768 116.924 159.057 105.178 158.903L47.2405 157.992C42.695 157.056 43.458 152.403 47.9606 151.922C53.4217 151.339 58.8918 150.846 64.3564 150.299L98.3472 146.862L148.745 141.736C158.13 140.781 168.026 139.622 177.388 138.901Z"/><path fill="#005CFB" d="M100.231 50.6089C114.996 50.1189 129.768 51.3259 144.257 54.2062C154.699 56.2995 163.517 58.8843 174.271 60.3939C192.797 62.9943 207.827 62.8478 226.161 60.1215C226.525 62.2887 226.846 64.4631 227.123 66.6432C224.029 67.4162 217.527 67.9887 214.189 68.3329C191.731 70.7147 168.236 66.8359 146.483 61.4729C126.608 56.5732 107.185 56.8371 86.9933 58.0451C86.727 55.7703 86.6374 53.8443 86.1933 51.5551C90.2215 50.9575 96.1065 50.8049 100.231 50.6089Z"/><path fill="#005CFB" d="M94.2782 30.6096C100.684 30.3168 107.222 30.6532 113.641 30.8714C113.473 33.1018 113.334 35.3342 113.222 37.5681C96.4921 36.4359 79.6858 37.5389 63.2473 40.8481C52.1922 43.0475 43.5208 45.5795 31.9654 47.1756C26.0485 47.9573 19.3314 48.662 13.389 48.7612L13.1979 42.1023C23.7421 41.7232 34.2336 40.4302 44.5543 38.2376C51.7402 36.7338 58.5314 34.8836 65.8291 33.5537C75.7478 31.746 84.2905 31.0782 94.2782 30.6096Z"/></svg>