<?xml version="1.0" encoding="utf-8" ?><svg xmlns="http://www.w3.org/2000/svg" xmlns:xlink="http://www.w3.org/1999/xlink" width="1477" height="554" viewBox="0 0 1477 554"><path fill="#2656A7" d="M281.815 40.6844C416.77 32.7109 532.617 135.71 540.523 270.699C548.428 405.688 445.394 521.511 310.432 529.351C175.564 537.186 59.8655 434.217 51.966 299.322C44.0665 164.428 146.955 48.6524 281.815 40.6844ZM191.709 492.251C182.271 462.691 174.216 419.705 177.984 388.616C187.812 252.927 310.756 179.447 438.394 188.868C464.9 190.867 491.043 196.239 516.189 204.855C499.635 162.868 476.638 129.099 440.758 100.917C437.321 98.2178 426.872 89.8325 423.411 88.7541C404.536 82.8739 372.18 82.0603 352.998 83.2538C280.04 88.7187 213.899 116.88 165.502 173.052C127.988 215.922 109.418 272.153 114.022 328.939C118.632 389.649 148.633 449.633 191.709 492.251ZM359.83 348.719C277.005 354.006 224.024 410.779 210.581 490.78C218.49 476.498 225.981 465.334 239.342 455.166C268.78 432.76 306.262 435.587 337.346 453.032C338.861 453.884 340.359 454.765 341.839 455.675C359.814 467.772 374.36 482.465 384.525 501.814C431.636 480.393 464.619 455.331 493.267 411.384C464.56 375.395 430.828 355.573 384.485 349.543C378.328 348.741 365.852 348.041 359.83 348.719ZM528.831 257.764C495.976 235.908 439.407 217.223 399.822 219.62C277.717 224.954 185.594 309.011 191.141 435.002C191.968 453.991 195.167 472.803 200.663 490.998C205.407 448.921 227.318 401.434 255.842 370.175C288.352 335.613 322.497 319.804 370.196 318.037C426.416 315.955 472.134 334.208 513.515 372.024C528.568 331.768 532.872 300.737 528.831 257.764Z"/><path fill="#2656A7" d="M1200.1 298.601C1243.5 295.092 1281.56 327.337 1285.25 370.73C1288.94 414.123 1256.87 452.334 1213.5 456.206C1169.87 460.101 1131.39 427.784 1127.68 384.133C1123.97 340.482 1156.44 302.13 1200.1 298.601ZM1212.59 419.159C1235.5 415.787 1251.41 394.568 1248.22 371.629C1245.03 348.689 1223.94 332.615 1200.98 335.623C1177.76 338.664 1161.47 360.047 1164.7 383.245C1167.92 406.442 1189.43 422.568 1212.59 419.159Z"/><path fill="#2656A7" d="M845.028 117.533C888.618 114.53 926.381 147.458 929.349 191.061C932.317 234.663 899.366 272.408 855.772 275.342C812.225 278.274 774.54 245.36 771.575 201.806C768.61 158.253 801.487 120.533 845.028 117.533ZM855.63 238.292C878.693 235.438 895.1 214.456 892.312 191.378C889.525 168.301 868.594 151.831 845.515 154.553C822.341 157.286 805.793 178.325 808.592 201.496C811.39 224.667 832.472 241.158 855.63 238.292Z"/><path fill="#2656A7" d="M1121.62 118.626C1132.63 117.826 1149.97 118.368 1161.61 118.187L1113.44 269.828C1102.41 269.787 1088.74 269.44 1077.96 270.231C1074.76 262.168 1071.23 250.597 1068.38 242.137C1061.44 221.207 1054.36 200.321 1047.15 179.481C1043.63 188.573 1039.78 201.95 1036.73 211.453L1017.75 270.519L982.077 270.578C974.261 245.132 964.405 217.531 955.92 192.073L931.879 119.988C944.809 119.618 958.654 119.762 971.657 119.665C981.729 149.451 990.456 181.406 1000.31 211.593L1031.19 119.09C1041.55 119.194 1051.91 119.135 1062.28 118.914L1094.6 211.232C1099.92 190.298 1107.07 169.311 1112.78 148.431C1115.46 138.629 1118.52 128.281 1121.62 118.626Z"/><path fill="#2656A7" d="M1357.72 298.903C1373.76 296.845 1397.4 301.2 1410.36 311.313C1423.3 321.413 1427.68 332.13 1429.92 347.767C1417.53 347.697 1404.62 348.008 1392.19 348.136C1386.4 328.044 1366 323.29 1349.18 335.864C1347.35 337.235 1344.92 342.648 1345.44 344.892C1349.52 362.295 1379.15 359.268 1392.93 364.67C1406.8 368.41 1421.8 374.618 1427.45 389.211C1433.32 404.35 1430.71 423.826 1419.29 436.022C1406.43 449.76 1388.82 453.487 1370.96 454.498C1342.08 455.305 1311.98 444.357 1302.78 414.291C1301.48 410.043 1300.71 405.7 1299.87 401.34C1312.5 401.45 1325.12 401.372 1337.74 401.105C1339.95 408.428 1340.42 408.774 1346.12 415.118C1355.36 425.395 1390.79 426.491 1390.36 408.81C1390.02 394.828 1356.79 393.429 1344.64 390.027C1326.21 384.862 1308.57 376.625 1306.28 354.132C1302.52 319.055 1326.1 302.716 1357.72 298.903Z"/><path fill="#2656A7" d="M911.261 301.807C946.624 299.345 976.739 313.021 981.891 350.728L944.245 351.249C942.6 345.808 942.296 344.058 938.112 339.079C928.759 327.905 897.624 330.257 897.532 347.696C898.7 360.669 918.367 362.039 927.501 363.941C942.62 367.09 960.242 369.823 971.581 380.682C987.346 395.778 985.346 425.326 970.226 440.202C956.656 453.552 938.403 457.085 920.06 457.493C882.949 457.026 858.352 442.21 852.016 404.423C864.599 404.583 877.185 404.45 889.762 404.024C891.541 409.856 893.642 414.363 898.683 418.547C908.913 427.092 930.376 429.012 940.047 418.828C944.774 413.851 941.128 404.394 935.04 402.081C914.194 394.163 889.174 396.008 870.906 381.29C853.671 367.404 854.078 337.205 867.814 321.075C879.102 307.726 894.497 303.389 911.261 301.807Z"/><path fill="#2656A7" d="M770.239 121.626L770.57 122.08C769.204 126.602 765.535 134.601 763.55 139.303L750.302 170.712L707.053 273.403C694.741 273.18 681.5 273.472 669.119 273.537C663.292 261.778 656.916 246.106 651.538 233.893L619.051 159.96C613.577 147.713 608.181 135.43 602.865 123.113C615.635 122.474 631.208 122.731 644.14 122.618C649.056 132.587 654.714 146.887 659.22 157.384L687.528 223.387C692.161 213.355 697.329 199.694 701.622 189.278L729.391 121.93C743.008 122.019 756.625 121.918 770.239 121.626Z"/><path fill="#2656A7" d="M737.523 305.916C751.299 305.965 765.075 305.877 778.85 305.651C772.336 322.493 763.988 341.204 756.916 358.008L715.098 457.374C702.715 457.185 689.569 457.462 677.135 457.541C672.712 448.675 667.854 436.762 663.792 427.535L638.992 371.197L610.866 307.105L652.145 306.592C666.974 339.033 681.441 374.496 695.596 407.452C708.861 374.437 723.343 338.413 737.523 305.916Z"/><path fill="#2656A7" d="M1079.04 303.346C1089.18 302.433 1112.94 302.996 1123.93 302.905C1123.62 313.834 1123.9 325.666 1124.12 336.644L1076.36 337.035C1077.14 347.286 1076.61 365.798 1076.66 376.897L1077.01 453.673C1071.11 453.578 1043.09 454.37 1039.78 453.248L1039.49 451.748C1039.8 441.889 1039.33 429.622 1039.29 419.463C1039.07 392.117 1039.02 364.769 1039.12 337.422C1023.46 337.153 1006.73 337.54 990.984 337.629C990.968 327.498 991.321 313.724 990.303 303.961C1019.81 303.65 1049.6 303.941 1079.04 303.346Z"/><path fill="#2656A7" d="M807.166 304.744C813.273 304.309 823.345 304.554 829.758 304.499C829.298 318.357 829.87 334.544 829.936 348.666L830.745 454.906L818.193 454.78C810.489 455.261 800.939 455.094 793.092 455.152L791.94 305.037C796.974 305.077 802.125 304.88 807.166 304.744Z"/></svg>
