<?xml version="1.0" encoding="utf-8" ?><svg xmlns="http://www.w3.org/2000/svg" xmlns:xlink="http://www.w3.org/1999/xlink" width="462" height="109" viewBox="0 0 462 109"><path fill="white" d="M0 0L462 0L462 109L0 109L0 0Z"/><defs><linearGradient id="gradient_0" gradientUnits="userSpaceOnUse" x1="12.377585" y1="88.148468" x2="76.330421" y2="20.396015"><stop offset="0" stop-color="#A1C342"/><stop offset="1" stop-color="#CEDD7C"/></linearGradient></defs><path fill="url(#gradient_0)" d="M4.56335 14.535L44.513 14.5593C51.1336 14.5673 58.2569 14.2887 64.7746 14.8503C73.4179 15.5091 82.1531 23.2901 83.7569 31.8256C84.9632 38.2457 84.4587 47.0391 84.4329 53.7217L84.4786 77.0339L84.474 89.1659C84.4727 90.1973 84.617 93.7129 84.1719 94.4351C65.8821 94.6691 47.3607 94.3261 29.054 94.4502C22.0157 94.4979 15.9142 92.6025 10.8752 87.4215C8.03573 84.4884 6.08075 80.8142 5.23459 76.8205C4.25138 72.2398 4.62858 58.3143 4.6239 53.0854C4.51529 40.2355 4.4951 27.3851 4.56335 14.535Z"/><path fill="white" d="M56.167 27.1769C56.4986 27.1865 57.0156 27.2782 57.2937 27.4671C69.5471 35.7887 73.7946 51.2677 66.9969 64.4447C63.6079 71.0445 57.7434 76.0339 50.6859 78.3216C43.1303 80.7186 35.4448 79.8604 28.4574 76.2294C25.2772 74.4808 22.9281 72.4487 20.4945 69.8007C23.787 71.4772 27.0323 72.7266 30.7097 73.2454C38.1 74.2131 45.5757 72.2518 51.539 67.7806C57.5418 63.2581 61.481 56.5179 62.4752 49.0682C63.6244 40.7839 61.1061 33.7051 56.167 27.1769Z"/><path fill="white" d="M47.1759 24.9459C47.8494 25.0162 48.5562 25.591 49.0758 25.9987C52.8684 28.9747 55.6474 32.3791 57.3168 36.886C59.3965 42.5917 59.107 48.8923 56.5129 54.3832C50.8746 66.6117 37.1361 71.2333 25.0492 65.6265C22.0549 64.0276 20.1015 62.6616 17.9045 60.0931C20.1528 61.1475 21.5014 61.7477 23.9193 62.3153C29.9972 63.7223 36.3851 62.6545 41.6749 59.3473C46.833 56.1067 50.4995 50.957 51.8742 45.0226C53.8301 36.5581 51.3624 31.6298 47.1759 24.9459Z"/><path fill="white" d="M39.7612 25.8935C42.081 26.5268 45.3313 30.9409 46.2797 33.2041C47.9494 37.1832 47.9661 41.6635 46.326 45.655C42.4435 55.1402 32.7032 57.9245 23.6103 54.1635C21.7782 53.1105 20.127 51.703 18.5942 50.2628C24.8784 52.6801 28.7282 53.6373 35.0799 50.1371C40.9797 46.886 44.0479 39.845 42.8748 33.2894C42.3757 30.5005 41.1693 28.3331 39.7612 25.8935Z"/><path fill="white" d="M33.5843 25.1543C35.3282 25.7894 37.1402 28.1493 37.9569 29.8162C40.8487 35.7184 38.0697 43.0696 32.1334 45.8028C28.7125 47.3779 25.8057 46.9458 22.3423 45.6732C20.5615 44.7204 19.7553 44.1042 18.1451 42.8591C18.4813 42.966 18.8184 43.0702 19.1563 43.1716C23.0064 44.3267 26.2202 44.6676 29.9324 42.6556C32.5884 41.2344 34.5579 38.8006 35.3938 35.9066C36.6304 31.701 35.5688 28.7939 33.5843 25.1543Z"/><path fill="#3D71A7" d="M400.771 38.7837L420.68 38.7685C424.44 38.7575 429.573 38.4238 433.075 39.1226C441.743 40.8529 441.953 48.1038 441.642 55.2255C441.413 60.4518 442.157 62.5096 438.445 66.5368C433.686 70.4953 426.515 69.5029 420.608 69.4901L400.795 69.4835C400.584 59.5106 400.773 48.813 400.771 38.7837Z"/><path fill="white" d="M409.204 45.492C414.069 45.519 427.417 44.9404 431.249 46.2369C431.413 46.3988 431.574 46.5633 431.733 46.7304C434.122 49.2572 433.307 55.7303 433.21 59.3966C432.798 60.005 432.195 60.7607 431.742 61.3653C431.718 61.3884 431.695 61.4118 431.67 61.4345C429.439 63.538 413.084 62.6424 409.21 62.5453C409.24 56.8609 409.238 51.1764 409.204 45.492Z"/><path fill="#3D71A7" d="M326.378 38.76L335.246 38.7654C334.237 40.9 333.279 43.1559 332.325 45.323C328.729 53.3552 325.184 61.4105 321.692 69.4885L313.155 69.4817C311.374 64.1456 306.28 54.5228 303.883 48.7004C301.024 55.143 297.71 63.3282 294.632 69.492L286.208 69.4751C285.285 66.6372 282.784 61.4171 281.511 58.562L272.71 38.8399L281.706 38.7645C284.493 45.3167 288.27 53.4988 290.644 60.0216C291.692 58.3044 293.715 53.6627 294.591 51.6523C296.24 47.8624 298.472 43.3179 299.867 39.4883C302.417 39.8345 305.657 39.7294 308.295 39.7285C311.279 46.5658 314.318 53.3787 317.412 60.1666C320.131 53.0524 323.673 45.8879 326.378 38.76Z"/><path fill="#3D71A7" d="M385.004 38.7938L393.467 38.776L393.421 69.412C391.523 69.6174 387.065 69.4918 384.973 69.4848L371.638 57.2524C368.912 54.7473 365.799 51.7456 362.959 49.4317L363.023 69.4715L354.663 69.4647L354.676 38.7801L363.064 38.7784C363.337 39.0685 363.605 39.321 363.893 39.5941C370.852 46.1913 378.146 52.4925 385.05 59.1408C384.942 52.4334 385.016 45.5181 385.004 38.7938Z"/><path fill="#282627" d="M138.479 38.7626L173.34 38.7528C172.655 40.8948 171.787 43.3945 171.296 45.5584C163.157 45.7324 154.806 45.3749 146.681 45.6982C146.606 47.6037 146.636 49.028 146.729 50.9357L171.478 50.9621L169.354 57.222C166.133 57.3116 162.62 57.2499 159.375 57.2573L146.676 57.2837C146.591 59.1991 146.643 60.8088 146.713 62.7126L173.39 62.7583C172.588 64.9616 171.882 67.2504 171.165 69.4863L138.469 69.4693L138.479 38.7626Z"/><path fill="#282627" d="M220.514 38.7349C223.17 38.8027 226.067 38.7512 228.743 38.7576L228.747 50.3067C236.318 50.3598 243.889 50.3512 251.46 50.2809L251.478 38.779L259.74 38.7588C259.739 41.8753 259.934 68.4306 259.609 69.3081L259.058 69.4885L251.442 69.469C251.471 65.3339 251.468 61.1987 251.433 57.0637C243.868 57.036 236.304 57.0486 228.739 57.1014L228.738 69.4611C226.039 69.5001 223.231 69.4565 220.522 69.4534C220.39 59.3111 220.509 48.8976 220.514 38.7349Z"/><path fill="#282627" d="M188.817 38.8488C196.994 38.5322 206.495 38.7876 214.785 38.7624C214.083 40.6759 213.299 43.465 212.669 45.468C206.208 45.5574 199.668 45.332 193.232 45.429C189.368 45.4873 186.376 46.636 186.388 50.8689C186.396 53.7566 186.443 56.5683 186.527 59.4358C188.287 62.3487 190.421 62.6655 193.624 62.6528C197.061 62.6391 200.503 62.5977 203.939 62.5752C207.127 62.5937 211.701 62.7504 214.778 62.5196L212.6 69.4652L197.103 69.5025C193.714 69.508 190.366 69.6186 186.987 69.1719C182.321 68.5595 178.309 64.6042 178.23 59.7239C178.073 50.0869 176.222 39.9888 188.817 38.8488Z"/><path fill="#282627" d="M95.8125 38.7432C107.596 39.0395 120.887 38.7992 132.752 38.7634L130.587 45.4669C126.048 45.4522 121.509 45.463 116.971 45.4994C117.049 48.8804 116.998 52.4763 117.01 55.875L117.027 69.4676L108.712 69.4683C108.626 61.8407 108.958 52.9956 108.639 45.4994C103.694 45.4107 98.5651 45.4648 93.6068 45.4537C94.3652 43.507 95.2807 40.72 95.8125 38.7432Z"/><path fill="#3D71A7" d="M338.945 38.7693L347.253 38.7978L347.269 69.4998L338.974 69.4979C338.627 60.0591 338.868 48.3483 338.945 38.7693Z"/><path fill="#1C5FA2" d="M450.555 38.9203C454.121 38.7457 457.167 41.4689 457.39 45.0328C457.614 48.5967 454.933 51.6792 451.372 51.9518C449.025 52.1315 446.763 51.0338 445.452 49.0789C444.14 47.1239 443.983 44.6143 445.04 42.5108C446.096 40.4072 448.204 39.0354 450.555 38.9203Z"/><path fill="white" d="M450.387 39.856C453.436 39.613 456.112 41.8717 456.385 44.9186C456.657 47.9655 454.425 50.6633 451.381 50.9655C448.294 51.2719 445.551 49.0016 445.275 45.9126C444.998 42.8235 447.295 40.1023 450.387 39.856Z"/><path fill="#3D71A7" d="M448.02 42.003C450.017 41.9817 451.152 41.7599 452.848 42.7824C453.865 44.3516 452.777 45.1646 451.57 46.1541C452.112 46.7868 453.412 48.1226 453.443 48.8546C452.855 48.984 452.928 48.8965 452.306 48.6074C451.767 47.5932 451.079 46.6652 450.266 45.8541C448.526 45.8567 449.738 48.1206 448.411 49.1002C447.814 48.4055 447.989 43.2178 448.02 42.003Z"/><path fill="white" d="M449.779 42.7922C450.942 42.7905 451.583 42.6766 452.268 43.6798C452.201 44.3844 451.954 44.5767 451.477 45.0696C450.284 45.0616 449.356 45.2266 448.745 44.0652C448.941 43.3415 449.183 43.217 449.779 42.7922Z"/><path fill="#3D71A7" d="M319.366 77.7432C322.593 78.0339 329.008 76.8394 330.79 79.5972C332.329 81.9796 330.742 84.2753 328.705 85.5082C329.679 86.3417 331.374 87.5756 331.612 88.8166L331.338 88.9321C328.964 88.2012 328.407 87.2915 326.805 85.5082C325.342 85.498 323.744 85.9058 322.582 85.1007L322.583 84.2498C323.95 84.1152 328.074 84.5604 328.781 83.4549C332.05 78.3428 323.665 79.4284 321.001 79.5029C321.06 81.1352 321.341 87.3009 320.922 88.5329C320.331 88.8787 320.577 88.8333 319.928 88.7543C319.125 87.474 319.539 80.1068 319.366 77.7432Z"/><path fill="#3D71A7" d="M407.235 77.732C408.477 77.7643 409.631 77.8625 410.866 77.966C412.835 77.8742 414.839 77.6378 416.742 78.0377C417.182 78.4427 417.177 78.6954 417.259 79.2777C416.074 79.5883 410.514 79.5006 408.929 79.5003C408.969 81.9561 408.972 84.4124 408.938 86.8683C410.634 86.86 416.745 86.2222 417.366 87.8788L416.931 88.5358C415.12 88.9207 409.233 88.7669 407.168 88.7536C407.289 85.1386 407.237 81.3613 407.235 77.732Z"/><path fill="#1C5FA2" d="M410.866 77.966C412.835 77.8742 414.839 77.6378 416.742 78.0377C417.182 78.4427 417.177 78.6954 417.259 79.2777C415.363 78.97 409.256 79.5413 407.858 78.6448L408.1 78.313C409.077 77.9759 409.849 77.9972 410.866 77.966Z"/><path fill="#3D71A7" d="M388.866 77.8297C390.622 77.8574 394.262 77.2389 395.046 78.7816L394.832 79.2347C392.459 80.2647 388.422 78.3298 386.302 80.3968C385.58 81.1051 385.174 82.0737 385.173 83.0849C385.139 87.2795 388.73 87.0569 391.687 87.0294C393.057 86.9817 394.269 86.6527 394.944 88.0207C393.464 89.6274 387.233 88.794 385.411 87.3913C384.259 86.5134 383.507 85.2107 383.323 83.7743C383.145 82.3758 383.547 80.9656 384.435 79.8707C385.777 78.1931 386.916 78.0552 388.866 77.8297Z"/><path fill="#3D71A7" d="M349.493 86.4285C350.545 84.6967 354.299 76.8677 356.251 77.8099C356.407 78.6412 356.302 78.4612 355.716 79.3832C353.912 82.4732 351.586 86.6582 349.498 89.4652C347.603 87.0455 343.887 80.5872 342.261 77.7C342.953 77.6703 343.196 77.7169 343.859 77.8345C345.71 78.9013 348.378 84.3826 349.493 86.4285Z"/><path fill="#282627" d="M269.857 53.3882C271.708 53.3541 273.263 54.7725 273.398 56.6186C273.533 58.4646 272.202 60.0944 270.366 60.3303C269.086 60.4948 267.819 59.9384 267.075 58.8841C266.33 57.8298 266.229 56.4502 266.812 55.2987C267.395 54.1471 268.567 53.412 269.857 53.3882Z"/><path fill="#3D71A7" d="M296.761 78.488C297.981 80.2793 297.998 78.7578 298.931 79.3882C298.358 79.7666 298.576 85.8697 298.576 86.9527C300.345 86.8974 305.835 86.3348 306.893 87.6831L306.77 88.2754C305.84 89.0279 298.602 88.7589 296.975 88.751C296.927 86.4233 297.212 80.4783 296.761 78.488Z"/><path fill="#3D71A7" d="M282.746 82.6452C284.382 83.7099 284.579 84.6191 284.287 86.5181C283.953 87.3281 283.531 87.8498 282.724 88.2011C280.939 88.9778 274.263 89.0372 272.675 88.4169C272.526 87.9014 272.562 88.0641 272.762 87.4886C274.249 86.2142 279.643 87.4857 281.827 86.6436C282.607 86.3429 282.608 85.9512 282.972 85.1646C282.284 84.0746 281.947 83.9976 280.74 83.6953C280.955 82.6535 281.841 82.7881 282.746 82.6452Z"/><path fill="#1C5FA2" d="M282.746 82.6452C284.382 83.7099 284.579 84.6191 284.287 86.5181C283.934 85.7718 284.097 85.202 283.7 84.7762L282.972 85.1646C282.284 84.0746 281.947 83.9976 280.74 83.6953C280.955 82.6535 281.841 82.7881 282.746 82.6452Z"/><path fill="#3D71A7" d="M439.173 82.4253C442.152 84.007 442.262 86.89 439.329 88.5543C437.546 88.7046 435.556 88.8106 433.772 88.7775C432.166 88.7477 429.835 89.3727 429.458 87.4033C431.026 86.1039 437.839 88.1298 439.735 85.8116C439.814 84.6323 439.068 83.9779 438.011 83.6632C438.255 83.1392 438.73 82.8016 439.173 82.4253Z"/><path fill="#1C5FA2" d="M431.729 83.7133C428.168 82.1571 429.035 78.2855 432.68 77.9492C434.303 77.7994 439.645 77.5061 440.83 78.348L440.84 78.8785C439.207 80.5233 432.467 78.1055 431.201 80.7551C431.3 81.6317 431.402 81.7699 432.006 82.4159C431.946 82.7795 431.87 83.3984 431.729 83.7133Z"/><path fill="#1C5FA2" d="M272.653 80.7386C272.817 77.9404 274.873 77.9701 277.234 77.8075C278.257 77.737 283.298 77.8064 283.921 78.3937C283.069 80.7305 276.523 78.4734 274.375 80.062C273.895 80.3209 273.14 80.8314 272.653 80.7386Z"/><path fill="#3D71A7" d="M369.646 77.3254C370.413 77.6148 370.208 77.4241 370.6 78.0345C370.753 80.0016 370.955 87.5591 370.207 89.1948C369.805 88.9922 369.654 88.8595 369.305 88.5754C368.832 87.0952 368.607 78.3711 369.646 77.3254Z"/><path fill="#1C5FA2" d="M296.761 78.488L297.212 77.9274C298.713 77.8357 305.354 77.8043 306.644 78.1046L306.899 78.4748C306.725 78.8433 306.453 79.3778 305.996 79.4018C304.203 79.4958 300.603 79.5299 298.931 79.3882C297.998 78.7578 297.981 80.2793 296.761 78.488Z"/><path fill="#3D71A7" d="M272.653 80.7386C273.14 80.8314 273.895 80.3209 274.375 80.062C274.317 80.8735 274.223 81.5873 274.808 82.2418C276.922 82.4391 281.183 82.3742 282.746 82.6452C281.841 82.7881 280.955 82.6535 280.74 83.6953C279.604 83.9391 275.992 83.7733 274.767 83.6895C273.175 83.0808 272.614 82.4484 272.653 80.7386Z"/><path fill="#3D71A7" d="M432.006 82.4159C433.302 82.4064 438.345 82.5821 439.173 82.4253C438.73 82.8016 438.255 83.1392 438.011 83.6632C436.949 83.9432 433.021 83.7607 431.729 83.7133C431.87 83.3984 431.946 82.7795 432.006 82.4159Z"/><path fill="#3D71A7" d="M410.395 82.543C411.741 82.4262 415.272 82.1412 416.516 82.6908C416.845 82.8362 416.854 83.3088 416.942 83.7149C415.538 83.7849 412.091 84.1803 410.822 83.5906C410.46 83.4224 410.476 82.9793 410.395 82.543Z"/><path fill="#3D71A7" d="M300.073 82.5768C301.293 82.4384 305.057 82.1488 306.234 82.6972C306.531 82.8356 306.53 83.3228 306.597 83.703C305.24 83.7718 301.689 84.1469 300.47 83.5767C300.135 83.4197 300.147 82.9846 300.073 82.5768Z"/></svg>