<?xml version="1.0" encoding="utf-8" ?><svg xmlns="http://www.w3.org/2000/svg" xmlns:xlink="http://www.w3.org/1999/xlink" width="200" height="60" viewBox="0 0 200 60"><path fill="white" d="M0 0L200 0L200 60L0 60L0 31.0586L0 8.40919L0 0Z"/><path fill="#141414" d="M0 8.40919C2.23756 7.9957 13.3482 8.2253 16.4413 8.22621L54.6385 8.2128L150.629 8.21536C166.579 8.21569 183.648 8.53822 199.586 8.18973C198.574 12.7959 200.06 22.6703 199.395 27.6073C199.254 28.654 199.75 30.3541 199.128 31.0079C197.085 31.5835 189.09 31.1271 186.223 31.2664C185.109 31.1993 184.169 31.2404 183.062 31.2838C181.373 31.1248 177.938 31.2137 176.134 31.2156L163.233 31.2387C162.772 31.2101 161.391 31.3007 160.861 31.3207C159.528 31.0965 151.258 31.2001 149.631 31.2008L123.41 31.22L31.2323 31.2131L10.173 31.2309C8.039 31.2331 1.72284 31.3782 0 31.0586L0 8.40919Z"/><path fill="white" d="M149.355 14.0862C157.163 13.1161 159.933 15.3408 158.447 23.345C158.026 25.6126 155.62 25.6864 153.811 25.9436C151.767 26.1379 147.109 26.2018 145.61 24.9258C143.769 23.3592 143.941 17.1501 145.347 15.2771C146.023 14.3756 148.301 14.2152 149.355 14.0862Z"/><path fill="#141414" d="M148.799 15.5801C150.455 15.457 154.316 15.3317 155.697 15.9826C157.167 17.4795 156.693 21.6119 156.107 23.478C155.889 24.1703 155.101 24.2836 154.506 24.4807C150.791 24.498 145.752 25.7233 146.327 20.3899C146.594 17.9084 145.969 16.2036 148.799 15.5801Z"/><path fill="white" d="M28.664 14.0937C30.6084 13.8898 35.1739 13.8673 36.6926 15.0451C38.5825 16.5109 38.5165 22.6695 37.2161 24.5619C36.5653 25.5091 34.3879 25.7617 33.3087 25.9283C28.6718 26.3569 23.3736 26.6116 23.6384 20.4934C23.8328 16.0038 23.8026 14.5882 28.664 14.0937Z"/><path fill="#141414" d="M27.9794 15.5771C30.457 15.4269 32.9431 15.5093 35.4052 15.8232C35.8093 17.4312 36.2612 22.0713 35.4318 23.6496C35.0894 24.3012 34.53 24.2931 33.8265 24.4776C31.4348 24.526 26.4285 25.3391 25.9201 22.4651C25.5711 20.4922 25.4851 18.2938 26.3169 16.4099C26.6042 15.7593 27.3808 15.7257 27.9794 15.5771Z"/><path fill="white" d="M132.587 14.1202C136.448 14.1354 143.7 13.3986 141.071 19.7629C141.043 19.8314 140.239 19.9297 139.954 20.4915C140.343 20.8674 140.684 21.2904 140.969 21.7507C141.699 22.9233 141.902 25.0756 140.565 25.8994C138.748 25.7222 139.036 23.2041 138.995 21.8063C137.916 20.9914 132.314 21.2495 130.721 21.2632C130.747 22.4776 130.94 24.7585 130.445 25.7074C129.931 25.9264 129.5 25.8116 128.955 25.7248C128.127 24.7416 128.479 16.1587 128.469 14.2106L132.587 14.1202Z"/><path fill="#141414" d="M130.736 15.6633C133.29 15.6783 137.677 14.7768 139.252 16.8342C139.484 17.8549 139.365 18.2682 139.162 19.3003C137.153 20.1151 132.952 19.82 130.645 19.7736L130.736 15.6633Z"/><path fill="#F9F8FB" d="M181.557 14.1215C184.137 14.1307 189.794 13.7484 191.642 15.4415C192.192 15.938 192.515 16.6379 192.537 17.3787C192.668 20.9132 189.092 21.3092 186.56 21.3807C184.846 21.412 183.407 21.413 181.696 21.3236C181.671 22.8188 182.086 24.6078 181.228 25.7277C180.666 25.7562 180.094 25.8469 179.628 25.5287C179.322 23.2224 179.45 17.0205 179.525 14.4984C180.017 14.0938 180.813 14.1736 181.557 14.1215Z"/><path fill="#141414" d="M181.813 15.5757C185.636 16.0049 191.331 13.7403 189.621 19.6618C187.067 20.0929 184.246 19.9826 181.644 19.9525C181.635 18.4165 181.712 17.1071 181.813 15.5757Z"/><path fill="white" d="M116.173 14.0815C118.794 13.9807 122.179 13.6923 124.592 15C125.829 15.6703 125.765 17.8614 124.357 18.1103C123.551 17.7117 122.971 16.586 122.473 15.795C120.2 15.1303 116.131 15.3229 113.884 15.9842C113.64 17.7007 113.118 22.755 114.444 24.0262C115.953 24.768 118.655 24.8216 120.33 24.6246C122.795 24.3346 123.501 23.77 123.166 21.3279C121.102 21.3241 120.068 21.4247 118.091 20.764L118.135 20.4867C120.184 19.5851 123.236 19.8624 125.487 19.9676C125.561 23.1897 125.849 25.3206 121.886 25.8551C119.226 26.2139 114.75 26.32 112.497 24.7969C110.989 23.7775 111.094 17.1018 112.214 15.611C113.143 14.3866 114.757 14.2636 116.173 14.0815Z"/><path fill="#F9F8FB" d="M86.0461 13.9668C87.1375 14.1342 87.0468 13.9595 87.8052 14.5928C88.269 15.7635 88.0298 17.6332 88.0078 19.025C91.0006 19.2228 94.3434 19.2859 97.3301 18.9999C97.2776 17.3588 96.7403 15.1259 98.1841 14.2464C99.0103 14.238 98.8396 14.1329 99.5121 14.4965C99.8112 15.9628 99.6422 23.9429 99.6321 25.8913C98.5539 25.8618 98.21 25.9622 97.5064 25.3076C97.0165 24.1831 97.306 21.9968 97.3405 20.5883C94.216 20.5246 91.0906 20.5225 87.966 20.5819C88.0167 22.264 88.5166 24.7714 87.2515 25.8745C86.4447 25.9082 86.6979 26.0022 86.1021 25.5674C85.6477 23.4067 85.7273 16.2264 86.0461 13.9668Z"/><path fill="#F9F8FB" d="M57.6134 14.1218C59.5392 14.1054 65.479 13.8259 66.7952 14.9485C65.5556 16.0323 59.6332 15.6501 57.7851 15.5946C57.7216 16.6274 57.7326 17.9241 57.7106 18.9808C59.3873 19.1664 65.2655 18.8164 66.2089 19.8336L66.0842 20.264C65.5795 20.6 60.4276 20.484 59.4375 20.4848C58.8579 20.4622 58.6014 20.4249 58.0711 20.6543C57.4592 21.4911 57.6823 23.2493 57.7059 24.3873C60.1769 24.368 63.4636 24.3065 65.9687 24.5046C66.4008 24.5388 66.4778 24.8001 66.6557 25.1195L66.2874 25.4879C64.2851 26.1673 57.8678 25.8112 55.3797 25.7487C55.489 22.8124 55.247 16.8189 55.5869 14.4713C55.9811 14.0913 57.014 14.1487 57.6134 14.1218Z"/><path fill="white" d="M12.5712 14.0892C14.5688 13.815 17.7829 13.9449 19.741 14.5801C20.6425 14.8725 21.4965 16.7794 21.0633 17.8147C20.293 18.1988 20.4788 18.0941 19.569 17.9941C18.8659 17.4338 19.0295 17.2995 18.7944 16.2439C18.1535 15.5433 17.8025 15.415 16.794 15.453C14.7012 15.5321 10.3875 14.694 9.93532 17.6064C9.77504 18.6387 9.96834 23.157 10.6226 23.8853C11.9748 24.903 15.0134 24.5445 16.8125 24.4951C18.8034 24.5381 18.7989 23.756 19.5166 22.0571C20.2147 21.6041 19.9261 21.6984 20.8574 21.7961C21.0956 22.0136 21.2676 22.0748 21.2876 22.4371C21.3451 27.0433 16.6402 25.632 13.6191 26.013C6.9652 26.852 6.51894 20.1045 8.35491 15.5894C8.77376 14.5593 11.3994 14.2439 12.5712 14.0892Z"/><path fill="white" d="M74.4073 14.0913C77.391 13.8933 81.6117 13.4847 83.1258 16.7207C83.1198 17.54 83.2365 17.3236 82.7779 17.8347C79.6857 18.7603 81.1405 16.8687 80.154 15.8418C78.6165 14.9324 73.5957 15.5661 71.8024 15.9191C71.4613 23.4207 70.1522 24.7046 78.3125 24.5017C81.5932 24.5366 79.9017 22.9796 81.2577 21.7965C82.3051 21.7854 82.067 21.6468 82.8892 22.1681C83.6026 23.8265 81.6242 25.7697 80.0482 25.8466C73.78 26.1523 68.702 27.337 69.3217 19.0425C69.6338 14.8651 70.2392 14.5822 74.4073 14.0913Z"/><path fill="white" d="M173.755 13.9997C174.42 14.0571 174.691 14.0564 175.259 14.4416C175.734 15.2221 175.385 19.3479 175.549 20.6772C175.559 21.6386 175.603 23.9893 174.816 24.6217C172.351 26.6034 165.127 26.5993 162.776 24.6793C161.651 23.7608 161.954 18.6334 161.967 16.9375C161.925 15.5454 161.726 14.4113 163.154 13.8071C165.49 14.8731 163.279 22.8219 164.778 24.1673C165.85 24.6566 169.195 24.5843 170.461 24.5191C176.645 24.2004 171.245 17.2385 173.755 13.9997Z"/><path fill="#F9F8FB" d="M42.9013 14.1129C44.6962 14.1004 52.1479 13.6964 53.0273 14.7951L52.8672 15.4205C52.0439 15.9265 48.952 15.7237 47.7279 15.7232C47.6775 18.2079 47.6461 20.693 47.6338 23.1783C47.6944 24.1306 47.8751 25.1182 47.3285 25.7734C46.5049 25.9896 46.7803 26.0338 46.0872 25.7151C45.0105 24.155 45.446 17.9386 45.4827 15.7421C43.8562 15.7894 41.1308 16.0152 39.8061 14.9482L39.9333 14.6517C40.7772 14.0998 41.8902 14.1514 42.9013 14.1129Z"/><path fill="#11517C" d="M183.062 31.2838C184.169 31.2404 185.109 31.1993 186.223 31.2664L186.014 31.7326C186.537 32.9635 186.653 33.7502 186.892 35.0423C187.792 34.1894 187.954 33.592 189.212 33.2206C190.964 32.703 191.505 32.6905 191.75 34.6637C191.539 36.0708 190.364 35.8729 190.709 36.8654L191.839 37.324C192.321 38.9476 187.696 43.2241 186.513 44.4825C177.273 46.7639 181.313 45.9412 177.263 52.951C175.319 53.4048 173.817 53.7123 171.845 54.003C173.081 53.342 174.128 52.811 175.407 52.2336C175.793 50.322 176.339 47.6763 177.257 45.9291C178.263 45.1905 180.7 43.5814 181.101 42.4972C181.016 42.2799 180.896 41.9287 180.761 41.7536C180.739 41.1706 181.435 41.394 181.425 39.8155C180.719 39.0123 179.846 38.6719 179.464 37.7212C179.647 36.6431 180.759 35.6583 181.567 34.7174L181.257 34.4007C181.957 33.4958 182.675 32.6047 183.41 31.728L183.062 31.2838Z"/><path fill="white" d="M183.062 31.2838C184.169 31.2404 185.109 31.1993 186.223 31.2664L186.014 31.7326C186.537 32.9635 186.653 33.7502 186.892 35.0423C186.587 35.3376 186.256 35.6098 186.109 36.0062L186.174 36.323L185.921 36.6779C185.047 36.4105 185.301 36.5135 184.666 35.7945C184.526 36.7424 184.332 36.9907 183.793 37.7871C183.134 38.8955 182.653 39.321 181.425 39.8155C180.719 39.0123 179.846 38.6719 179.464 37.7212C179.647 36.6431 180.759 35.6583 181.567 34.7174L181.257 34.4007C181.957 33.4958 182.675 32.6047 183.41 31.728L183.062 31.2838Z"/><path fill="#D7E9FE" d="M183.062 31.2838C184.169 31.2404 185.109 31.1993 186.223 31.2664L186.014 31.7326C186.537 32.9635 186.653 33.7502 186.892 35.0423C186.587 35.3376 186.256 35.6098 186.109 36.0062L186.174 36.323L185.921 36.6779C185.047 36.4105 185.301 36.5135 184.666 35.7945C184.186 34.5515 184.044 32.7498 183.41 31.728L183.062 31.2838Z"/><path fill="#28475C" d="M186.109 36.0062C185.62 34.9308 184.985 33.1182 185.39 31.9515L186.014 31.7326C186.537 32.9635 186.653 33.7502 186.892 35.0423C186.587 35.3376 186.256 35.6098 186.109 36.0062Z"/><path fill="#28475C" d="M183.41 31.728C184.044 32.7498 184.186 34.5515 184.666 35.7945C184.526 36.7424 184.332 36.9907 183.793 37.7871C182.324 36.0375 183.267 36.1809 182.648 34.2291L182.237 34.163L181.567 34.7174L181.257 34.4007C181.957 33.4958 182.675 32.6047 183.41 31.728Z"/><path fill="#D7E9FE" d="M184.083 38.1578C184.81 38.2129 185.401 38.5347 185.596 39.2329C185.118 40.006 185.102 39.848 184.201 40.2965C183.671 40.4372 183.339 40.5761 182.844 40.3317C182.914 39.5345 183.56 38.8892 184.083 38.1578Z"/><path fill="white" d="M163.233 31.2387L176.134 31.2156C177.938 31.2137 181.373 31.1248 183.062 31.2838L183.41 31.728C182.675 32.6047 181.957 33.4958 181.257 34.4007L177.957 37.9934C174.175 35.857 165.556 33.6407 163.233 31.2387Z"/><path fill="#686D74" d="M160.861 31.3207C161.391 31.3007 162.772 31.2101 163.233 31.2387C165.556 33.6407 174.175 35.857 177.957 37.9934L181.257 34.4007L181.567 34.7174C180.759 35.6583 179.647 36.6431 179.464 37.7212C179.846 38.6719 180.719 39.0123 181.425 39.8155L180.559 39.9469C177.702 40.3297 176.178 42.0155 174.495 41.4631C174.768 41.1545 175.029 40.5221 175.213 40.1277C171.17 37.936 166.14 37.505 163.596 32.695C162.988 31.5454 161.983 31.4914 160.861 31.3207Z"/><path fill="#F9F8FB" d="M175.213 40.1277L175.511 40.4133C176.762 40.3159 179.295 36.6015 180.559 39.9469C177.702 40.3297 176.178 42.0155 174.495 41.4631C174.768 41.1545 175.029 40.5221 175.213 40.1277Z"/><path fill="white" d="M165.205 33.4616C165.238 33.4647 165.27 33.4684 165.303 33.4725C166.175 33.5817 176.016 37.3778 177.174 38.3868C177.326 38.5191 177.219 38.8923 177.184 39.1518C177.085 39.1781 176.984 39.2024 176.884 39.2245C174.192 39.8113 165.77 36.0788 165.205 33.4616Z"/><path fill="#28475C" d="M181.425 39.8155C181.435 41.394 180.739 41.1706 180.761 41.7536C178.575 43.0089 172.49 45.6218 171.056 42.1805C171.449 41.1244 172.437 42.8485 174.495 41.4631C176.178 42.0155 177.702 40.3297 180.559 39.9469L181.425 39.8155Z"/><path fill="#F9F8FB" d="M72.8704 34.251C74.3936 34.2534 75.2605 34.2091 76.7499 34.6056C77.0324 34.7447 77.4061 34.8988 77.614 35.1231C77.7789 36.3123 77.8443 36.657 77.4258 37.7746C77.2711 37.9378 76.6583 38.6078 76.516 38.6875C73.0008 39.125 70.8774 37.9754 72.8704 34.251Z"/><path fill="#141414" d="M72.8704 34.251L73.0574 35.2884C73.8971 36.3264 75.4383 35.8063 75.9147 36.4369C74.7002 37.2158 74.1981 36.2116 73.2222 37.2463L73.2794 37.8143C74.5641 38.7593 75.4218 37.7868 76.516 38.6875C73.0008 39.125 70.8774 37.9754 72.8704 34.251Z"/><path fill="#686D74" d="M72.8704 34.251C74.3936 34.2534 75.2605 34.2091 76.7499 34.6056C75.5349 35.5314 74.4561 34.2048 73.0574 35.2884L72.8704 34.251Z"/><path fill="#141414" d="M140.81 34.3136C140.892 34.3157 140.975 34.3195 141.057 34.3251C144.081 34.5155 144.896 36.9286 142.718 38.8169C141.315 38.8343 139.916 38.9404 139.178 37.4957C138.399 35.97 139.625 34.8969 140.81 34.3136Z"/><path fill="white" d="M141.865 34.6597C142.508 34.8424 142.302 34.7571 142.811 35.3353C143.299 36.9872 143.003 37.9076 141.411 38.5123C138.946 37.3355 139.548 35.5231 141.865 34.6597Z"/><path fill="#141414" d="M92.9406 34.4845C96.1913 34.4943 97.9443 36.4938 95.0354 38.8293C91.5846 38.77 89.9872 36.8105 92.9406 34.4845Z"/><path fill="white" d="M93.453 35.1471C94.2629 34.8778 95.1421 35.2892 95.4542 36.0837C95.7663 36.8781 95.4024 37.7779 94.6257 38.132C94.0851 38.3785 93.4525 38.3063 92.9813 37.9443C92.5102 37.5823 92.2774 36.9898 92.3761 36.4039C92.4749 35.818 92.8891 35.3345 93.453 35.1471Z"/><path fill="#141414" d="M33.7504 34.4952C34.3562 34.432 35.5082 34.5318 36.1631 34.5713C37.2811 35.3863 35.74 35.6795 36.9594 37.3882C36.9285 38.1352 36.9253 37.937 36.3505 38.588C34.8476 38.8809 32.9687 38.9492 32.2032 37.2734C32.0227 36.8811 32.0058 36.4331 32.1563 36.0283C32.4913 35.1517 32.9364 34.8678 33.7504 34.4952Z"/><path fill="white" d="M34.4737 34.5882C35.131 34.755 35.5694 34.8148 36.0456 35.3172C35.8486 35.995 35.5795 35.9778 34.8585 36.4458C35.0684 37.1398 35.2487 36.5536 35.9453 37.184L35.9311 38.2568C34.3245 38.2485 33.151 38.3754 33.0619 36.444C33.442 35.4745 33.6883 35.2802 34.4737 34.5882Z"/><path fill="#292932" d="M160.541 36.9101C160.917 37.3398 160.828 37.1614 160.895 37.7456C159.946 38.9117 158.605 39.1006 157.234 38.5362C155.054 36.3456 157.988 32.7258 160.411 35.1015C160.774 35.9669 160.684 35.7113 160.383 36.7352L160.541 36.9101Z"/><path fill="white" d="M160.383 36.7352L160.541 36.9101C159.65 38.0814 158.882 38.5079 157.429 37.8504L157.38 37.4355C158.316 36.5633 159 36.7509 160.383 36.7352Z"/><path fill="#292932" d="M77.614 35.1231C78.5686 34.5925 79.3282 34.1603 80.4445 34.4931C80.8995 34.6263 81.2822 34.936 81.5073 35.3532C82.169 36.5907 81.5872 38.1366 80.3776 38.8156C79.0576 39.1386 78.2781 38.7359 77.4258 37.7746C77.8443 36.657 77.7789 36.3123 77.614 35.1231Z"/><path fill="white" d="M78.4463 36.7289C79.3634 36.7448 80.3677 36.604 80.941 37.3473L80.694 38.1097C79.8559 38.2241 79.4919 38.3096 78.6681 38.081C78.2396 37.4223 78.3534 37.6186 78.4463 36.7289Z"/><path fill="#292932" d="M43.5269 34.2547C45.8934 34.3234 46.8556 37.3575 44.8074 38.8175C42.877 38.8503 41.1899 38.4793 41.8149 35.772C42.0498 34.7544 42.6043 34.6869 43.5269 34.2547Z"/><path fill="#141414" d="M116.969 34.4893C117.99 34.7582 118.487 34.93 119.536 34.8456L120.127 34.9224C120.435 35.9517 118.983 38.2182 118.458 39.1487C117.555 37.8768 117.264 37.2778 116.604 35.8847C115.936 36.2748 115.398 37.7655 114.908 38.6633L114.525 38.7686L114.22 38.2484C114.147 37.09 115.837 34.8241 116.969 34.4893Z"/><path fill="#F9F8FB" d="M116.969 34.4893C117.99 34.7582 118.487 34.93 119.536 34.8456C119.31 35.201 118.82 37.473 118.688 38.0316C118.073 36.9473 117.276 35.6782 116.969 34.4893Z"/><path fill="#141414" d="M101.688 34.4127C102.882 34.7433 104.338 36.8958 105.123 37.9062C105.167 36.9245 105.164 35.7155 105.477 34.8048C106.354 35.5302 106.166 38.0104 105.598 38.9171C104.056 37.8329 103.017 36.4203 101.856 34.9613C101.922 36.0087 102.046 37.3457 101.963 38.3679C100.867 37.388 101.107 35.6288 101.688 34.4127Z"/><path fill="#141414" d="M26.3155 34.5278C26.386 34.5411 26.4561 34.5563 26.5257 34.5735C28.1361 34.9727 29.0147 36.6818 29.8118 38.0101C29.9135 37.0828 29.952 35.8936 30.4505 35.1354L30.7167 35.1985C31.0703 36.2979 30.8298 37.7807 30.7192 38.9574C29.5047 38.466 28.3956 36.8795 27.5644 35.8478L27.101 35.8689C26.675 36.6062 26.5683 37.62 26.4281 38.473L26.2411 38.3464C25.9659 36.8617 26.1302 36.0056 26.3155 34.5278Z"/><path fill="#282E2C" d="M125.027 34.6159C125.822 34.9556 125.516 35.233 126.353 36.0786C128.54 36.6926 128.539 35.1354 129.529 35.0971C129.543 35.1442 129.557 35.1915 129.569 35.2391C129.818 36.176 129.919 38.1176 129.414 39.0015C128.941 38.5105 128.785 37.7005 128.593 37.0315C127.911 36.4765 128.128 36.4855 127.348 36.4598C126.569 36.7876 125.974 37.7532 125.455 38.4551L125.244 38.3113L125.027 34.6159Z"/><path fill="#282E2C" d="M67.5996 34.5053C68.417 34.4758 70.2375 34.5437 70.9205 34.9967L70.9647 35.5318C70.051 36.196 68.6722 34.4169 67.305 35.5924C66.8856 37.4367 67.7651 38.0328 69.2759 38.3584C69.7496 37.8328 70.0338 37.6041 70.5734 37.1713L70.9311 37.2522C70.9745 38.0059 71.0527 37.7417 70.5401 38.3572C67.0972 40.0359 64.8627 36.4378 67.5996 34.5053Z"/><path fill="#282E2C" d="M133.803 34.4029C134.144 34.31 134.322 34.4208 134.643 34.5569C133.883 35.0418 133.544 34.3586 132.385 35.0696L132.446 35.6269C133.45 36.3235 134.049 35.5426 134.845 36.175L134.783 36.5774L134.873 36.3861C133.437 37.2484 133.025 35.6825 132.109 37.8998C132.869 38.2504 133.943 38.0703 134.557 38.6385C133.721 38.8468 132.316 38.714 131.411 38.6686C131.451 37.5353 131.18 35.9906 131.631 35.0676C132.516 34.3477 132.483 34.558 133.803 34.4029Z"/><path fill="#292932" d="M108.036 34.5134L108.494 34.9213C109.458 36.6263 110.497 35.3715 111.281 36.4922L110.992 36.8025C110.268 36.7645 109.861 36.6753 109.164 36.528L108.814 36.9455C108.769 38.844 110.64 38.1158 111.055 38.7047C110.014 38.7678 108.883 38.7471 107.833 38.748C107.79 37.1315 107.718 36.1085 108.036 34.5134Z"/><path fill="#141414" d="M47.7084 34.3029L48.5053 34.5913C48.4721 35.0552 48.4524 35.3262 48.4918 35.7903C49.2744 35.974 49.8222 36.0474 50.6197 36.1417C50.1047 36.721 48.8705 36.6439 48.4492 37.1544L48.4014 37.213C48.2127 37.4442 48.3337 37.848 48.372 38.2125C48.9384 38.2089 50.3376 38.159 50.7338 38.5102C49.7214 38.8886 48.522 38.766 47.4357 38.7242C47.435 37.4028 47.3443 35.5282 47.7084 34.3029Z"/><path fill="#141414" d="M17.7048 34.8064C18.6789 35.3159 21.6744 37.6843 21.7573 38.6775L21.3236 38.66L21.4227 38.4931L21.1629 38.5491L21.1196 38.4346C20.4597 37.8931 19.9098 37.4736 19.2112 36.9831C18.3632 37.3362 18.839 38.2674 18.0435 38.7521C17.5247 38.0792 17.7006 35.7372 17.7048 34.8064Z"/><path fill="#141414" d="M60.4122 37.8761C60.8629 36.9896 61.7207 34.9661 62.6477 34.7747L62.7063 35.3435C61.9744 36.6098 61.2319 37.8699 60.4789 39.1238C59.3474 37.5084 58.6985 36.4532 58.0383 34.6117C59.3185 34.9384 59.8889 36.7431 60.4122 37.8761Z"/><path fill="#141414" d="M86.6688 34.4826C87.6876 34.6894 89.2924 34.6095 90.0746 34.9815L89.9094 35.1156C88.6674 36.1341 88.898 36.141 88.737 37.7821C88.8216 38.1364 88.7121 38.3014 88.5634 38.6269L88.2507 38.4123C87.9928 37.336 87.9952 36.8473 87.9802 35.7349C87.3411 34.8335 87.3496 35.7698 86.3995 35.1646L86.6688 34.4826Z"/><path fill="#141414" d="M10.6089 34.6813L10.7346 34.6538L11.0422 34.8553C9.52244 36.0552 10.094 37.8137 9.39656 38.6282L8.99278 38.4382C9.02568 37.8616 9.04069 37.2842 9.03779 36.7067C9.02683 35.9253 8.3384 35.4363 7.73795 34.8518C8.74344 34.7239 9.60324 34.7063 10.6089 34.6813Z"/><path fill="#141414" d="M151.392 34.5766C152.461 34.7809 153.325 34.652 154.557 34.9093C153.988 36.7354 153.591 35.8161 153.784 38.4405C153.666 38.5283 153.389 38.5424 153.227 38.5624C152.825 37.9939 153.058 36.6094 153.116 35.8905C152.341 34.8898 152.281 35.8724 151.416 35.2149L151.392 34.5766Z"/><path fill="#141414" d="M53.1287 34.386L54.1227 34.5683C54.5181 35.8437 54.1067 36.9821 53.5557 38.1302L53.5291 38.3245L53.2737 38.5121L52.9387 38.2405C52.6669 36.9918 52.6058 35.5765 53.1287 34.386Z"/><path fill="#141414" d="M56.0658 34.7299L56.5998 34.9996C56.9096 35.9264 57.0734 37.9889 56.7059 38.9273C55.474 37.0466 55.2989 36.8278 56.0658 34.7299Z"/><path fill="#282E2C" d="M23.5476 34.5586C23.8758 34.6236 24.0372 34.7419 24.3167 34.9118C24.6565 35.9874 24.4658 37.6642 24.401 38.8336C24.0069 38.8129 23.9101 38.7108 23.6173 38.468C23.2932 37.3841 23.4809 35.7288 23.5476 34.5586Z"/><path fill="#141414" d="M137.063 34.4172L137.565 34.8583C137.875 36.0984 137.767 37.6446 137.488 38.8847C137.372 38.8234 137.008 38.5096 136.884 38.4073C136.621 37.2821 136.636 35.4942 137.063 34.4172Z"/><path fill="#141414" d="M145.22 34.5652C146.958 35.4841 146.365 36.9162 145.762 38.3465C145.705 38.4816 145.605 38.5045 145.457 38.595C145.085 37.9943 145.215 35.4127 145.22 34.5652Z"/><path fill="#141414" d="M64.4722 34.3945L64.8545 34.8469C65.0227 35.9087 65.1313 37.9696 64.6531 38.9495C63.7539 37.8567 64.054 35.6394 64.4722 34.3945Z"/><path fill="#141414" d="M112.704 34.6735L113.479 35.0643C113.964 35.6891 113.984 36.7718 114.069 37.5866C112.963 37.1069 112.9 35.7433 112.704 34.6735Z"/><path fill="#686D74" d="M108.036 34.5134C109.474 34.2778 109.826 34.2328 111.269 34.5392L111.395 34.7093C110.481 35.2995 109.77 34.5282 108.494 34.9213L108.036 34.5134Z"/></svg>