<?xml version="1.0" encoding="utf-8" ?><svg xmlns="http://www.w3.org/2000/svg" xmlns:xlink="http://www.w3.org/1999/xlink" width="136" height="170" viewBox="0 0 136 170"><path fill="white" d="M0 0L136 0L136 170L0 170L0 0Z"/><path fill="#90CD9D" d="M62.4452 25.8122C63.0933 25.1003 65.0622 21.8232 65.7311 20.849C69.68 15.0985 73.8577 8.02987 79.9864 4.47774C79.2256 11.159 77.4348 14.8116 74.6696 20.8807C75.7999 22.6731 76.5743 24.4105 77.8145 26.0793C78.6297 27.1761 79.6987 28.07 80.5751 29.0567C79.1826 30.0984 78.6396 30.4126 77.1082 31.1932C76.1741 31.0965 75.2568 30.9154 74.378 31.2084C74.4443 32.5756 75.4895 31.7482 75.0309 33.4709C75.207 34.866 76.4153 34.6955 76.6231 35.9183C75.6734 36.9975 73.9146 36.4391 72.8476 35.7526C71.9741 37.3474 71.1532 38.4846 70.1075 39.9116C68.6925 41.8427 68.0905 44.3857 66.0615 45.7861C66.0453 45.7972 65.9983 46.3769 66.0103 46.4586C65.8279 46.6962 64.8702 47.9688 64.72 48.0983C63.651 47.4284 60.8777 47.3179 59.6536 47.6533C56.6529 48.4756 56.0041 50.0124 56.2837 52.7404L54.6967 53.1202L54.3929 52.6048L54.0474 52.7494C53.6638 53.8665 53.7149 56.3672 53.7162 57.6045C53.3228 55.3389 50.0244 51.2751 48.5683 49.1926L48.2663 49.4484C48.0123 50.3196 49.0206 50.9969 49.0224 52.1759L48.6963 52.2245C47.5104 51.2299 45.3649 47.9079 45.4961 46.2128C40.8008 46.12 16.7456 45.0507 15.3475 41.5691C16.6826 38.784 36.8722 37.737 41.0667 37.5051C41.1554 35.8861 41.3614 34.4191 41.5913 32.8232C41.7163 31.9555 39.9723 31.1309 39.2933 30.1056C36.3636 25.682 33.4475 21.4254 27.5548 21.253C27.1878 21.668 26.8242 22.086 26.4642 22.507L25.8925 22.5319C25.7564 22.0485 25.8144 21.6909 25.851 21.1924L25.3786 21.1773C24.3861 22.1316 24.9664 22.6639 24.1541 23.5357L23.2689 23.5743C22.8908 23.3926 22.2322 23.4168 21.7728 23.3271C19.2737 22.8394 18.4895 21.9795 17.0814 20.0667C17.9102 19.4351 19.8021 18.0857 20.3924 17.3602C19.7693 16.8407 18.3529 17.2525 17.0717 16.6709L16.9503 16.2426C17.7913 14.5639 18.7957 15.8234 19.839 15.1435C18.8013 13.7822 18.4455 13.532 17.0818 12.589C19.3038 11.2735 19.9671 10.198 22.6323 9.20794C24.3179 9.66811 31.7253 11.2463 33.8363 11.6808C34.1687 11.7493 36.8485 10.7797 37.213 10.6638C40.5497 9.60281 47.2561 13.4773 49.8481 13.3393C50.0164 12.9657 50.175 12.5877 50.3237 12.2058C51.7481 12.0034 52.0429 13.0494 53.3242 13.3729C54.0605 13.5587 55.7347 12.8858 56.3898 12.7516C56.5236 12.7242 57.1385 13.125 58.0175 12.9603C58.4895 12.0265 56.9149 10.5065 57.0816 8.86752C57.5865 8.29764 57.3339 8.42723 58.1026 8.36968C58.4675 9.01985 58.8508 9.65955 59.252 10.288C60.0597 11.5407 61.785 13.5556 63.2996 13.7958C63.3889 14.1445 63.5219 14.7404 63.6349 15.057C62.4373 15.3477 57.753 20.6651 57.9052 22.205C58.4364 23.6722 59.6419 24.5514 61.0313 25.2113C61.4958 25.4273 61.9674 25.6277 62.4452 25.8122Z"/><path fill="#154F93" d="M62.4452 25.8122C63.0933 25.1003 65.0622 21.8232 65.7311 20.849C69.68 15.0985 73.8577 8.02987 79.9864 4.47774C79.2256 11.159 77.4348 14.8116 74.6696 20.8807C71.766 26.4154 69.3662 31.6829 66.0766 37.0838C63.442 34.1263 62.4329 33.3502 58.4474 32.5178C59.2061 31.2493 61.9252 26.9302 62.4452 25.8122Z"/><path fill="#154F93" d="M41.0667 37.5051C44.0361 37.4689 47.0049 37.389 49.9719 37.2652C48.9004 41.3914 48.879 42.1759 49.9289 46.2727C48.877 46.2707 47.759 46.2482 46.7138 46.2725L45.4961 46.2128C40.8008 46.12 16.7456 45.0507 15.3475 41.5691C16.6826 38.784 36.8722 37.737 41.0667 37.5051Z"/><path fill="#A6CCB7" d="M45.4961 46.2128L46.7138 46.2725C49.0893 47.0557 47.3297 47.5639 48.5683 49.1926L48.2663 49.4484C48.0123 50.3196 49.0206 50.9969 49.0224 52.1759L48.6963 52.2245C47.5104 51.2299 45.3649 47.9079 45.4961 46.2128Z"/><path fill="#A6CCB7" d="M75.0309 33.4709C75.207 34.866 76.4153 34.6955 76.6231 35.9183C75.6734 36.9975 73.9146 36.4391 72.8476 35.7526C73.6092 34.1544 73.5611 34.1168 75.0309 33.4709Z"/><path fill="#154F93" d="M57.5178 37.3987C59.9053 37.0319 62.1512 38.6318 62.5845 41.0082C63.0179 43.3846 61.4813 45.6743 59.1179 46.1738C57.5293 46.5096 55.8837 45.9558 54.8213 44.7279C53.7589 43.5 53.4474 41.7919 54.0081 40.2681C54.5687 38.7442 55.9129 37.6453 57.5178 37.3987Z"/><path fill="#90CD9D" d="M66.0103 46.4586C68.031 50.066 72.8718 58.6538 74.4213 62.3659L75.1545 61.4214C76.2698 61.569 78.4157 63.8857 78.9881 64.0648C85.4228 66.0785 82.3785 68.567 83.0242 69.9794C84.4688 70.3124 84.0302 68.8604 86.6642 70.0311C88.9032 71.0262 90.4022 71.579 92.4701 73.0267C91.9965 74.2615 91.1781 75.9099 90.7963 77.0293C88.9892 82.3281 89.7725 83.2436 84.9518 86.1929C84.405 88.2133 82.5336 92.4754 81.0051 93.8499L80.4746 93.9504L79.5974 93.3361L79.2576 93.5712C79.068 94.8856 79.9257 95.8025 78.7539 96.5967C76.7652 97.9278 75.9903 98.793 74.8641 100.742C73.5192 103.069 75.1785 104.418 73.6503 106.063C71.5867 108.284 74.2328 109.911 74.1018 111.645C73.0861 111.872 71.2785 110.619 70.4059 110.076C70.0748 109.298 69.1904 106.839 69.3521 106.097C70.1175 102.585 70.2072 99.0016 70.5391 95.506C70.9736 90.928 72.1881 86.3988 71.9829 81.7629C66.6858 77.93 68.4682 76.986 65.7723 72.6383C66.0067 70.3669 66.0673 68.0328 67.8861 66.3884C67.4756 65.605 66.2467 63.9939 65.6813 63.211C62.9917 62.5873 60.702 58.0801 57.8031 58.3085C57.3808 57.8177 55.1786 53.9336 54.6967 53.1202L56.2837 52.7404C56.0041 50.0124 56.6529 48.4756 59.6536 47.6533C60.8777 47.3179 63.651 47.4284 64.72 48.0983C64.8702 47.9688 65.8279 46.6962 66.0103 46.4586Z"/><path fill="#154F93" d="M66.0103 46.4586C68.031 50.066 72.8718 58.6538 74.4213 62.3659C75.4949 64.7309 81.1342 77.315 78.9906 78.6252C75.8945 78.204 69.8914 68.802 67.8861 66.3884C67.4756 65.605 66.2467 63.9939 65.6813 63.211C62.9917 62.5873 60.702 58.0801 57.8031 58.3085C57.3808 57.8177 55.1786 53.9336 54.6967 53.1202L56.2837 52.7404C56.0041 50.0124 56.6529 48.4756 59.6536 47.6533C60.8777 47.3179 63.651 47.4284 64.72 48.0983C64.8702 47.9688 65.8279 46.6962 66.0103 46.4586Z"/><path fill="white" d="M56.2837 52.7404C56.0041 50.0124 56.6529 48.4756 59.6536 47.6533C60.8777 47.3179 63.651 47.4284 64.72 48.0983C62.4763 50.1673 61.2457 50.5383 58.286 51.2765C59.3765 52.7241 59.8249 53.5757 60.6757 55.1722C58.1784 57.9418 56.9163 54.7465 56.2837 52.7404Z"/><path fill="#A6CCB7" d="M54.6967 53.1202L56.2837 52.7404C56.9163 54.7465 58.1784 57.9418 60.6757 55.1722C62.2036 57.3661 64.4844 60.8828 65.6813 63.211C62.9917 62.5873 60.702 58.0801 57.8031 58.3085C57.3808 57.8177 55.1786 53.9336 54.6967 53.1202Z"/><path fill="#154F93" d="M53.7162 57.6045C53.7149 56.3672 53.6638 53.8665 54.0474 52.7494L54.3929 52.6048L54.6967 53.1202C55.1786 53.9336 57.3808 57.8177 57.8031 58.3085C59.2431 60.6449 60.9916 63.1348 62.534 65.4295C62.8338 69.9882 62.652 76.6673 62.6538 81.3483L62.667 110.907C59.716 111.024 56.691 110.983 53.7328 110.978C53.9475 93.4633 53.8622 75.1282 53.7162 57.6045Z"/><path fill="#154F93" d="M16.542 141.973L21.8811 142.039C22.4278 146.16 24.5387 152.87 25.4058 157.536L28.8393 141.998L33.1661 142.013C31.6824 149.082 29.7245 156.658 28.0324 163.724L23.3416 163.732C22.1806 158.635 20.3319 152.425 18.9446 147.32C18.0517 152.383 15.894 158.266 14.8314 163.556C13.2369 163.715 11.5043 163.699 9.89378 163.72C8.93203 157.856 6.24532 148.316 4.8287 142.035L9.38833 141.984C9.76795 145.028 10.9402 149.754 11.6294 152.88C12.4498 152.833 12.8767 152.777 13.6779 152.63C14.5146 150.264 15.8418 144.583 16.542 141.973Z"/><path fill="#E6FAFE" d="M11.6294 152.88C12.4498 152.833 12.8767 152.777 13.6779 152.63C13.4178 153.892 12.7992 155.539 12.3703 156.79C12.0853 155.697 11.8369 154.03 11.6294 152.88Z"/><path fill="#154F93" d="M69.0195 142.047L73.2965 142.021L73.2974 163.672C72.493 163.702 70.2627 163.902 69.6884 163.565C69.599 163.054 69.5057 162.544 69.4085 162.035C67.1112 162.333 67.4003 164.587 62.5485 163.724C53.7902 160.497 58.1791 141.64 69.029 149.55C69.058 147.049 69.0549 144.548 69.0195 142.047Z"/><path fill="white" d="M64.8372 150.999C70.2426 150.834 70.7688 158.163 66.3402 160.668C62.372 160.707 61.4741 157.14 62.349 153.811C62.7701 152.209 63.4359 151.773 64.8372 150.999Z"/><path fill="#154F93" d="M13.3751 89.463C15.0443 89.7637 16.0663 89.6701 17.7327 89.5446C19.2843 95.5135 24.4598 104.767 26.2449 111.298C24.7869 111.369 23.1979 111.376 21.7281 111.41C21.1176 109.978 20.6922 107.989 19.831 106.679C19.5507 106.253 19.1113 106.356 18.5624 106.332C16.1813 106.252 13.5805 106.284 11.1811 106.265C10.5677 107.987 9.92749 109.7 9.26084 111.402C7.75995 111.38 6.25929 111.344 4.75904 111.295C6.6913 105.451 10.95 95.2621 13.3751 89.463Z"/><path fill="white" d="M15.3132 95.4161C15.9979 96.0512 17.8186 101.261 18.1173 102.368C17.7068 102.795 17.0739 102.653 16.3124 102.679L12.5529 102.679C13.3937 100.229 14.3144 97.8065 15.3132 95.4161Z"/><path fill="#154F93" d="M13.1932 116.002C14.6931 116.001 16.193 116.009 17.6929 116.025C19.6414 122.408 24.5324 131.255 26.2851 137.732L21.6989 137.693C21.1002 136.335 20.7285 134.327 19.8289 133.064C19.5215 132.632 19.1373 132.732 18.5625 132.697C16.0761 132.721 13.5895 132.695 11.1041 132.62L9.3377 137.629L4.7296 137.715C7.13901 130.606 10.6213 123.204 13.1932 116.002Z"/><path fill="white" d="M15.323 121.678C15.89 122.126 17.8768 127.75 18.0987 128.762C17.6199 129.091 16.3918 129.01 15.74 129.016L12.4788 128.965C13.4882 126.595 14.404 124.092 15.323 121.678Z"/><path fill="#154F93" d="M35.6344 121.541C37.9348 121.692 38.8815 122.479 40.4139 124.062C42.535 122.1 46.4346 120.248 48.8085 122.911C51.2695 125.672 50.3685 133.719 50.2884 137.628L46.2021 137.751L46.2917 130.383C46.3051 127.743 45.7825 123.086 42.0304 125.786C40.3345 127.006 40.8425 133.815 40.8855 135.804C40.8923 136.493 40.96 136.921 40.5508 137.482C39.7163 137.956 37.8756 137.707 36.7733 137.688C36.7154 134.864 38.2761 121.726 32.6464 125.697C30.7973 127.001 31.4046 135.185 31.3012 137.623C29.9945 137.691 28.5634 137.706 27.2462 137.743C27.1572 132.612 27.2344 127.182 27.2071 122.022C28.1565 121.985 29.9636 121.817 30.7816 122.114C30.9374 122.706 31.0243 123.003 31.2656 123.564C31.9736 123.633 33.0944 122.363 33.7822 122.074C34.3045 121.854 35.076 121.673 35.6344 121.541Z"/><path fill="#154F93" d="M108.324 121.608C111.574 121.708 112.671 121.643 115.161 123.818C116.001 127.96 115.147 132.499 116.15 137.742C114.223 137.77 112.769 138.167 111.759 136.298C109.422 136.104 107.041 140.913 102.415 135.906C98.4924 128.335 110.084 129.423 111.444 126.871C111.385 126.143 111.301 126.042 110.822 125.475C108.591 124.256 107.136 125.126 105.707 126.912C104.145 126.774 103.525 126.934 102.593 125.852C102.266 123.07 106.148 121.893 108.324 121.608Z"/><path fill="white" d="M109.912 131.334C110.865 131.216 110.77 131.077 111.525 131.501L111.65 132.079C111.327 134.07 109.559 134.48 107.908 134.803C106.809 134.429 105.759 133.939 106.043 132.681C107.225 131.542 108.335 131.536 109.912 131.334Z"/><path fill="#154F93" d="M57.8136 121.782C58.0404 121.76 58.2675 121.741 58.4947 121.724C65.0784 121.248 66.711 125.289 67.086 131.001C63.6003 130.992 59.6489 130.905 56.219 131.127C57.7822 134.688 59.3411 135.997 62.616 132.877C63.16 132.359 63.6533 132.531 64.3136 132.587C65.1264 132.736 65.6001 132.828 66.395 133.083C67.4138 136.221 60.1005 139.423 56.5986 137.447C50.1694 133.819 50.7406 124.484 57.8136 121.782Z"/><path fill="white" d="M58.7344 125.011C60.4666 124.895 63.2704 125.815 62.5133 127.941C61.6164 128.48 61.4058 128.281 60.1875 128.281C59.5802 128.302 58.9726 128.314 58.3649 128.315C57.4365 128.308 57.3279 128.19 56.7686 127.623L56.8382 126.957C57.4694 125.969 57.8092 125.74 58.7344 125.011Z"/><path fill="#154F93" d="M49.0499 147.77C49.5111 147.692 49.9784 147.656 50.446 147.662C57.8422 147.718 55.8886 158.297 55.8138 163.653C54.4896 163.713 53.058 163.725 51.7251 163.758C51.6402 162.053 51.7787 160.352 51.7055 158.664C51.5548 155.188 52.6268 149.635 47.1717 151.491C47.1297 151.532 47.0877 151.573 47.0457 151.615L46.907 151.759C45.01 153.717 45.6731 160.682 45.7189 163.674L41.4963 163.734C41.4699 158.483 41.479 153.231 41.5235 147.98C42.9126 147.952 45.2077 147.594 45.4827 149.321C46.353 149.238 48.0962 148.21 49.0499 147.77Z"/><path fill="#154F93" d="M125.801 121.776C132.879 121.131 133.029 125.317 132.874 131.093C132.816 133.237 132.824 135.534 132.795 137.693L128.63 137.713C128.476 134.268 129.045 130.601 128.424 127.227C128.002 124.93 126.415 124.823 124.552 125.34C122.511 126.8 122.568 128.574 122.597 130.943C122.626 133.212 122.698 135.405 122.618 137.68L118.518 137.721C118.478 132.478 118.469 127.236 118.494 121.993C120.384 121.955 121.462 121.519 122.534 123.252C123.255 123.331 125.039 122.181 125.801 121.776Z"/><path fill="#154F93" d="M91.5608 121.813C96.3955 121.129 98.555 122.298 100.651 126.533C96.1006 127.279 97.7857 128.049 94.4772 125.014C93.8152 124.725 92.8593 125.036 92.334 125.279C86.0088 128.213 94.0661 140.854 96.725 131.583C98.3962 131.999 99.1153 132.193 100.855 132.272C100.684 132.816 100.483 133.35 100.253 133.872C98.5733 137.669 93.7208 139.293 90.3388 137.38C83.7882 133.674 84.2466 124.404 91.5608 121.813Z"/><path fill="#154F93" d="M75.8518 121.481C76.7706 121.631 78.2823 121.728 78.7771 122.5C78.9694 128.506 76.6358 125.45 74.5117 126.38C72.644 128.359 73.2029 134.709 73.2327 137.657L70.188 137.694C69.421 137.69 69.6408 137.793 69.0907 137.393C68.732 134.222 68.9768 125.576 68.9751 122.024C70.691 121.956 71.5237 121.752 73.0301 122.609L73.1219 123.083L72.9908 123.276C73.7339 122.971 74.8395 122.037 75.8518 121.481Z"/><path fill="#154F93" d="M34.9822 89.5963C36.3198 89.6368 37.6418 89.6017 38.9789 89.5758C38.9996 95.1162 39.3615 106.216 38.8823 111.438C37.6408 111.431 36.1513 111.32 34.8911 111.259C34.7766 105.503 34.5979 95.0719 34.9822 89.5963Z"/><path fill="#154F93" d="M27.5019 89.7385C28.8492 89.6529 30.3263 89.6849 31.6857 89.6867C31.7231 96.9033 31.7131 104.12 31.6559 111.337L27.522 111.332L27.5019 89.7385Z"/><path fill="#154F93" d="M79.9152 121.971L83.9877 121.992C84.03 127.225 84.0211 132.458 83.9609 137.69L79.9506 137.719C79.7126 134.781 79.6496 124.839 79.9152 121.971Z"/><path fill="#154F93" d="M34.2188 148.005C35.5497 147.975 36.978 148.013 38.317 148.024C38.3428 153.224 38.3318 158.425 38.284 163.626C37.0241 163.704 35.442 163.67 34.1562 163.678C34.2944 158.577 34.2099 153.132 34.2188 148.005Z"/><path fill="#154F93" d="M34.2776 141.899L38.4402 142.044C38.4826 143.152 38.3342 144.584 38.2488 145.715C37.0016 145.771 35.4246 145.712 34.152 145.7C34.1096 144.187 34.147 143.39 34.2776 141.899Z"/><path fill="#154F93" d="M79.8951 116.023C81.1975 115.925 82.683 115.967 84.0024 115.974L83.9806 119.704L80.0557 119.748C79.8161 118.202 79.7002 117.617 79.8951 116.023Z"/><path fill="#8EA892" d="M63.2996 13.7958C63.347 12.5486 63.1563 12.2118 63.8602 11.3601L64.4272 11.2363C65.5099 12.3213 65.1178 13.2508 64.4799 14.4527L63.6349 15.057C63.5219 14.7404 63.3889 14.1445 63.2996 13.7958Z"/><path fill="#A2A7A8" d="M23.2689 23.5743L24.1541 23.5357C22.2332 25.7904 20.2418 26.7021 17.5788 27.8635C19.4889 26.4343 21.5836 25.2598 23.2689 23.5743Z"/></svg>