<?xml version="1.0" encoding="utf-8" ?><svg xmlns="http://www.w3.org/2000/svg" xmlns:xlink="http://www.w3.org/1999/xlink" width="1200" height="400" viewBox="0 0 1200 400"><path fill="white" d="M0 0L68.5993 0L69.2614 0L1200 0L1200 122.713L1200 131.338L1200 400L281.271 400L279.833 400L0 400L0 0Z"/><path fill="white" d="M0 0L68.5993 0C77.7856 13.0801 88.0728 26.1546 97.7912 38.9259C116.46 63.4589 134.418 88.5034 152.897 113.158C161.01 123.984 171.989 131.06 180.001 141.282C165.45 145.328 160.456 149.047 147.733 156.643C151.534 160.78 155.299 164.95 159.026 169.154L169.401 165.202C167.772 183.417 166.866 203.046 165.714 221.388L160.198 310.323C163.075 314.729 176.65 328.244 180.912 331.795C198.009 350.483 232.706 375.388 254.529 387.258C259.912 390.152 265.411 392.825 271.013 395.27C272.755 396.047 280.074 399.131 281.271 400L279.833 400L0 400L0 0Z"/><path fill="#018ABE" d="M279.833 400C277.593 399.172 275.062 398.49 272.75 397.764C184.481 370.028 116.48 294.705 69.335 217.997C44.7523 176.691 19.351 127.939 20.7452 78.7142C21.7006 44.9795 38.8955 16.9218 75.9389 18.6933L94.6483 43.7062C66.2666 45.392 57.6956 71.2792 57.4769 95.4348C56.8236 167.589 112.338 258.734 160.198 310.323C163.075 314.729 176.65 328.244 180.912 331.795C198.009 350.483 232.706 375.388 254.529 387.258C259.912 390.152 265.411 392.825 271.013 395.27C272.755 396.047 280.074 399.131 281.271 400L279.833 400Z"/><path fill="#018ABE" d="M102.382 55.0032C104.297 55.7997 112.917 68.8356 114.735 71.4927C114.284 71.7282 113.839 71.9728 113.399 72.2263C106.813 76.0287 102.495 82.1751 100.834 89.6048C89.2102 141.622 117.554 190.513 143.477 233.393C145.885 237.376 148.881 241.023 151.288 245.102L150.791 245.212L148.352 242.643C123.179 215.78 104.29 183.723 89.9806 149.905C78.6193 123.054 66.5061 68.994 102.382 55.0032Z"/><path fill="#355776" d="M68.5993 0L69.2614 0L69.388 0.112291C72.1975 2.56795 76.0673 3.82807 78.245 5.9145C83.1832 10.6456 87.7643 17.5525 92.5236 22.2858C94.1892 24.5639 110.201 43.8085 112.045 45.4341C114.509 48.4355 117.471 52.2506 120.186 54.9216C124.158 60.397 130.532 66.5456 133.642 70.9425C152.303 94.2227 171.29 114.98 189.173 139.295L195.315 139.025L197.506 144.852C219.042 148.647 240.635 153.827 262.049 157.69C243.236 159.823 217.932 155.414 198.197 154.428C196.778 153.142 195.333 151.483 193.498 151.273L192.692 151.863C192.075 156.508 196.522 191.792 197.355 198.291C201.504 230.676 204.548 263.77 208.798 296.08C206.524 291.367 203.299 286.114 202.056 281.063C199.146 269.24 186.105 162.435 183.47 159.821L182.318 159.548C181.015 160.686 181.072 160.936 181.052 162.787C180.436 219.075 181.519 275.518 180.912 331.795C176.65 328.244 163.075 314.729 160.198 310.323L165.714 221.388C166.866 203.046 167.772 183.417 169.401 165.202L159.026 169.154C155.299 164.95 151.534 160.78 147.733 156.643C160.456 149.047 165.45 145.328 180.001 141.282C171.989 131.06 161.01 123.984 152.897 113.158C134.418 88.5034 116.46 63.4589 97.7912 38.9259C88.0728 26.1546 77.7856 13.0801 68.5993 0Z"/><path fill="#018ABE" d="M92.5236 22.2858C127.344 33.197 168.322 65.6592 190.974 93.7996C166.32 72.9634 143.89 54.3966 112.045 45.4341C110.201 43.8085 94.1892 24.5639 92.5236 22.2858Z"/><path fill="#018ABE" d="M120.186 54.9216C142.586 60.9706 171.68 81.1706 187.501 97.6377L187.607 98.3053L188.267 98.7601C185.658 97.5541 178.639 92.3793 175.69 90.3599C166.844 84.3006 144.381 71.6236 133.642 70.9425C130.532 66.5456 124.158 60.397 120.186 54.9216Z"/><path fill="#355776" d="M1187.78 114.023C1190.14 118.178 1191.47 122.606 1193 127.122C1194.24 124.521 1195.82 117.73 1198.37 117.419C1199.81 118.73 1199.77 120.728 1200 122.713L1200 131.338C1197.24 129.163 1198.12 125.128 1197.31 120.641C1196.35 123.501 1195.06 128.674 1192.8 130.213L1191.68 129.087C1191.19 126.849 1189.46 122.027 1188.68 119.661C1188.53 122.569 1188.53 126.799 1187.46 129.418L1186.95 128.818C1186.31 122.61 1186.78 120.158 1187.78 114.023Z"/><path fill="#355776" d="M737.645 77.837L751.081 77.8512L751.025 174.679C751.018 192.736 750.273 216.45 752.119 233.997C729.584 243.192 702.711 245.336 682.321 230.048C675.57 224.412 670.277 217.233 666.89 209.119C660.484 193.58 660.438 172.215 666.948 156.663C679.284 127.193 709.964 120.471 737.617 132.242L737.645 77.837Z"/><path fill="white" d="M707.319 138.922C719.58 137.745 727.228 138.888 737.64 145.361L737.708 225.779C727.492 229.338 720.246 230.267 709.543 228.878C676.399 222.848 669.734 179.728 684.448 154.443C689.584 145.618 697.583 141.091 707.319 138.922Z"/><path fill="#355776" d="M951.967 126.76C1002.92 125.741 1018.77 187.289 992.264 223.164C983.465 235.07 970.985 239.597 956.646 241.235C925.036 242.229 904.522 220.952 902.294 190.127C899.881 156.739 916.49 128.819 951.967 126.76Z"/><path fill="white" d="M946.866 138.943C968.26 136.561 983.227 147.151 988.04 168.182C993.44 191.773 987.787 222.266 960.851 228.827C917.964 235.786 907.775 183.29 924.604 154.083C929.433 145.703 937.585 140.981 946.866 138.943Z"/><path fill="#355776" d="M378.59 88.7652L396.449 88.7602L434.264 221.265C436.727 207.667 442.47 191.166 446.284 177.49C454.499 148.029 464.239 118.271 472.144 88.7739L486.384 88.8098C484.585 95.1324 482.699 101.43 480.727 107.701C479.452 113.252 476.085 123.308 474.369 129.04L461.402 172.324L448.46 215.509C446.141 223.237 443.451 233.213 440.674 240.488C434.537 242.765 425.012 235.301 422.786 229.471C417.581 215.836 414.065 201.493 410.023 187.425L386.702 106.24C385.414 114.635 376.891 141.273 374.088 150.745L347.38 241.153C339.724 240.194 332.826 236.988 329.83 229.241C324.141 214.533 319.908 198.85 315.303 183.704L286.524 88.8277L302.442 88.7651C306.288 103.701 311.799 121.023 316.163 136.008L341.101 221.377C342.903 208.563 350.307 185.918 354.133 172.86L378.59 88.7652Z"/><path fill="#355776" d="M1101.93 136.753C1125.42 125.766 1166.84 116.072 1174.96 152.387C1176.95 161.267 1175.97 175.465 1175.97 184.96L1176 238.778L1162.63 238.801C1162.94 214.803 1162.53 190.615 1162.72 166.628C1163 131.377 1131.34 135.329 1107.78 145.827C1112.48 158.621 1110.89 188.089 1110.84 202.928L1110.88 238.811L1097.45 238.804C1097.47 223.157 1099.36 164.563 1095.26 153.114C1093.34 147.77 1089.81 143.241 1084.6 140.794C1072.32 135.017 1056.58 140.751 1044.67 145.04C1045.43 156.463 1045.13 169.659 1045.13 181.279L1045.21 238.796L1031.53 238.801C1031.81 215.853 1031.4 192.841 1031.6 169.891C1031.7 158.792 1031.58 148.973 1030.39 137.927C1043.04 132.464 1059.16 127.632 1072.97 126.752C1085.26 126.962 1092.59 128.64 1101.93 136.753Z"/><path fill="#355776" d="M846.458 86.9128C863.489 85.4828 877.646 89.0598 892.979 96.0749L887.878 107.526C861.038 95.5208 826.947 94.595 807.667 120.954C788.037 147.791 791.964 197.915 819.524 218.119C834.293 228.946 852.018 229.712 869.435 227.042C875.332 226.035 881.424 223.988 887.076 222.083L891.01 233.257C881.678 237.796 871.858 239.783 861.71 240.867C816.489 245.331 784.626 216.805 780.774 172.563C776.901 128.077 798.68 91.1426 846.458 86.9128Z"/><path fill="#355776" d="M597.953 126.754C608.388 126.137 620.925 129.101 628.476 136.66C641.035 149.233 638.214 171.697 638.179 188.4L638.204 238.789L624.599 238.794L624.671 172.326C624.622 149.682 620.157 138.435 595.458 138.547C584.851 138.934 576.674 141.516 566.998 145.401C567.724 155.739 567.371 169.512 567.375 180.038L567.375 238.788L553.733 238.785C554.088 211.394 553.61 183.888 553.797 156.487C553.84 150.28 553.458 144.5 552.335 138.387C568.397 131.494 580.609 127.761 597.953 126.754Z"/><path fill="#018ABE" d="M1006.83 294.799C1015.02 293.974 1024.53 294.412 1029.11 302.469C1030.88 305.531 1031.35 309.17 1030.42 312.581C1029.11 317.296 1026.66 319.492 1022.63 321.785C1033.09 327.011 1036.23 335.591 1029.72 345.746C1021.74 353.426 1009.66 351.947 999.586 350.543L999.565 295.87C1001.64 295.428 1004.67 295.094 1006.83 294.799Z"/><path fill="white" d="M1005.08 324.834C1011.77 324.786 1018.93 324.299 1024.5 328.728C1029.86 332.985 1027.58 339.358 1023.89 343.734C1016.94 347.439 1012.79 346.915 1005.13 346.435L1005.08 324.834Z"/><path fill="white" d="M1007.05 299.445C1008.83 299.373 1010.76 299.241 1012.54 299.328C1023.92 299.883 1030.63 309.594 1020.52 318.217C1015.22 320.4 1010.89 319.981 1005.16 320.042C1005.1 316.393 1004.63 303.249 1005.5 300.235L1007.05 299.445Z"/><path fill="#355776" d="M503.379 129.156L516.874 129.208L516.879 238.801L503.384 238.81L503.379 129.156Z"/><path fill="#018ABE" d="M1129.51 291.259C1131.58 291.35 1132.7 291.045 1134.22 292.103C1134.81 297.008 1134.34 302.225 1134.48 307.137C1134.87 320.209 1133.61 336.52 1134.87 349.172C1124.87 352.107 1117.96 353.418 1108.93 347.446C1107.02 345.591 1105.87 344.34 1104.57 341.996C1101.41 336.17 1100.68 329.335 1102.54 322.975C1106.4 309.802 1117.67 307.53 1129.5 311.165L1129.51 291.259Z"/><path fill="white" d="M1117.44 313.989C1122.85 313.517 1124.39 313.967 1129.46 315.998C1129.69 325.761 1129.52 336.201 1129.54 346.019C1125.71 346.883 1124.26 347.122 1120.35 347.286C1103.76 343.256 1102.41 320.536 1117.44 313.989Z"/><path fill="#018ABE" d="M742.205 309.382C767.627 308.258 772.063 344.497 747.837 351.518C719.685 352.621 717.913 314.729 742.205 309.382Z"/><path fill="white" d="M741.308 313.975C760.644 311.703 764.311 340.064 747.482 347.081C729.207 349.487 724.507 321.679 741.308 313.975Z"/><path fill="#018ABE" d="M372.576 309.389C397.008 307.747 402.674 344.385 377.979 351.503C349.599 352.822 348.224 314.098 372.576 309.389Z"/><path fill="white" d="M371.527 313.997C390.649 311.702 394.496 339.583 377.771 347.077C358.788 349.539 355.053 320.823 371.527 313.997Z"/><path fill="#018ABE" d="M877.172 309.362C901.141 307.743 906.982 344.335 882.486 351.498C854.614 353.437 851.998 313.999 877.172 309.362Z"/><path fill="white" d="M876.032 313.993C894.845 311.467 899.094 340.347 881.801 347.148C861.963 348.282 860.174 320.248 876.032 313.993Z"/><path fill="#018ABE" d="M1077.16 309.403C1099.26 308.412 1090.32 333.763 1092.77 348.817C1082.84 351.844 1069.45 354.819 1062.67 344.648C1058.73 324.696 1081.39 330.908 1087.32 321.854C1087.43 321.116 1087.69 320.272 1087.42 319.671C1082.17 307.627 1072.03 317.782 1067.08 315.123C1066.62 313.483 1066.72 314.024 1067.32 312.225C1069.23 310.127 1074.24 309.832 1077.16 309.403Z"/><path fill="white" d="M1086.05 329.204L1086.48 329.192C1087.33 330.654 1087.11 343.332 1087.13 345.91C1080.65 347.468 1077.34 347.844 1070.99 345.98C1068.84 344.347 1066.16 340.354 1067.7 337.766C1070.98 332.271 1080.4 331.231 1086.05 329.204Z"/><path fill="#018ABE" d="M1159.27 309.373C1159.94 309.33 1160.62 309.313 1161.29 309.322C1175.26 309.524 1178.56 320.098 1178.34 332.056L1150.21 332.07C1151.58 342.64 1155.67 346.692 1166.3 347.341C1168.98 346.67 1173.28 344.893 1174.76 347.98C1172.04 353.139 1159.17 352.185 1154.69 349.337C1140.3 340.178 1140.89 314.175 1159.27 309.373Z"/><path fill="white" d="M1159.02 313.929C1169.65 313.06 1171.63 318.845 1173.16 327.71L1165.58 327.708L1150.42 327.781C1150.91 320.692 1152.34 317.16 1159.02 313.929Z"/><path fill="#018ABE" d="M679.418 309.334C679.602 309.324 679.786 309.317 679.969 309.315C694.905 309.104 697.878 319.42 698.028 332.068L669.861 332.074C671.282 342.552 675.488 347.222 686.416 347.2C689.261 346.5 691.596 345.391 694.12 347.204L694.207 348.175C689.968 353.376 678.533 352.18 673.383 348.813C663.342 342.25 661.986 326.582 667.967 316.899C670.922 312.114 674.154 310.506 679.418 309.334Z"/><path fill="white" d="M678.545 313.932C689.217 312.747 691.204 319.051 692.933 327.701L685.655 327.712C681.74 327.698 672.182 328.866 669.896 326.116C668.993 321.617 674.661 315.824 678.545 313.932Z"/><path fill="#018ABE" d="M534.155 309.337C534.437 309.319 534.721 309.31 535.004 309.31C549.642 309.3 552.814 319.607 552.671 332.1C548.689 332.063 526.986 331.187 525.107 332.982C523.243 336.874 526.247 340.014 528.999 342.727C532.959 346.63 536.142 347.395 541.548 347.125C544.954 346.285 546.114 345.533 548.975 347.232L548.945 348.322C544.152 353.156 534.15 352.482 528.65 349.07C522.09 345.09 518.948 337.22 519.224 329.698C519.608 319.203 523.614 311.698 534.155 309.337Z"/><path fill="white" d="M533.234 313.956C544.138 313.022 545.801 318.767 547.777 327.685L539.355 327.72L524.404 327.66C525.853 320.636 526.459 317.372 533.234 313.956Z"/><path fill="#018ABE" d="M479.038 291.195C480.843 291.255 481.939 291.177 483.571 292.009C484.082 294.09 483.803 309.221 483.796 312.111C494.486 308.183 508.783 306.365 509.707 322.05C509.981 326.684 511.073 347.828 508.987 350.517C506.744 350.624 506.991 350.955 505.332 349.987C504.688 348.689 505 324.796 504.624 320.481C502.288 310.31 490.118 313.874 483.763 317.267C483.786 322.353 484.778 347.68 482.398 350.652C480.985 350.811 480.493 350.983 479.288 350.229C478.467 347.303 478.301 295.39 479.038 291.195Z"/><path fill="#018ABE" d="M322.556 295.274C328.225 295.352 345.552 294.786 349.941 295.76C350.668 297.139 350.465 297.736 350.232 299.279C347.336 301.141 332.442 300.4 328.127 300.352L328.143 319.471C332.587 319.552 344.978 317.735 346.912 321.895C346.334 324.811 345.292 324.209 342.797 324.307L328.107 324.328C328.177 331.172 328.482 343.796 327.893 350.241L326.87 350.862C324.562 350.855 325.287 351.139 323.479 349.998C321.301 346.28 322.692 339.265 322.667 334.788L322.556 295.274Z"/><path fill="#018ABE" d="M815.79 295.316C816.735 295.278 820.359 295.117 820.77 295.413C825.557 298.859 836.434 317.668 839.272 322.141L839.356 321.98C843.737 313.707 850.32 304.656 855.571 296.795C856.82 294.925 859.514 294.506 861.446 295.734C861.318 298.211 853.335 309.497 851.367 312.494L841.999 326.922C841.898 331.045 842.974 348.511 840.983 350.538C839.257 350.545 838.116 350.839 836.783 350.05C836.082 346.994 836.383 331.12 836.37 327.214C829.538 316.736 822.307 305.948 815.79 295.316Z"/><path fill="#018ABE" d="M933.978 344.992C933.944 339.301 933.39 315.489 934.287 311.034C935.558 310.14 937.619 309.994 938.856 310.982L938.898 314.348C938.826 324.939 938.609 337.09 939.405 347.533C901.928 361.988 907.465 336.597 907.677 310.238C909.626 310.216 910.265 310.183 912.142 310.643C914.888 315.545 911.026 334.235 913.147 340.729C916.226 350.158 927.014 346.974 933.978 344.992Z"/><path fill="#018ABE" d="M649.112 290.614C652.683 290.294 659.108 290.691 661.913 292.978L662.005 294.198C658.027 299.657 653.503 292.617 649.228 295.768C646.88 299.837 647.443 305.614 647.514 310.324C650.457 310.243 657.561 309.384 658.52 312.761C655.878 315.446 651.094 314.709 647.507 314.627L647.522 334.7C647.417 339.358 648.598 346.082 646.672 349.81C644.984 351.037 645.69 350.731 643.419 350.786C641.247 347.681 643.849 319.95 642.154 314.83C640.885 314.431 640.024 314.426 638.708 314.341L637.931 313.432C637.784 311.582 637.55 311.981 638.326 310.541C639.505 310.388 640.686 310.259 641.87 310.154C645.959 305.292 637.286 296.155 649.112 290.614Z"/><path fill="#018ABE" d="M782.163 290.618C785.336 290.338 793.809 290.513 795.129 293.793C789.408 303.56 780.144 281.138 780.598 310.309C784.7 310.211 788.163 309.551 791.433 311.909L791.539 312.895C788.866 315.401 784.266 314.71 780.579 314.609L780.598 334.7C780.496 339.212 781.583 345.888 779.912 349.614C778.283 351.039 779.019 350.686 776.712 350.846C773.98 347.54 777.307 318.406 775.03 314.713C773.934 314.571 772.837 314.447 771.737 314.342C770.733 312.687 771.027 313.179 771.122 310.982C772.554 309.916 774.718 310.725 774.949 310.153C778.155 302.205 771.242 295.707 782.163 290.618Z"/><path fill="#018ABE" d="M584.196 295.252C585.934 295.227 588.001 294.948 589.336 295.95C589.924 299.29 589.666 309.072 589.662 312.972L589.623 345.943C594.751 345.918 607.345 345.457 611.774 346.102C612.766 347.263 612.496 349.153 612.468 350.75L584.185 350.771L584.196 295.252Z"/><path fill="#018ABE" d="M452.406 299.183C454.828 299.263 455.395 298.859 457.078 300.176C458.154 302.623 457.569 307.288 457.531 310.341C460.655 310.254 468.391 309.345 469.606 312.735C466.881 315.505 461.228 314.702 457.53 314.6C457.602 321.396 457.424 328.16 457.184 334.997C457.019 339.725 456.955 347.201 463.66 347.177C465.078 347.172 468.091 346.283 469.549 345.904C470.61 345.887 471.099 347.055 471.45 347.801C471.127 350.645 468.145 351.027 465.736 351.519C447.138 355.319 452.69 328.058 452.415 315.613C451.1 313.851 451.133 315.119 448.371 313.968C446.498 309.963 449.955 310.948 451.093 309.87C453.121 307.949 452.48 301.922 452.406 299.183Z"/><path fill="#018ABE" d="M1043.54 291.305C1044.96 291.217 1045.98 291.049 1047.32 291.524C1049.79 295.077 1047.21 336.906 1048.8 345.541C1050.31 347.438 1051.05 347.081 1053.9 347.571C1055.12 349.108 1054.77 348.914 1055.07 351.129C1053.19 351.382 1051.26 351.65 1049.36 351.548C1047.31 351.438 1045.95 350.812 1044.59 349.275C1042.49 346.892 1043.09 297.627 1043.54 291.305Z"/><path fill="#355776" d="M505.221 83.3326C518.505 81.582 525.643 92.4322 513.999 99.9448C500.382 102.878 494.939 90.0527 505.221 83.3326Z"/><path fill="#018ABE" d="M416.874 309.38C418.905 309.367 421.24 309.074 422.827 310.216L422.659 311.75C420.168 315.189 414.763 313.917 408.871 315.556C409.263 326.161 408.979 338.449 408.986 349.18L408.702 350.377C407.154 351.208 405.512 350.917 404.17 349.928C403.199 343.977 404.111 321.972 403.552 313.241C408.242 311.119 411.82 310.133 416.874 309.38Z"/><path fill="#018ABE" d="M965.154 309.396C967.102 309.312 969.666 308.937 970.949 310.541L970.685 312.021C968.519 315.092 962.436 313.965 956.909 315.583L957.004 349.681C956.348 351.225 954.513 350.704 953.023 350.655C951.449 349.389 952.123 318.544 951.457 313.257C956.419 311.141 959.823 310.071 965.154 309.396Z"/><path fill="#018ABE" d="M621.632 310.32C623.465 310.243 624.952 310.003 626.541 310.928C627.254 314.039 626.874 345.395 626.856 350.751C625.067 350.839 623.696 351.05 622.06 350.278C621.294 347.251 621.624 315.694 621.632 310.32Z"/><path fill="#018ABE" d="M622.194 293.692C623.271 292.95 624.675 292.879 625.822 293.508C626.969 294.136 627.663 295.358 627.616 296.664C627.57 297.971 626.79 299.139 625.601 299.685C623.969 300.433 622.035 299.81 621.148 298.25C620.261 296.689 620.715 294.71 622.194 293.692Z"/><path fill="#355776" d="M1174.79 117.391C1177.68 116.95 1180.05 117.033 1182.96 117.054L1183.61 118.109L1184.8 117.476L1184.79 117.622L1181.46 119.053C1180.75 120.713 1181.1 125.737 1181.15 127.818C1180.99 129.522 1181.29 129.488 1180.31 130.326C1178.56 128.498 1180.06 119.994 1178.73 118.692C1178.23 118.199 1176.66 119.371 1174.79 117.391Z"/></svg>