<?xml version="1.0" encoding="utf-8" ?><svg xmlns="http://www.w3.org/2000/svg" xmlns:xlink="http://www.w3.org/1999/xlink" width="383" height="131" viewBox="0 0 383 131"><path fill="white" d="M0 0L19.5616 0L27.2507 0L357.545 0L365.269 0L383 0L383 39.3418L383 43.8636L383 131L0 131L0 115.109L0 87.2808L0 19.9314L0 15.0626L0 0Z"/><path fill="#099" d="M357.545 0L365.269 0L383 0L383 39.3418L383 43.8636C382.64 44.6109 382.485 45.9046 382.199 46.7854C376.73 63.6602 352.223 60.6022 339.486 58.1115L339.441 46.8061C339.91 46.9379 340.38 47.0661 340.852 47.1906C347.438 48.9322 358.213 51.5598 364.85 48.2399C366.028 47.6005 366.963 46.3161 367.252 45.0234C368.239 40.6068 362.091 38.6314 359.058 37.2034C353.101 34.3292 343.743 31.6757 340.351 25.5417C334.427 14.8319 341.167 3.0858 352.899 1.09342C353.785 0.94299 356.951 0.372282 357.545 0Z"/><path fill="white" d="M365.269 0L383 0L383 39.3418C381.876 36.8746 381.565 34.5149 379.811 32.2789C374.68 25.7405 355.999 21.03 353.689 16.6094C353.268 15.8051 353.219 14.9321 353.506 14.0757C353.985 12.6454 355.324 11.5689 356.638 10.9335C362.356 8.16847 372.759 11.0575 378.432 13.0094C378.247 9.62159 378.359 5.48846 378.443 2.0944C376.282 1.73696 366.091 0.530709 365.269 0Z"/><path fill="#099" d="M0 0L19.5616 0L27.2507 0C27.9905 0.50876 38.5721 1.81579 40.2478 2.09741L40.2413 13.137C34.5006 10.7571 24.7764 8.37924 18.8011 10.8187C17.4575 11.3673 16.0134 12.3052 15.4288 13.6947C15.0788 14.5267 15.1157 15.4202 15.4588 16.249C18.4331 23.4343 43.2199 24.0477 44.6645 40.1724C44.8999 42.8004 44.6314 45.7014 43.6447 48.1521C41.8402 52.6338 38.0277 55.7536 33.6542 57.5852C23.0239 62.037 12.0668 59.6175 1.21175 58.1455C1.27134 54.3217 1.25577 50.4971 1.16503 46.6739C7.67882 48.7561 19.9015 51.762 26.3875 48.3812C27.5587 47.7708 28.5566 46.8773 28.9615 45.5867C29.31 44.4758 29.1657 43.3102 28.6106 42.2906C26.0117 37.5163 9.23112 33.7601 3.82403 27.8572C2.31616 26.211 1.29938 24.0632 0.656783 21.932C0.463614 21.2913 0.37032 20.4895 0 19.9314L0 15.0626L0 0Z"/><path fill="white" d="M0 0L19.5616 0C18.4471 0.699084 15.8166 0.687613 14.4789 1.05544C9.97078 2.2951 5.37939 4.51955 2.62591 8.4456C0.907222 10.8001 0.719853 13.9954 0 15.0626L0 0Z"/><path fill="#661E8E" d="M0 87.2808C5.48887 67.8119 19.9672 72.5521 36.3267 71.7167C39.3862 71.5605 42.8138 71.8303 45.8831 72.0552C66.2868 73.5496 64.0664 89.7855 64.0259 104.992L25.717 104.988C25.7238 102.494 25.7088 99.9691 25.7498 97.4781L56.5121 97.5011C56.5753 92.6482 57.4561 86.3952 53.8309 82.6763C50.0422 78.6988 42.3894 79.0664 37.1404 79.1507C30.0365 79.2647 21.7348 78.6471 14.7825 79.9152C8.70915 81.023 7.45769 86.9251 7.43646 91.9611L7.41863 106.638C7.42048 108.69 7.30892 113.369 7.69752 115.123C8.10358 116.88 8.99367 118.488 10.2669 119.764C12.2586 121.752 13.9785 122.523 16.741 122.738C26.9593 123.534 37.356 123.597 47.568 122.688C53.6205 122.129 56.5246 117.355 56.5714 111.753L64.072 111.731C63.502 119.821 59.6481 128.231 50.4754 129.656C39.8382 131.308 27.838 130.315 17.0822 130.199C7.07618 129.71 2.54627 123.95 0 115.109L0 87.2808Z"/><path fill="#099" d="M189.218 0.922884C195.346 1.18332 202.928 0.94899 209.228 0.999419L209.228 58.965C204.123 59.0014 199.019 59.0083 193.914 58.9856C193.723 49.3802 193.891 39.1517 193.867 29.4722C193.921 25.4926 193.898 21.5124 193.799 17.5337C188.96 31.2355 181.88 45.7464 176.755 59.5542C173.557 59.4398 169.757 59.5458 166.515 59.556C165.319 55.5782 162.082 48.1203 160.403 43.984L149.767 17.5828L149.776 58.9708L138.47 58.9977C138.476 39.7263 138.635 20.2298 138.42 0.976168C145.362 0.962459 152.568 0.862627 159.486 1.02605C160.522 4.25647 162.341 8.31296 163.571 11.5504C166.958 20.4689 170.907 29.4347 174.183 38.373C178.59 26.0852 184.763 13.2777 189.218 0.922884Z"/><path fill="#099" d="M316.339 1.00208C320.141 0.955801 323.943 0.953631 327.745 0.995568L327.73 39.6881C327.73 45.1798 328.051 53.8445 327.675 58.9711L309.377 58.9909C307.361 54.2426 302.42 45.396 299.933 40.6671C296.558 34.2492 292.343 25.4714 288.727 19.3828C289.074 32.345 288.696 45.9237 288.835 58.991L277.509 58.9986L277.475 0.982273C283.723 0.923704 289.97 0.934918 296.217 1.01591L308.705 25.2259C310.991 29.6649 314.031 36.0093 316.492 40.098C316.34 27.6213 316.901 13.274 316.339 1.00208Z"/><path fill="#099" d="M224.224 0.988447L265.993 0.975925L265.988 11.4769L239.982 11.4737L240.004 24.7091L262.534 24.7125L262.514 34.0474C255.306 34.2936 247.248 34.156 239.981 34.1302L239.972 36.6522L239.982 48.0152L266.59 48.0173C266.45 51.5161 266.533 55.4333 266.541 58.9659C252.612 59.1725 238.232 58.9937 224.267 58.9975L224.224 0.988447Z"/><path fill="#099" d="M85.291 0.9824L127.02 0.976867L127.011 11.4549L100.984 11.4725L101.005 24.713L123.657 24.7178C123.414 27.5051 123.526 31.1966 123.54 34.045C116.372 34.3064 108.231 34.1463 100.987 34.1839L100.984 37.1875L100.988 48.0149L127.729 48.0126C127.463 50.6277 127.591 56.2169 127.646 58.968C113.701 59.1583 99.376 58.9947 85.4005 58.9989L85.4038 23.8457C85.4022 16.3532 85.5236 8.44575 85.291 0.9824Z"/><path fill="#661E8E" d="M161.963 71.8596C164.349 71.6573 170.439 71.6047 172.935 71.7006C181.67 72.0366 192.281 70.5092 198.823 77.3867C204.043 82.8745 203.754 87.7257 203.742 94.6648L203.707 104.988L165.53 104.993C165.526 102.484 165.542 99.9751 165.579 97.4661L196.34 97.4967C196.388 96.0879 196.423 94.6786 196.444 93.2691C196.499 89.174 196.588 85.6633 193.513 82.5367C192.325 81.3225 190.846 80.4334 189.217 79.9546C186.354 79.1033 176.474 78.9545 172.805 79.1184C165.963 79.424 149.52 77.1681 147.825 86.31C146.774 91.9833 147.26 100.908 147.277 106.875C147.224 111.493 146.615 115.79 149.845 119.563C153.019 123.27 159.12 123.074 164.119 123.199C172.456 123.218 181.573 123.848 189.759 122.169C194.247 121.249 196.352 115.808 196.5 111.739L203.781 111.717C203.792 116.565 202.554 120.743 199.388 124.429C196.362 127.951 190.822 130.213 186.284 130.234C178.529 130.272 159.647 131.275 152.923 129.613C150.218 128.961 147.717 127.647 145.645 125.789C141.763 122.267 139.916 117.633 139.83 112.365C139.799 107.929 139.702 103.318 139.769 98.8905C139.886 91.1505 138.78 83.8437 144.481 77.6847C149.494 72.2679 155.142 72.1865 161.963 71.8596Z"/><path fill="#661E8E" d="M273.826 71.875C273.957 71.8637 274.089 71.8537 274.221 71.845C279.904 71.4747 298.074 71.5089 303.069 72.862C305.656 73.5498 308.048 74.8298 310.055 76.6009C314.497 80.5413 315.533 85.022 315.872 90.6538C313.518 90.7455 310.909 90.7032 308.535 90.7141C308.397 87.5027 307.801 84.9904 305.556 82.4793C302.219 78.7468 293.77 79.1891 288.653 79.1583C281.948 79.1181 272.83 78.8533 266.215 79.9998C265.085 80.1955 263.072 81.662 262.228 82.4903C259.637 85.0328 259.243 87.6745 259.303 91.2918C259.432 99.1131 258.901 107.552 259.608 115.311C259.728 116.634 261.324 119.038 262.264 119.95C263.218 120.876 264.503 121.859 265.838 122.187C271.016 123.458 278.72 123.187 284.039 123.321C287.628 123.411 298.294 123.234 301.319 122.308C302.913 121.83 304.363 120.963 305.538 119.785C309.313 116 308.471 110.151 308.443 105.016L302.313 104.989L277.53 104.994C277.528 102.485 277.545 99.9752 277.579 97.4661L315.815 97.4685C315.653 105.833 317.585 117.445 311.439 124.402C303.453 133.443 286.98 129.632 276.129 130.454C273.461 130.656 267.545 130.207 264.958 129.632C258.01 128.09 252.294 121.38 252.049 114.221C251.773 109.264 251.732 104.483 251.818 99.5168C251.954 91.7476 250.759 83.795 256.539 77.646C261.583 72.2798 266.964 72.1952 273.826 71.875Z"/><path fill="#661E8E" d="M94.7639 71.875C97.583 71.6469 101.967 71.6511 104.814 71.7074C112.31 71.8898 119.79 71.7162 125.417 77.4453C131.825 83.9689 130.312 92.9819 130.313 101.428C130.358 110.955 130.345 120.482 130.276 130.009C127.824 130.246 125.355 130.269 122.899 130.08C122.381 115.696 123.571 100.983 122.42 86.6438C122.323 85.4251 121.141 83.6506 120.343 82.7536C117.524 79.5857 113.782 79.4522 109.891 79.2601C105.578 79.1682 92.3723 78.8224 88.4601 79.8736C87.0316 80.254 85.7118 80.9633 84.6064 81.9449C79.9688 86.0152 81.1332 93.1861 81.1388 98.9311L81.1657 117.766C81.173 121.703 81.282 126.24 81.0202 130.113C78.3615 130.179 76.3733 130.279 73.703 130.04C73.9382 120.168 73.5255 110.149 73.712 100.263C73.8596 92.4349 72.3842 84.2668 78.1058 77.9252C82.7432 72.7854 88.2722 72.2503 94.7639 71.875Z"/><path fill="#099" d="M53.9951 0.964259C59.406 0.944905 64.817 0.956559 70.2278 0.999221L70.238 58.9676C64.9272 59.059 59.3515 58.9903 54.0227 58.997L53.9951 0.964259Z"/><path fill="#661E8E" d="M230.222 72.353C232.894 71.9966 243.154 72.223 246.481 72.2288L246.458 79.5523C242.24 79.5681 238.022 79.5543 233.805 79.5109C219.815 79.4761 221.71 89.9401 221.718 100.07L221.744 121.625L221.719 130.11C219.274 130.204 216.827 130.221 214.38 130.16C214.663 120.537 214.212 110.38 214.363 100.716C214.426 96.659 214.03 89.7824 214.789 85.9737C215.33 83.1756 216.568 80.5591 218.388 78.3663C221.509 74.6145 225.428 72.7994 230.222 72.353Z"/><path fill="#661E8E" d="M373.681 72.2474C376.787 72.2478 379.894 72.2311 383 72.1974C378.679 77.8869 353.81 109.622 352.685 113.275C351.657 116.615 352.251 125.559 352.259 129.312C352.22 129.812 352.272 129.639 351.9 130.048C349.382 130.392 347.308 130.243 344.781 130.032C344.736 123.093 343.625 112.073 347.895 106.41C356.455 95.0543 364.903 83.4315 373.681 72.2474Z"/><path fill="#661E8E" d="M316.771 72.2343L326.49 72.2546C329.591 76.1705 333.271 80.3572 336.505 84.2169C340.166 88.5855 344.094 93.3979 347.885 97.6183C347.048 98.7305 346.204 99.8373 345.352 100.938L343.405 103.68C340.312 100.474 336.467 95.6641 333.534 92.1915L316.771 72.2343Z"/></svg>