<?xml version="1.0" encoding="utf-8" ?><svg xmlns="http://www.w3.org/2000/svg" xmlns:xlink="http://www.w3.org/1999/xlink" width="171" height="157" viewBox="0 0 171 157"><path fill="white" d="M0 0L171 0L171 157L0 157L0 0Z"/><path fill="#1ADF9A" d="M84.2378 70.5407L84.4893 71.1363C83.9836 71.6437 79.1252 74.9268 78.226 75.527C70.5601 80.6436 62.7094 85.588 54.9255 90.5283C65.345 89.4966 70.4967 89.431 78.0312 81.4993C73.8021 100.337 45.9519 98.6394 31.1389 97.5903C36.008 94.8209 43.0286 91.7134 48.2362 88.9237C60.101 82.5679 72.1496 76.4615 84.2378 70.5407Z"/><path fill="#0AC1B8" d="M84.7996 70.0554L85.5349 70.0661C87.7917 71.7098 95.9579 75.4352 99.0877 77.0318L110.738 83.0488C112.502 83.9623 116.063 85.9144 117.82 86.4544C114.025 81.3895 108.113 73.2314 101.57 72.0143L101.271 70.3315C116.539 68.7054 125.893 85.4199 132.005 96.8291C133.115 98.9005 134.543 101.732 135.87 103.614C133.785 102.477 131.986 101.292 130.023 99.9696C119.574 92.9269 108.753 86.4704 98.2134 79.5626L89.9039 74.0619C88.6516 73.2263 85.8905 71.0326 84.4893 71.1363L84.2378 70.5407L84.7996 70.0554Z"/><path fill="#089FDC" d="M88.95 9.58744C88.2808 13.1043 87.9043 22.7933 87.7404 26.6878L86.4997 54.8525C86.2685 59.4844 86.1295 65.52 85.5349 70.0661L84.7996 70.0554C83.9488 57.8619 83.7639 45.4456 82.8428 33.2443C80.3905 43.3556 74.9596 46.7579 79.3563 59.1655C64.5081 44.9016 81.2296 23.1595 88.95 9.58744Z"/><path fill="#0BAFC9" d="M4.29472 126.161C6.03046 126.198 7.7658 126.252 9.5005 126.322C10.8411 129.681 14.5851 136.145 16.3951 139.703C17.6575 136.583 21.5318 129.769 23.3037 126.24C25.2202 126.184 26.5325 126.141 28.4508 126.32C28.3365 131.412 28.128 142.129 28.4883 146.99C27.5865 147.53 24.479 147.237 23.3193 147.175C23.3134 143.316 23.2452 139.458 23.1147 135.601C22.396 137.623 18.056 149.255 15.5835 146.959C14.1226 145.602 10.4505 138.372 9.25685 136.201L9.27162 147.312L4.44079 147.2C4.12199 140.475 4.27611 132.947 4.29472 126.161Z"/><path fill="#1ADF9A" d="M148.987 126.15C156.463 126.175 167.307 125.366 167.803 136.013C167.974 139.682 167.124 141.673 164.634 144.364C159.879 147.969 154.906 147.347 149.155 147.267C149.042 140.172 149.163 133.313 148.987 126.15Z"/><path fill="white" d="M152.338 129.22C155.336 129.295 159.591 129.112 161.93 131.168C165.574 134.372 164.994 138.472 162.205 141.839C162.13 141.915 162.054 141.99 161.978 142.064C159.438 144.536 155.822 144.074 152.46 144.021C152.345 139.157 152.401 134.117 152.338 129.22Z"/><path fill="#0BAFC9" d="M28.4508 126.32C29.8572 126.468 30.1984 125.735 30.9358 126.131C36.1581 126.31 41.4153 126.016 46.6344 126.279C46.5929 127.749 46.5327 129.218 46.4537 130.687C42.8205 130.747 39.1865 130.751 35.5531 130.699L35.5334 134.629C38.9976 134.712 42.3178 134.638 45.7637 134.643L45.6522 138.703C42.2851 138.746 38.9177 138.766 35.5504 138.763C35.5668 139.904 35.5406 141.633 35.649 142.723L46.7062 142.759L46.7463 147.185C41.7241 147.308 35.1656 147.046 30.402 147.336C29.286 146.853 29.5587 146.781 28.4883 146.99C28.128 142.129 28.3365 131.412 28.4508 126.32Z"/><path fill="#DEFEFD" d="M28.4508 126.32C29.8572 126.468 30.1984 125.735 30.9358 126.131L30.4286 126.429C30.1605 128.354 30.3952 130.357 30.3302 132.268C30.174 136.865 30.6994 142.853 30.402 147.336C29.286 146.853 29.5587 146.781 28.4883 146.99C28.128 142.129 28.3365 131.412 28.4508 126.32Z"/><path fill="#0BAFC9" d="M57.1542 125.844C63.0464 125.61 65.6132 127.106 68.8714 131.765C66.9871 132.555 66.0246 132.885 64.0504 133.41C62.4118 131.954 61.5124 130.935 59.2065 130.593C57.7019 130.374 56.172 130.763 54.9549 131.675C51.6288 134.164 51.7048 139.748 55.2888 141.946C56.745 142.839 57.7329 142.912 59.4287 143.113C60.7321 142.63 63.6276 141.597 63.5482 139.989C62.2873 138.867 59.6794 139.24 57.9631 139.303C57.8743 138.007 57.546 135.727 58.3118 134.812C61.9796 134.687 65.877 134.87 69.5611 134.979C69.5209 138.157 69.2372 140.63 67.3689 143.303C63.8493 148.339 56.4947 148.887 51.6843 145.33C49.367 143.624 47.828 141.063 47.4099 138.216C46.5125 132.034 51.0944 126.7 57.1542 125.844Z"/><path fill="#1ADF9A" d="M102.557 126.317C103.558 126.141 104.597 125.835 105.519 126.195C106.742 127.656 110.077 139.588 110.594 141.939C112.157 136.663 113.682 131.376 115.168 126.079C116.166 126.145 117.716 126.069 118.758 126.047C118.493 127.53 117.702 130.147 117.282 131.686C116.553 133.856 113.201 146.163 112.152 146.994C111.636 147.193 109.26 147.707 109.002 147.01C107.182 142.093 106.061 137.095 104.112 132.187C102.617 137.074 100.782 142.641 99.5798 147.548C98.3601 147.469 97.3211 147.299 96.1136 147.106C93.554 141.398 92.1114 133.094 89.9582 127.008C89.7996 126.56 89.9392 126.445 90.1796 126.111C91.1221 126.061 92.3331 126.091 93.2988 126.088C94.4692 131.021 96.3137 136.735 97.7796 141.656C99.6313 136.681 101.053 131.424 102.557 126.317Z"/><path fill="#0BAFC9" d="M76.6718 126.198C78.5313 126.184 80.3908 126.212 82.2489 126.283C82.7745 128.021 84.3358 131.496 85.0939 133.31C87.0449 137.916 88.9592 142.538 90.8366 147.175C88.9971 147.262 87.2447 147.262 85.4051 147.263C84.8762 145.684 84.5781 143.441 82.8125 143.244C80.2748 143.267 77.704 143.241 75.1633 143.236C74.8974 144.206 74.0313 146.277 73.6398 147.297C71.76 147.353 70.0313 147.26 68.1568 147.173C69.9614 141.479 75.4559 131.448 76.6718 126.198Z"/><path fill="#DEFEFD" d="M79.2874 132.413C80.2603 133.238 82.2699 137.69 81.4999 138.991L80.3125 139.046L76.9745 139.036C77.5553 136.845 78.4788 134.549 79.2874 132.413Z"/><path fill="#1ADF9A" d="M142.182 126.012L145.702 126.038C145.749 128.724 145.978 145.896 145.448 147.325C144.83 147.347 144.207 147.365 143.588 147.332C141.911 147.241 132.093 134.533 130.282 132.435C130.3 137.342 130.386 142.46 130.238 147.346C129.183 147.416 127.99 147.305 126.924 147.235C126.788 143.807 126.892 140.291 126.903 136.851C126.914 133.278 126.781 129.554 127.022 126.001C127.436 125.979 127.851 125.974 128.266 125.986C130.48 126.074 139.663 138.378 142.023 140.979C142.19 136.014 141.88 130.932 142.182 126.012Z"/><path fill="#1ADF9A" d="M119.991 126.011L123.406 126.014C123.625 131.564 123.473 137.192 123.544 142.749C123.563 144.26 123.577 145.884 123.42 147.382C122.257 147.47 121.201 147.335 120.042 147.226C119.784 140.815 119.875 132.473 119.991 126.011Z"/><path fill="#0BAFC9" d="M98.1831 71.4037C99.2532 70.9113 100.143 70.6662 101.271 70.3315L101.57 72.0143L98.1831 71.4037Z"/></svg>