<?xml version="1.0" encoding="utf-8" ?><svg xmlns="http://www.w3.org/2000/svg" xmlns:xlink="http://www.w3.org/1999/xlink" width="200" height="144" viewBox="0 0 200 144"><path fill="white" d="M0 0L200 0L200 82.2522L200 88.9276L200 137.249L200 137.765L200 144L0 144L0 137.8L0 137.364L0 0Z"/><path fill="#931F32" d="M200 88.9276C199.72 89.3482 199.151 90.8299 198.885 91.3838C195.593 98.2397 188.417 101.891 180.861 99.7971C177.052 98.7706 173.811 96.264 171.859 92.8352C163.81 78.4943 182.016 63.9168 194.661 74.2017C197.918 76.8505 198.194 78.8781 200 82.2522L200 88.9276Z"/><path fill="white" d="M183.428 75.2876C187.129 74.7166 190.852 76.1799 193.175 79.1186C195.497 82.0573 196.06 86.0177 194.649 89.4872C193.238 92.9567 190.07 95.3996 186.356 95.883C180.706 96.6181 175.517 92.6723 174.715 87.0322C173.913 81.392 177.797 76.1561 183.428 75.2876Z"/><path fill="#1F4B81" d="M29.4816 126.341C34.1939 125.219 41.5635 124.63 45.9946 126.328C56.0759 130.191 64.9536 135.491 76.2442 135.354C77.183 135.343 82.6568 134.838 82.8981 134.974C82.0417 135.379 81.2328 135.413 80.541 135.733C74.9514 138.322 67.2649 138.698 61.2634 136.914L61.0102 136.765C56.8817 135.3 52.7813 133.758 48.7112 132.138C42.2003 129.562 36.5407 126.804 29.4816 126.341Z"/><path fill="#CAC6CE" d="M200 137.765C188.68 138.024 80.3508 137.971 79.4947 137.47C81.7678 137.091 88.1242 137.292 90.7935 137.289L114.539 137.27L200 137.249L200 137.765Z"/><path fill="#CAC6CE" d="M61.0102 136.765L61.2634 136.914L61.2547 137.312C60.0823 137.91 45.5496 137.791 43.0915 137.792L14.6359 137.788C9.97811 137.787 4.61118 137.655 0 137.8L0 137.364C12.3976 137.259 24.7958 137.223 37.1938 137.256C43.7049 137.259 50.2299 137.317 56.7414 137.331C58.4669 137.334 59.3831 136.929 61.0102 136.765Z"/><path fill="#931F32" d="M103.487 70.7632C111.703 69.9268 119.035 75.9282 119.839 84.1482C120.642 92.3682 114.612 99.6757 106.388 100.447C98.2115 101.213 90.954 95.2238 90.1549 87.05C89.3558 78.8762 95.3161 71.5948 103.487 70.7632Z"/><path fill="white" d="M103.243 75.3181C108.931 74.3482 114.322 78.1958 115.253 83.8908C116.184 89.5858 112.3 94.95 106.599 95.8428C100.952 96.7272 95.6502 92.8882 94.7277 87.2474C93.8052 81.6066 97.6082 76.2787 103.243 75.3181Z"/><path fill="#931F32" d="M50.7725 13.5418L51.5461 13.9649C49.2192 23.0788 45.5739 33.6008 42.9711 42.9053C45.459 47.1681 44.5141 46.1369 49.1694 46.8202C49.5003 46.8688 55.4601 50.6306 56.4048 51.2196C62.1587 54.8353 67.9322 58.4197 73.725 61.9728L73.4608 62.5429C67.3478 59.4349 60.9599 56.5274 54.7373 53.626C50.8696 51.8226 46.8662 49.782 42.9402 48.1981C42.9952 62.4975 43.9535 73.8288 45.0985 88.0569L47.4898 117.824C44.5709 117.944 41.7429 118.067 38.8615 118.573C38.5468 112.803 39.1608 102.437 39.3009 96.2276L40.4222 49.1915C39.7175 48.6958 39.0733 48.1174 38.4199 47.5548C32.4758 51.0823 20.5374 50.8433 13.3787 50.738C12.6362 50.6125 12.0494 50.5025 11.3115 50.3189C12.5793 50.0783 12.8983 50.0178 14.0291 49.4095C15.2097 48.7665 34.6567 46.1 37.8795 45.3936C39.0529 43.9629 39.4289 43.6045 40.9472 42.5157C40.3993 38.9867 40.5424 37.2681 42.0485 33.9044C45.0659 27.1653 47.9198 20.3517 50.7725 13.5418Z"/><path fill="#1F4B81" d="M38.8615 118.573C41.7429 118.067 44.5709 117.944 47.4898 117.824C57.8819 117.408 61.5306 119.749 71.1823 122.536C82.7545 125.879 94.2551 126.819 106.201 125.285C106.782 125.847 106.977 126.14 107.429 126.789C94.0614 132.963 85.3435 132.049 71.7713 129.096C65.2404 127.623 58.7276 126.07 52.2343 124.439C43.384 122.288 38.7132 121.267 29.6241 121.751C31.012 121.205 38.4531 119.049 38.8615 118.573Z"/><path fill="#931F32" d="M71.2482 71.4909C73.9053 71.4749 76.5129 71.4894 79.2952 71.534C86.0948 71.6428 89.3357 77.8575 86.1008 83.6559C84.9698 85.6832 83.098 86.4511 80.83 86.9028C84.0579 90.7828 87.2328 95.5185 90.5158 99.5837C88.478 99.5309 86.3825 100.142 84.8341 99.0814C83.0013 96.5776 77.2759 88.4655 75.4963 86.7175C75.3938 90.9793 75.4599 95.4037 75.4717 99.6793L71.2352 99.667C71.0925 90.4131 71.24 80.7758 71.2482 71.4909Z"/><path fill="white" d="M75.7908 75.312C80.5524 75.5244 84.9087 77.0132 81.5145 82.6258C79.3961 83.5232 78.008 83.451 75.7554 83.4651C75.7437 80.7473 75.7554 78.0295 75.7908 75.312Z"/><path fill="#931F32" d="M123.917 70.4198C124.523 70.8697 126.247 72.6999 126.881 73.3361C132.718 79.1909 139.149 84.7626 144.711 90.864C144.353 86.8994 144.464 75.5276 144.689 71.4686L148.979 71.4948C149.105 81.1199 148.959 91.0226 148.986 100.678C146.877 98.9798 142.481 94.5625 140.418 92.553C136.513 88.7479 131.441 84.2299 127.924 80.2081C128.12 86.3656 127.99 93.4023 128.012 99.6281L123.805 99.7316L123.758 81.0017C123.758 78.3283 123.628 72.9268 123.917 70.4198Z"/><path fill="#931F32" d="M51.9816 71.4853C55.6671 71.469 63.4439 70.7702 66.2655 73.362C71.0779 77.7823 68.5012 87.509 61.1222 86.9701C59.8885 86.88 57.5511 86.981 56.2344 87.0471C56.16 91.187 56.217 95.5051 56.211 99.6596L51.9593 99.6456C51.6266 91.18 51.8866 80.0746 51.9816 71.4853Z"/><path fill="white" d="M56.5136 75.2214C58.731 75.5477 60.8535 75.3105 62.7883 76.7209C64.9978 78.3314 64.0805 80.7343 62.7629 82.5281C61.0485 83.2961 58.4457 83.3123 56.4674 83.4879L56.5136 75.2214Z"/><path fill="#931F32" d="M151.029 71.5072L170.701 71.5172C170.566 72.5935 170.573 74.305 170.544 75.4332C168.014 75.4249 165.483 75.4352 162.952 75.4642C163.103 80.8904 162.981 87.1444 162.991 92.625L163.01 99.6519C161.534 99.6038 160.061 99.6387 158.585 99.6615C158.374 91.8942 158.554 83.2934 158.55 75.4603C156.069 75.3968 153.509 75.4297 151.021 75.4318L151.029 71.5072Z"/><path fill="#163A5B" d="M92.6144 104.781C99.7628 104.365 101.414 114.919 94.2116 116.981C91.3498 117 89.0325 115.808 88.0732 112.968C87.5316 111.375 87.6465 109.633 88.3926 108.125C89.3536 106.195 90.6747 105.429 92.6144 104.781Z"/><path fill="white" d="M92.805 106.234C95.0109 106.427 96.6394 107.455 97.2186 109.692C97.5316 110.917 97.3502 112.216 96.7137 113.308C95.9627 114.574 95.031 115.143 93.6522 115.498C88.1733 114.756 87.7481 108.378 92.805 106.234Z"/><path fill="#051D3C" d="M141.196 104.774C142.09 104.775 143.187 104.98 143.994 105.379C145.446 106.087 146.55 107.353 147.056 108.888C147.594 110.489 147.478 112.237 146.732 113.753C145.901 115.419 144.749 116.234 143.04 116.805C135.002 117.365 133.836 107.009 141.196 104.774Z"/><path fill="white" d="M141.557 106.28C142.077 106.293 142.808 106.377 143.29 106.582C144.309 107.003 145.111 107.821 145.512 108.848C146.677 111.753 145.132 114.525 142.301 115.621C141.6 115.554 140.823 115.464 140.204 115.111C139.089 114.459 138.272 113.398 137.927 112.153C137.592 110.943 137.757 109.648 138.385 108.561C139.145 107.274 140.151 106.643 141.557 106.28Z"/><path fill="#051D3C" d="M158.925 104.799L159.579 105.052C160.356 105.864 159.893 114.836 160.373 117.478C157.87 114.173 154.873 111.594 152.219 107.961C152.289 110.498 152.351 114.467 152.151 116.942L151.278 116.651C150.699 115.676 151.021 106.838 150.769 104.474C152.684 107.06 156.483 110.942 158.79 113.655C158.731 111.385 158.57 106.915 158.925 104.799Z"/><path fill="#071E2F" d="M81.3417 104.724C82.7004 104.768 83.9949 105.274 84.6688 106.518L84.5382 106.824C83.3303 107.082 81.3774 105.482 80.2844 106.822C79.738 107.44 81.0942 108.942 81.605 109.235C85.0542 111.214 87.4818 116.812 81.1934 116.918C80.1413 116.609 78.4922 115.875 78.7262 114.543C80.4501 114.307 81.4299 116.58 83.4155 114.729C84.2724 111.934 79.83 110.946 78.8303 108.598C78.0016 106.651 79.7763 105.385 81.3417 104.724Z"/><path fill="#051D3C" d="M166.161 104.748C167.394 104.735 169.126 105.194 169.336 106.587C168.024 107.004 166.678 105.167 165.258 107.194C165.242 109.293 169.774 111.117 170.114 113.612C170.385 115.603 168.635 116.58 167.072 116.908C165.506 116.822 164.202 116.549 163.524 115.002C163.698 114.322 163.551 114.465 164.038 114.143C165.521 115.003 167.775 116.847 168.627 113.896C168.353 111.235 159.045 108.671 166.161 104.748Z"/><path fill="#163A5B" d="M102.236 116.766C102.285 114.741 101.595 105.41 103.381 105.03L103.684 105.344C103.854 108.629 103.865 111.92 103.718 115.206C105.196 115.143 106.177 115.009 107.558 115.611L107.934 115.994L107.681 116.423C107.193 116.497 106.815 116.579 106.322 116.522C105.336 116.727 103.317 116.732 102.236 116.766Z"/><path fill="#163A5B" d="M115.408 115.488C118.522 112.935 116.212 108.377 117.668 105.288L118.082 105.064C119.374 106.056 118.956 114.38 117.696 115.772C117.272 116.24 116.82 116.463 116.261 116.707C116.042 115.914 116.098 116.143 115.408 115.488Z"/><path fill="#071E2F" d="M131.469 104.818C132.057 104.919 132.269 104.922 132.724 105.299C132.94 106.702 132.951 115.975 132.434 117.089L131.606 116.644C131.09 115.432 131.426 106.792 131.469 104.818Z"/><path fill="#163A5B" d="M111.067 115.761C110.095 114.001 109.471 105.557 110.964 104.835C111.061 104.901 111.57 105.25 111.57 105.25C111.963 107.513 111.458 112.76 112.153 114.685L111.067 115.761Z"/><path fill="#163A5B" d="M123.817 106.384C124.194 106.114 125.232 106.261 125.812 106.278C125.686 108.404 125.967 115.58 125.388 116.809L125.124 116.969C122.963 115.63 125.215 108.498 124.05 106.52L123.817 106.384Z"/><path fill="#732A2E" d="M13.3787 50.738C11.8193 51.0027 3.03308 51.6512 1.88816 51.171C5.43179 50.5543 10.5118 49.7112 14.0291 49.4095C12.8983 50.0178 12.5793 50.0783 11.3115 50.3189C12.0494 50.5025 12.6362 50.6125 13.3787 50.738Z"/><path fill="#051D3C" d="M123.817 106.384C122.821 106.501 122.089 106.647 121.326 106.055L121.461 105.49C122.331 104.822 127.383 105.137 128.434 105.49L128.599 105.861C127.786 106.806 126.902 106.492 125.812 106.278C125.232 106.261 124.194 106.114 123.817 106.384Z"/><path fill="#163A5B" d="M106.201 125.285C109.917 124.621 111.975 123.597 115.402 122.756C113.121 123.952 109.701 125.839 107.429 126.789C106.977 126.14 106.782 125.847 106.201 125.285Z"/><path fill="#071E2F" d="M112.153 114.685C113.452 115.33 113.916 115.612 115.408 115.488C116.098 116.143 116.042 115.914 116.261 116.707C115.935 116.768 115.606 116.82 115.276 116.863C113.467 117.09 112.461 116.848 111.067 115.761L112.153 114.685Z"/><path fill="#533B3E" d="M50.7725 13.5418C51.4628 11.8625 52.8368 8.26356 53.734 6.8769C53.0871 9.06539 52.3347 11.8748 51.5461 13.9649L50.7725 13.5418Z"/><path fill="#816469" d="M73.725 61.9728C75.1562 62.7753 76.7301 63.6503 77.9333 64.7718C76.5678 64.1144 74.7343 63.295 73.4608 62.5429L73.725 61.9728Z"/></svg>