<?xml version="1.0" encoding="utf-8" ?><svg xmlns="http://www.w3.org/2000/svg" xmlns:xlink="http://www.w3.org/1999/xlink" width="159" height="97" viewBox="0 0 159 97"><path fill="#FBF9FB" d="M0 0L159 0L159 97L0 97L0 0Z"/><path fill="#116EA2" d="M120.027 54.5095L133.072 54.4386C138.37 54.4207 146.533 53.4635 146.657 61.5387C146.718 65.5381 147.489 69.4434 144.611 72.5714C142.093 74.4317 140.204 74.5383 137.144 74.5365C131.441 74.5333 125.738 74.4932 120.035 74.4586C120.27 68.3268 120.042 60.7527 120.027 54.5095Z"/><path fill="#FBF9FB" d="M132.463 58.8727C136.472 58.8246 141.285 57.8271 141.29 63.278C141.295 69.3675 140.908 69.8634 135.063 69.998L125.481 69.9887L125.481 58.9095C127.695 58.9626 130.224 58.8875 132.463 58.8727Z"/><path fill="#116EA2" d="M71.597 54.4775L77.2657 54.5232C76.5968 55.9865 75.9093 57.8275 75.2961 59.3434C72.8808 64.343 70.9285 69.5419 68.4007 74.5011L62.928 74.5246C61.2614 70.1776 58.8422 65.4169 56.9573 61.0363C55.0762 65.5369 52.9092 69.931 51.0319 74.504C49.2373 74.4865 47.3955 74.53 45.5973 74.5515C45.0795 73.6015 44.6175 72.6281 44.1904 71.6344C41.7383 65.9283 38.9515 60.3412 36.7278 54.5408C38.4598 54.4434 40.69 54.4936 42.4596 54.483C44.458 59.0625 46.4237 63.6561 48.3568 68.2635C50.4087 63.8028 52.4252 59.3259 54.4061 54.8332C56.2755 55.0207 57.9194 54.9615 59.7859 54.9228C61.2898 58.8511 63.9486 64.6355 65.8332 68.3975C67.1381 64.4747 69.9 58.4531 71.597 54.4775Z"/><path fill="#0F1011" d="M10.3935 54.5429C16.0486 54.2822 22.8027 54.5278 28.6225 54.4689L27.036 58.993C23.7823 58.8945 13.4173 58.3384 11.0435 59.738C9.83548 61.0699 10.2261 63.6939 10.0382 65.4127C9.34293 71.7704 18.5076 70.0042 23.0508 69.9894L23.1155 66.2802C21.4394 66.262 13.9684 66.5846 13.0848 65.9497L13.1625 65.1908C13.5833 63.9616 13.8395 63.0365 14.1482 61.7741L28.5265 61.7742L28.5472 74.489C24.1269 74.4942 11.275 75.3132 7.98672 73.5114C6.40887 72.6468 5.33659 71.1308 4.85122 69.4178C4.00662 66.437 3.96578 60.8418 5.52002 58.0676C6.67338 56.0089 8.19588 55.1607 10.3935 54.5429Z"/><path fill="#116EA2" d="M90.0181 54.4326C91.5231 54.5256 93.7289 54.4713 95.2893 54.4834C99.0966 57.4108 106.011 64.1375 109.782 67.6132C109.705 63.2401 109.697 58.866 109.76 54.4927C111.573 54.4659 113.465 54.4912 115.284 54.4913C115.147 60.9817 115.261 67.9678 115.255 74.4858L109.565 74.4622C108.57 73.301 105.784 70.909 104.537 69.7736C101.475 67.0142 98.4549 64.21 95.4761 61.3619L95.4661 74.4764L90.0193 74.4792C89.8629 67.9833 90.0065 60.9676 90.0181 54.4326Z"/><defs><linearGradient id="gradient_0" gradientUnits="userSpaceOnUse" x1="57.038731" y1="21.600647" x2="71.230217" y2="26.846191"><stop offset="0" stop-color="#35347C"/><stop offset="1" stop-color="#5A8EB2"/></linearGradient></defs><path fill="url(#gradient_0)" d="M67.4277 10.0434C68.9892 9.87095 70.8149 9.89198 72.2478 10.4972C73.1634 10.8153 75.2508 12.5231 75.4263 13.4995C77.614 25.6748 57.6989 25.7805 62.9484 38.9593C63.3019 39.631 63.6756 40.7415 63.9501 41.4825C60.8445 38.1673 58.1856 35.3149 57.043 30.7847C54.8673 22.1582 58.3734 12.5715 67.4277 10.0434Z"/><defs><linearGradient id="gradient_1" gradientUnits="userSpaceOnUse" x1="88.600357" y1="12.245012" x2="77.098732" y2="22.141802"><stop offset="0" stop-color="#34357C"/><stop offset="1" stop-color="#5489AE"/></linearGradient></defs><path fill="url(#gradient_1)" d="M74.1603 6.84476C81.012 5.14857 90.5954 11.4237 92.9588 17.7997C94.9051 23.0505 94.5774 29.3902 88.7817 31.7518C78.2594 33.4065 81.1557 16.7462 76.9251 11.5361C74.491 8.5383 70.9435 8.38281 67.4934 7.93662C69.7744 7.51599 71.8582 7.14525 74.1603 6.84476Z"/><defs><linearGradient id="gradient_2" gradientUnits="userSpaceOnUse" x1="80.409431" y1="44.0331" x2="78.858025" y2="32.163811"><stop offset="0" stop-color="#31337A"/><stop offset="1" stop-color="#507AA7"/></linearGradient></defs><path fill="url(#gradient_2)" d="M78.8961 32.3982C86.4787 35.0592 90.5188 35.5926 94.8766 27.9258C93.7025 33.8014 91.6326 38.1792 86.4389 41.7981C80.3763 46.0224 70.3253 46.7004 65.4813 40.1904C64.6661 39.0949 64.0137 37.3423 63.9864 35.9577C63.4672 28.1787 74.6184 29.7799 78.8961 32.3982Z"/><defs><linearGradient id="gradient_3" gradientUnits="userSpaceOnUse" x1="72.905266" y1="35.766853" x2="72.803459" y2="30.664143"><stop offset="0" stop-color="#456FA4"/><stop offset="1" stop-color="#5C8CB3"/></linearGradient></defs><path fill="url(#gradient_3)" d="M63.9864 35.9577C63.4672 28.1787 74.6184 29.7799 78.8961 32.3982C79.481 33.3635 81.0495 33.2847 81.3061 33.9391C78.7703 36.0907 72.2523 36.213 69.0025 36.1063C67.4547 36.0555 65.9527 34.9484 64.447 34.9714C64.3686 35.1477 64.0739 35.8419 63.9864 35.9577Z"/><path fill="#116EA2" d="M79.8268 54.3753C81.106 54.5208 83.8321 54.4705 85.2179 54.4844C85.2551 61.1357 85.2583 67.7871 85.2274 74.4384C83.591 74.5369 81.415 74.4679 79.7387 74.4623C79.728 67.8997 79.6037 60.9016 79.8268 54.3753Z"/><path fill="#294E5D" d="M151.622 54.686C153.854 53.8931 156.309 55.0399 157.134 57.2606C157.958 59.4813 156.846 61.9525 154.638 62.8086C153.26 63.3424 151.706 63.1376 150.513 62.2652C149.321 61.3928 148.656 59.9731 148.748 58.4986C148.856 56.7669 149.987 55.2668 151.622 54.686Z"/><path fill="#E3FCFE" d="M152.253 55.3606C153.916 53.1074 159.411 59.5001 155.185 61.5407C154.138 62.1251 152.243 62.8948 151.169 61.9716C148.638 60.0166 148.9 56.1833 152.253 55.3606Z"/><path fill="#FBF9FB" d="M152.218 56.222C153.268 56.1518 153.687 55.9167 154.291 56.9774C154.914 58.9151 153.447 58.886 154.623 60.9261C154.747 61.0487 155.141 61.4101 155.185 61.5407C154.138 62.1251 152.243 62.8948 151.169 61.9716L151.274 61.4962C152.651 60.2611 151.684 58.3046 152.218 56.222Z"/><path fill="#294E5D" d="M154.623 60.9261C154.326 60.9407 154.111 60.7696 153.843 60.6142C153.109 59.3678 153.218 57.9806 154.291 56.9774C154.914 58.9151 153.447 58.886 154.623 60.9261Z"/><path fill="#294E5D" d="M151.996 56.2794L152.218 56.222C151.684 58.3046 152.651 60.2611 151.274 61.4962C150.934 60.3405 151.047 57.2105 151.996 56.2794Z"/><path fill="#535E90" d="M74.7753 22.9646C75.5491 22.7271 76.3858 22.8094 77.0985 23.193C77.8113 23.5767 78.3407 24.2298 78.5686 25.0065C78.8069 25.8187 78.6943 26.6936 78.258 27.419C77.8218 28.1444 77.1018 28.654 76.2727 28.8243C74.6897 29.1494 73.1305 28.174 72.7304 26.6083C72.3304 25.0427 73.2304 23.4388 74.7753 22.9646Z"/><path fill="#697C9F" d="M76.0471 26.3809C75.9481 26.3784 78.1105 25.1563 78.5686 25.0065C78.8069 25.8187 78.6943 26.6936 78.258 27.419C77.8218 28.1444 77.1018 28.654 76.2727 28.8243C76.0153 27.8952 75.7929 27.3299 76.0471 26.3809Z"/><path fill="#738BAF" d="M74.7753 22.9646C75.5491 22.7271 76.3858 22.8094 77.0985 23.193C77.8113 23.5767 78.3407 24.2298 78.5686 25.0065C78.1105 25.1563 75.9481 26.3784 76.0471 26.3809C75.7675 24.9868 75.6726 24.0647 74.7753 22.9646Z"/><path fill="#0F1011" d="M82.347 79.6714C85.9611 79.7357 89.1234 80.2701 86.9888 84.6204C85.4062 85.4779 84.1293 85.3439 82.3453 85.3605C82.2321 83.5386 82.3133 81.5116 82.347 79.6714Z"/><path fill="#FBF9FB" d="M83.3439 80.2964C86.0396 80.5778 88.2724 81.3837 86.0507 84.2949C84.7971 84.6021 84.2827 84.9335 83.2389 84.0696C82.7307 83.0376 83.1211 81.4468 83.3439 80.2964Z"/><path fill="#0F1011" d="M131.033 79.9126C132.002 79.4918 133.124 79.6344 133.958 80.2844C134.791 80.9343 135.203 81.9878 135.031 83.0308C134.86 84.0737 134.132 84.9394 133.134 85.2877C131.667 85.7996 130.058 85.0595 129.493 83.6127C128.927 82.166 129.608 80.531 131.033 79.9126Z"/><path fill="#FBF9FB" d="M131.145 80.6415C131.838 80.2686 132.677 80.298 133.342 80.7185C134.007 81.139 134.393 81.8852 134.352 82.6705C134.312 83.4559 133.851 84.1584 133.146 84.5082C132.082 85.0369 130.79 84.6144 130.244 83.559C129.698 82.5035 130.099 81.205 131.145 80.6415Z"/><path fill="#0F1011" d="M120.635 79.6901C122.191 79.393 123.695 80.4059 124.005 81.9591C124.315 83.5123 123.314 85.0248 121.763 85.3474C120.195 85.6738 118.661 84.659 118.347 83.0877C118.034 81.5163 119.061 79.9906 120.635 79.6901Z"/><path fill="#FBF9FB" d="M120.436 80.4332C121.191 80.1608 122.035 80.3223 122.636 80.8543C123.237 81.3863 123.499 82.2039 123.321 82.9864C123.142 83.7689 122.55 84.3915 121.778 84.6098C120.641 84.9313 119.453 84.2944 119.091 83.1691C118.73 82.0438 119.324 80.8343 120.436 80.4332Z"/><path fill="#0F1011" d="M52.4324 79.8439C53.406 79.4732 54.5038 79.6568 55.3038 80.3241C56.1038 80.9914 56.4813 82.0385 56.2913 83.0628C56.1012 84.087 55.3731 84.929 54.387 85.2648C52.8994 85.7715 51.2801 84.9928 50.7471 83.5144C50.214 82.0361 50.9638 80.4032 52.4324 79.8439Z"/><path fill="#FBF9FB" d="M52.5171 80.6339C53.5427 80.1022 54.8051 80.4886 55.3573 81.5033C55.9096 82.5179 55.5486 83.7879 54.5453 84.3604C53.878 84.7411 53.0572 84.7314 52.3991 84.3351C51.741 83.9388 51.3486 83.2177 51.3731 82.4499C51.3975 81.6821 51.8351 80.9875 52.5171 80.6339Z"/><path fill="#0F1011" d="M33.9577 63.872C34.8163 63.5589 35.777 63.7317 36.4727 64.3243C37.1685 64.9169 37.4919 65.8378 37.3194 66.7353C37.147 67.6328 36.5053 68.3683 35.6394 68.6608C34.3227 69.1056 32.8931 68.4086 32.4326 67.0973C31.9721 65.786 32.652 64.3482 33.9577 63.872Z"/><path fill="#0F1011" d="M59.1245 83.5576L57.8133 84.9028L57.4006 84.8814C57.6547 82.9462 57.1566 80.7599 58.4073 79.5427C59.5146 79.1869 61.4147 80.055 61.9528 81.0598C62.2076 82.5003 60.8834 82.2949 61.4967 84.9842L61.2611 85.0454C60.6937 84.4768 60.0678 83.875 59.5222 83.2943L59.1245 83.5576Z"/><defs><linearGradient id="gradient_4" gradientUnits="userSpaceOnUse" x1="59.852489" y1="80.923645" x2="59.096073" y2="82.424423"><stop offset="0" stop-color="#F4F7F2"/><stop offset="1" stop-color="#FCF2FF"/></linearGradient></defs><path fill="url(#gradient_4)" d="M59.1245 83.5576C58.4967 82.8063 58.3624 82.6413 58.1792 81.6847C58.4195 80.8056 58.2284 81.0613 58.9425 80.5414C59.7883 80.4216 59.9654 80.4041 60.7359 80.7649C61.2474 81.432 61.1478 81.1379 61.1062 81.9814C60.6608 82.7516 60.3192 82.8789 59.5222 83.2943L59.1245 83.5576Z"/><path fill="#0F1011" d="M137.467 79.7842C140.778 79.3913 142.351 79.6785 143.801 82.541C144.178 82.0473 145.353 80.4309 145.861 80.3925C144.246 83.8733 144.342 83.1488 143.951 86.8596C143.487 84.8192 143.584 81.7099 141.608 80.4125C141.191 80.1388 140.747 80.415 140.268 80.5635C139.181 80.4826 138.501 80.2663 137.488 80.6769C135.828 81.9992 136.8 84.6046 138.65 84.8516C139.774 84.4956 140.056 83.6826 140.81 82.5911L140.999 82.7699C140.826 83.5768 140.755 84.0289 140.386 84.7663C136.397 87.3473 134.429 82.0903 137.467 79.7842Z"/><path fill="#0F1011" d="M72.4264 79.6602C72.683 79.8764 72.6234 79.8814 72.7497 80.2447C72.3351 81.5814 71.4415 84.2556 70.6802 85.3596L70.2905 85.2278C69.8993 83.9674 69.8845 84.2656 69.3867 83.3388C69.24 83.0658 68.7017 80.9347 68.5821 80.4695C68.3573 81.2894 68.1255 82.1073 67.8865 82.9231C67.6049 83.8731 67.4979 84.4663 66.6543 84.9245C65.9032 84.464 65.4654 82.5939 65.2715 81.7592C65.0417 81.1042 64.9389 80.8795 64.9759 80.1752L65.2866 80.1755C66.114 81.8259 66.1738 82.5856 66.4383 84.4266C66.8768 83.3063 67.6578 80.3422 69.03 80.4958C69.9578 81.5713 70.1146 83.5953 70.3523 85.0333C70.975 83.1522 71.4943 81.4212 72.4264 79.6602Z"/><path fill="#0F1011" d="M15.4577 79.725C17.1244 79.6328 17.5374 79.5251 19.0472 80.2845L19.0645 80.5782C17.8827 81.0344 17.136 80.0111 16.0187 80.6388C15.7727 81.4472 15.8973 81.7496 16.116 82.5722C16.7278 83.2212 16.4434 83.0731 17.3425 83.1871C18.5846 82.7796 18.8348 82.1836 19.527 81.0475L19.8382 81.0897L19.9588 81.9143C19.4667 82.4736 19.3152 82.6418 18.9875 83.3103C19.1307 84.125 19.2036 84.3052 19.5721 85.0465C18.7597 85.303 18.435 84.0111 17.1961 83.9262C16.1636 83.8555 16.1346 84.7202 15.4055 84.702C15.1433 83.4093 15.0464 80.9752 15.4577 79.725Z"/><path fill="#0F1011" d="M112.217 79.7774C113.959 80.0433 115.279 82.8733 116.114 84.3254C116.168 83.3894 116.23 81.041 116.579 80.2924C116.606 80.3659 116.632 80.4397 116.657 80.5141C116.993 81.5237 117.23 84.6127 116.726 85.6176C115.958 84.8433 114.276 81.74 113.071 81.772C112.634 82.7058 113.437 83.6364 113.136 84.8294L112.754 84.9569C112.148 84.1168 112.403 81.3063 112.217 79.7774Z"/><path fill="#0F1011" d="M76.1689 79.641C77.3356 80.0843 79.3492 83.1243 80.1277 84.2694C80.0354 83.0685 80.1461 81.2694 80.2851 80.0532L80.4577 80.0693C80.9515 82.0449 80.6151 83.2126 80.9234 85.259C79.5929 85.318 77.6786 81.8717 76.9997 80.776C76.9413 81.9583 76.9381 83.7734 76.5215 84.8176L76.326 84.4948L76.6405 84.4593L76.2695 84.1088C76.1182 82.8563 76.1693 80.9528 76.1689 79.641Z"/><path fill="#0F1011" d="M95.43 79.8269C96.3374 79.7904 98.2081 79.6047 98.9216 79.9749L98.8278 80.2897C97.8046 81.0419 96.7578 79.8627 95.75 80.9977L95.9208 81.529C96.6442 82.1745 97.49 82.3432 98.4151 82.6081C97.223 82.6551 96.5084 82.6321 95.6246 83.4215L95.5655 83.4746C95.9634 84.6325 97.6727 84.5455 98.9482 85.1179C98.3502 85.3674 96.026 85.3476 95.241 85.3651C95.197 83.6302 95.1412 81.8957 95.0734 80.1615L95.43 79.8269Z"/><path fill="#0F1011" d="M34.2118 79.7513C34.7501 79.7657 37.5084 79.7759 37.7847 79.9416C36.8436 80.2778 34.8363 80.6855 34.8405 81.759C35.643 81.9658 36.4416 82.1879 37.2358 82.4249L37.2946 82.6634C36.7857 82.7381 35.3186 82.7281 34.7365 82.7392C34.7364 85.3798 36.1525 84.1385 37.6043 84.6591L37.6996 85.117C36.9867 85.5857 35.0049 85.4232 34.3451 84.7213C33.9063 83.4607 34.166 81.1917 34.2118 79.7513Z"/><path fill="#0F1011" d="M10.209 79.8091C11.5513 79.7276 12.2689 79.61 13.5291 80.1041L13.5837 80.326C12.396 80.3891 11.4942 80.3238 10.6139 81.0448L10.6927 81.6286C11.416 82.3376 11.9349 82.0543 13.2087 82.3805L13.0869 82.6724C11.4245 82.703 11.323 82.5334 10.5044 83.9054C11.5487 84.8755 11.9342 84.1379 13.7082 84.956L13.7271 85.1639C12.9476 85.1588 11.1689 85.3837 10.3269 85.4698C10.1189 84.0522 9.9187 81.183 10.209 79.8091Z"/><path fill="#0F1011" d="M40.4381 79.7378C41.4162 79.7475 41.8083 79.6486 42.428 80.1844C41.7609 80.7162 40.8989 80.4139 39.9405 80.7936C40.2098 81.5002 42.0618 82.8714 42.8272 83.6663C43.0399 84.4753 43.0853 84.2026 42.7725 84.9308C42.1912 85.1683 41.957 85.2613 41.3311 85.3913C40.38 85.3309 39.589 85.3965 38.9952 84.5836C39.8644 84.1085 41.0653 84.8393 42.2389 84.1063C41.8638 82.8861 39.1809 82.8067 39.0101 80.94C39.417 80.1903 39.6596 80.1068 40.4381 79.7378Z"/><path fill="#0F1011" d="M106.254 79.6686C107.216 80.72 106.467 80.6447 107.075 81.8258C111.623 83.8821 109.288 81.1855 110.391 79.8354C111.054 80.5419 110.972 84.6754 110.391 85.4098C110.116 84.4027 110.382 83.7547 109.755 83.0498C109.118 82.9226 107.541 82.4964 107.051 82.7435C106.88 83.6403 106.734 84.3865 106.486 85.2727C105.793 84.4464 106.099 80.7934 106.254 79.6686Z"/><path fill="#0F1011" d="M6.44872 79.7603C7.25189 79.7294 7.429 79.7313 8.19588 79.9675L8.23631 80.1957C7.57463 80.3569 6.33979 80.557 5.92288 81.0118C6.09433 81.6976 8.05383 82.9216 8.76846 83.4482C9.1191 84.2023 9.14514 83.9611 8.90544 84.627C8.20237 85.0807 7.98997 85.155 7.19037 85.4081C6.38143 85.3461 6.10727 85.3433 5.36289 85.0259L5.25078 84.623C6.03835 84.0041 6.76474 85.1754 8.21425 84.2076C7.87845 83.0075 5.44737 82.828 5.03615 81.0463C5.52096 80.1396 5.45107 80.3722 6.44872 79.7603Z"/><path fill="#0F1011" d="M102.078 79.8292C102.719 79.791 104.607 80.0768 104.55 80.0837C103.138 80.3877 99.4558 81.1835 100.931 83.3848C101.903 84.8351 102.582 84.8062 104.172 84.4816L104.498 84.3696L104.627 84.6902C101.454 87.6487 97.5946 81.3855 102.078 79.8292Z"/><path fill="#0F1011" d="M30.2861 79.5068C31.0406 79.6737 31.6257 79.7643 32.2295 80.2727L32.2684 80.1403L32.4983 80.3219C26.3047 80.6809 29.2879 85.1587 31.2192 84.6034C31.6865 84.3931 31.8433 84.3914 32.3566 84.3425L32.4397 84.6982C32.3551 84.7766 32.2646 84.8483 32.1691 84.9129C29.3373 86.8393 25.6434 82.6611 30.2861 79.5068Z"/><path fill="#0F1011" d="M20.3113 79.6292C21.5138 80.138 22.6281 83.6722 23.0661 84.846C23.5195 82.998 23.8356 81.8852 24.702 80.1897L25.0817 80.1923L24.9064 81.0688C24.77 81.5796 24.622 82.0871 24.4624 82.5912C24.0948 83.751 23.9269 84.4312 22.8338 84.9975C21.0704 84.1204 21.6124 82.3313 20.572 80.965C20.4127 80.7558 20.2835 80.5971 20.1367 80.3745L20.3113 79.6292Z"/><path fill="#0F1011" d="M49.5234 79.7038L49.6314 79.7378L49.7957 80.1158C49.0312 80.9208 47.9215 80.0138 46.66 81.0698C46.6469 81.6839 46.6097 81.4545 46.9447 82.0504C47.6708 82.1525 48.3956 82.2644 49.1187 82.3859L49.1053 82.715C48.5471 83.1412 47.7636 82.9708 47.0529 82.9015C47.0202 83.7562 46.9747 84.0521 46.7754 84.8845L46.5102 84.9675C46.0827 83.1317 46.1311 81.6709 46.2781 79.8086L49.5234 79.7038Z"/><path fill="#0F1011" d="M89.8963 79.8049C91.0349 79.7598 92.1714 79.6928 93.3085 79.7663C93.5761 80.2543 93.2854 80.537 93.0479 81.0956C92.5711 82.2168 92.6266 83.1023 92.7067 84.3122C92.7316 84.9075 92.7776 84.6826 92.4241 85.2387L92.1522 85.0129C91.7652 84.0726 92.0128 82.3391 92.056 81.2085C91.5995 80.4161 91.0258 80.6024 89.8963 79.8049Z"/><path fill="#0F1011" d="M125.319 79.8253L125.879 80.1128C126.394 81.4108 125.687 82.8987 126.017 83.9675C126.44 85.336 127.669 83.922 128.985 85.131C127.994 85.6878 126.337 85.3327 125.218 85.2123C125.188 83.5242 125.282 81.536 125.319 79.8253Z"/><path fill="#0F1011" d="M74.122 79.6356L74.3999 79.7866C74.8199 80.5223 74.6361 84.0108 74.6511 85.1858C74.1651 85.2129 74.3406 85.2448 73.8962 84.9478C73.5202 83.0711 73.8022 81.5064 74.122 79.6356Z"/><path fill="#0F1011" d="M26.224 79.6704C26.4428 79.7569 26.6434 79.9592 26.8269 80.1181C27.021 81.4907 27.0423 84.0114 26.7309 85.3442L26.3821 85.0402C26.0774 83.9167 26.1862 80.9525 26.224 79.6704Z"/></svg>