<?xml version="1.0" encoding="utf-8" ?><svg xmlns="http://www.w3.org/2000/svg" xmlns:xlink="http://www.w3.org/1999/xlink" width="521" height="179" viewBox="0 0 521 179"><path fill="#002E5E" d="M127.634 11.2946C130.402 10.9721 135.585 11.1676 139.412 11.3448C149.724 11.822 169.702 19.8411 177.239 25.5673C180.19 27.809 178 47.4957 177.521 52.3544C176.072 67.0631 172.276 83.2876 167.112 97.2578C166.362 99.3346 164.796 104.336 163.193 105.648C160.652 105.191 152.869 89.1322 150.316 85.7884C146.978 81.4156 144.399 77.4891 140.488 73.289C131.983 64.5434 124.33 57.4988 112.036 54.2631C100.133 51.1299 88.0806 53.5173 77.1406 58.7546C74.1337 60.1941 70.0615 62.8479 67.0904 64.6401C67.4799 54.7817 73.7389 44.2929 79.8807 36.851C91.1057 23.2497 109.912 12.9139 127.634 11.2946Z"/><path fill="#5D6770" d="M273.806 88.1782C274.491 85.5872 275.421 83.3903 276.206 80.8665C278.37 73.6548 280.658 66.4806 283.068 59.347C283.833 57.0151 286.451 48.2642 287.259 46.7339C289.89 45.557 305.321 46.1248 308.973 46.3201C307.09 49.8654 303.909 58.9262 302.375 62.9952C299.778 70.4636 296.25 79.1197 293.412 86.69L288.456 99.6011C287.415 102.365 284.782 110.397 282.877 112.241C280.668 113.154 274.945 112.542 272.264 112.609C269.121 112.686 264.913 113.733 263.665 110.171C259.694 98.8341 256.157 87.5253 251.788 76.3298C249.397 81.946 240.687 109.811 238.002 112.165C236.732 113.277 222.235 112.668 219.72 112.591C219.045 109.96 217.38 106.011 216.329 103.334C214.457 98.5906 212.614 93.8357 210.801 89.0697C207.002 79.0046 203.124 68.9698 199.166 58.9664C197.698 55.2639 195.81 49.7518 194.174 46.3633L198.965 46.1348C204.428 46.017 210.857 45.9607 216.269 46.2774C219.172 55.626 223.122 64.9521 225.991 74.3633C227.394 78.9619 230.097 84.221 230.763 88.9674C234.149 79.6491 237.426 70.2916 240.594 60.8969C242.263 56.0744 244.272 51.2049 245.683 46.3037C250.763 46.0913 254.417 46.0202 259.476 46.3156C260.96 49.9364 261.922 53.8354 263.349 57.4384C267.324 67.4762 270.176 78.0634 273.806 88.1782Z"/><path fill="#5D6770" d="M349.214 46.0753C354.171 46.061 360.366 45.9011 365.184 46.3522L393.88 71.2005C399.964 76.4719 406.691 82.1048 412.575 87.5263C412.105 84.3643 412.283 75.0754 412.28 71.4187L412.075 46.0753L431.963 46.0597L431.93 90.5148C431.93 97.6772 432.073 105.376 431.816 112.469C430.95 112.918 417.521 112.964 415.953 112.098C414.859 111.494 411.403 108.293 410.218 107.251L401.252 99.4638C390.437 90.0828 378.936 80.4205 368.455 70.7496C368.968 77.0932 368.661 84.4507 368.725 90.8838C368.797 98.1581 368.965 105.511 368.895 112.769C362.877 112.403 355.519 112.716 349.321 112.641C348.701 97.9017 349.157 80.0434 349.167 65.1199C349.162 61.0044 349.136 56.8891 349.087 52.7739C349.074 51.1432 348.963 47.4675 349.214 46.0753Z"/><path fill="#5D6770" d="M316.151 46.0542C322.962 46.2556 329.737 45.948 336.687 46.2621C336.558 61.3281 336.523 76.3947 336.581 91.4611C336.583 94.117 336.951 110.834 336.407 112.328C334.279 112.929 319.617 112.664 316.28 112.655C315.723 99.77 316.155 84.0777 316.151 71.0173L316.094 55.0204C316.079 52.5951 315.933 48.3567 316.151 46.0542Z"/><path fill="#00A878" d="M402.231 120.116C405.084 119.949 411.377 119.849 413.701 121.641C417.561 124.619 418.102 136.495 415.43 140.443C413.79 142.866 409.37 143.614 406.582 143.885C403.385 144.047 397.62 144.33 395.237 141.995C390.705 137.554 390.389 127.306 394.477 122.491C396.565 120.033 399.323 120.219 402.231 120.116ZM396.831 135.659C399.872 139.274 402.602 139.885 407.25 138.961C409.618 138.447 410.659 137.484 412.223 135.716C412.542 130.276 413.303 128.284 408.65 124.785C406.115 124.676 404.182 124.625 401.654 124.735C399.364 124.808 398.078 126.821 396.832 128.498C396.506 131.126 396.524 133.019 396.831 135.659Z"/><path fill="#00A878" d="M321.69 120.121C324.279 119.911 328.034 120.184 330.658 120.329C331.06 123.428 330.957 126.944 330.96 130.095L330.958 143.836C329.606 143.889 327.638 143.752 326.243 143.696C326.149 141.571 326.111 139.838 326.166 137.711C323.352 137.881 319.141 137.752 316.221 137.756L312.666 137.728C312.231 140.432 311.964 140.985 311.85 143.84C310.89 143.81 307.916 143.844 307.294 143.427C306.99 142.058 307.978 140.915 307.932 140.629C305.832 127.745 307.345 120.786 321.69 120.121ZM314.036 127.176C312.693 129.795 312.577 130.319 312.485 133.255L318.375 133.248C320.92 133.241 323.642 133.133 326.137 133.482L326.089 124.81C324.15 124.921 322.129 124.853 320.302 124.972C317.488 125.114 316.442 125.72 314.036 127.176Z"/><path fill="#00A878" d="M429.437 120.126C432.57 119.862 437.77 119.883 440.832 120.663C445.069 121.742 444.167 128.899 443.253 131.954C442.53 134.367 439.53 135.487 437.348 136.425C439.343 138.158 443.676 141.547 445.11 143.379C442.351 143.742 440.406 143.805 437.669 143.602C433.7 140.506 432.38 137.137 427.096 136.192C424.869 135.793 426.176 132.902 426.749 131.42C427.758 131.294 428.843 131.272 429.863 131.228L436.806 131.219C445.764 122.719 429.503 125.286 425.719 124.836C425.631 131.715 425.626 136.895 425.932 143.822C424.555 143.889 421.737 143.74 420.277 143.705C420.277 140.332 419.793 122.7 421.034 120.862C422.775 119.951 427.118 120.244 429.437 120.126Z"/><path fill="#00A878" d="M498.73 120.341C503.088 120.014 512.278 120.155 516.7 120.257L516.93 124.88C514.655 124.892 501.267 124.556 500.435 125.436C500.026 125.869 499.795 126.478 499.835 127.071C500.14 131.532 511.711 127.182 516.128 131.052C517.533 132.283 518.389 134.159 518.512 136.015C518.661 138.28 517.691 140.409 516.199 142.074C515.103 143.297 514.007 143.616 512.44 143.694L495.251 143.671C495.169 142.435 494.888 140.804 495.289 139.627C495.774 138.202 510.115 139.799 512.225 138.689C512.759 138.407 513.183 137.953 513.339 137.361C513.498 136.759 513.414 136.088 513.075 135.562C512.652 134.906 511.953 134.551 511.199 134.422C509.212 134.083 506.781 134.521 504.738 134.53C502.105 134.542 499.689 133.911 497.149 133.294C496.843 132.963 496.552 132.619 496.276 132.263C493.082 128.066 494.758 123.266 498.73 120.341Z"/><path fill="#00A878" d="M203.11 120.335C208.143 120.05 214.647 120.215 219.789 120.206L219.968 124.873C216.712 125.043 207.3 124.294 204.297 125.592C203.689 125.855 203.707 128.385 203.677 129.223C209.407 129.204 221.846 127.377 221.921 136.174C221.968 141.718 219.233 143.673 213.92 143.687L198.247 143.686C198.207 142.228 198.255 140.637 198.27 139.167C203.513 139.462 209.735 138.917 215.021 138.94C216.036 138.944 216.818 136.198 216.17 134.89C213.046 132.483 202.176 137.701 199.1 130.838C196.97 126.084 198.523 122.529 203.11 120.335Z"/><path fill="#00A878" d="M224.282 143.689C224.314 139.979 224.316 136.268 224.29 132.557C224.225 126.36 222.89 120.579 231.354 120.121C235.484 119.897 239.382 120.011 243.496 120.525C248.277 124.599 248.453 127.51 247.535 133.566C242.822 139.112 236.535 138.081 229.765 137.677C229.714 135.977 230.227 135.117 229.781 133.298C233.578 133.227 241.604 134.886 242.462 130.415C243.997 122.42 234.584 125.214 229.709 124.898C229.679 126.532 229.699 128.215 229.696 129.854C229.429 132.647 229.126 135.031 229.46 137.84C229.644 139.839 229.797 141.841 229.921 143.844L224.282 143.689Z"/><path fill="#00A878" d="M271.904 143.771C268.627 143.677 265.349 143.654 262.072 143.702C256.325 143.821 250.881 145.017 250.332 137.159C250.118 134.09 249.467 122.926 251.194 120.842C252.885 119.809 268.721 120.215 271.788 120.219L271.922 124.906C266.819 124.918 260.907 125.121 255.901 124.928L255.771 125.446C255.405 129.315 255.04 132.206 255.595 136.113C255.521 139.092 257.548 139.221 259.884 139.163C263.851 139.063 267.83 139.085 271.798 139.099C271.927 140.546 271.894 142.295 271.904 143.771Z"/><path fill="#00A878" d="M474.549 143.606C474.485 143.555 474.423 143.503 474.36 143.449C472.478 141.829 471.361 140.247 471.2 137.716C471.08 135.82 471.292 133.876 471.281 131.971C471.263 129.037 470.961 125.938 471.257 123.023C471.326 122.344 471.409 121.501 471.898 120.989C473.22 119.605 489.935 120.214 492.785 120.217L492.933 124.871C489.72 124.975 479.337 125.138 476.661 124.848C476.437 127.646 476.033 132.077 476.538 134.724C476.478 135.288 476.705 138.478 476.747 139.233C481.841 138.902 487.541 139.155 492.735 139.019C492.882 140.578 492.907 142.206 492.956 143.776C486.85 143.608 480.575 143.872 474.549 143.606Z"/><path fill="#00A878" d="M277.684 120.292C283.008 120.01 290.366 120.227 295.815 120.247C295.947 121.778 295.924 123.351 295.926 124.891C293.611 125.063 281.897 125.029 279.697 124.849C279.768 127.293 278.962 136.585 280.651 138.792C281.079 139.352 285.669 139.11 286.927 139.081C289.917 139.088 292.907 139.076 295.897 139.046C295.977 140.585 295.941 142.25 295.937 143.8C290.536 143.565 285.387 143.759 279.939 143.834C272.739 143.533 274.477 133.923 274.269 129.195C274.085 125.028 274.717 122.942 277.684 120.292Z"/><path fill="#00A878" d="M467.365 120.17C467.533 120.17 467.724 120.361 467.896 120.485C468.145 121.524 468.044 123.828 468.032 124.996C462.546 125.075 457.78 124.816 452.106 125.119C451.738 128.408 451.782 131.778 451.697 135.087C451.645 137.078 452.305 138.991 454.572 139.19C456.033 139.319 457.522 139.159 458.991 139.132L468.003 139.014C468.035 140.555 467.974 142.235 467.947 143.787L464.334 143.71C459.719 143.634 455.106 143.812 450.483 143.606C445.097 139.144 445.994 131.823 447.038 125.531C447.466 122.952 448.504 121.66 450.685 120.29C455.775 120.049 462.107 120.223 467.365 120.17Z"/><path fill="#00A878" d="M335.271 120.217L339.74 120.206L339.732 139.108C344.84 139.309 351.515 139.095 356.742 139.115C356.878 140.555 356.882 142.28 356.921 143.747C356.806 143.76 356.693 143.774 356.577 143.775C354.205 143.802 336.943 144.065 336.056 143.128C334.609 141.602 335.261 123.41 335.271 120.217Z"/><path fill="#00A878" d="M369.267 143.709C369.255 140.511 368.618 122.18 370.128 120.715C372.327 119.908 387.599 120.207 390.74 120.265C390.839 121.792 390.876 123.322 390.85 124.851C387.04 125.063 383.076 124.766 379.248 124.888C377.514 124.944 375.681 125.016 373.954 124.927L373.795 125.261C373.493 128.616 373.478 138.535 373.922 141.973C373.854 143.044 374.006 142.809 373.493 143.606C372.411 144.127 370.597 143.793 369.267 143.709Z"/><path fill="#00A878" d="M299.199 120.212L303.881 120.226C304.284 127.005 303.978 136.848 303.971 143.815C303.151 143.917 300.173 143.763 299.197 143.733C299.24 135.893 299.241 128.052 299.199 120.212Z"/><path fill="#00A878" d="M374.429 129.416C379.196 129.244 383.965 129.165 388.735 129.178C388.812 130.977 388.907 132.971 388.88 134.766C384.253 134.713 379.007 134.751 374.441 134.46C374.668 132.798 374.768 131.066 374.429 129.416Z"/><path fill="#00A878" d="M476.92 129.299L490.748 129.209C490.783 131.056 490.833 132.903 490.898 134.749C486.28 134.69 481.424 134.552 476.824 134.59C476.678 133.552 476.992 130.691 476.92 129.299Z"/><path fill="#00A878" d="M256.87 129.272C261.068 129.411 265.518 129.189 269.761 129.239C269.856 130.982 270.009 132.936 269.939 134.664C266.891 134.731 258.817 134.78 255.962 134.431C256.68 132.51 255.92 130.273 256.87 129.272Z"/><path fill="#00A878" fill-opacity="0.011764706" d="M373.795 125.261C374.3 126.871 373.812 128.924 374.429 129.416C374.768 131.066 374.668 132.798 374.441 134.46L374.117 134.758C374.076 136.346 374.145 140.748 373.922 141.973C373.478 138.535 373.493 128.616 373.795 125.261Z"/><path fill="#00A878" fill-opacity="0.011764706" d="M255.771 125.446C256.124 126.89 255.87 128.293 256.227 129C256.35 129.049 256.789 129.212 256.87 129.272C255.92 130.273 256.68 132.51 255.962 134.431C255.673 135.069 255.669 135.416 255.595 136.113C255.04 132.206 255.405 129.315 255.771 125.446Z"/><path fill="#00A878" fill-opacity="0.20784314" d="M476.661 124.848C476.819 125.891 476.694 129.017 476.92 129.299C476.992 130.691 476.678 133.552 476.824 134.59L476.538 134.724C476.033 132.077 476.437 127.646 476.661 124.848Z"/><path fill="#00A878" fill-opacity="0.28627452" d="M229.46 137.84C229.126 135.031 229.429 132.647 229.696 129.854C229.734 130.373 229.734 133.132 229.781 133.298C230.227 135.117 229.714 135.977 229.765 137.677L229.46 137.84Z"/><defs><linearGradient id="gradient_0" gradientUnits="userSpaceOnUse" x1="122.71217" y1="61.661716" x2="91.550209" y2="180.04825"><stop offset="0" stop-color="#004B63"/><stop offset="1" stop-color="#00A375"/></linearGradient></defs><path fill="url(#gradient_0)" d="M50.515 153.385C55.2032 151.65 60.0442 150.329 64.7187 148.578C73.556 145.267 82.1031 140.866 89.7379 135.319C92.7096 133.31 94.9721 130.641 97.5782 128.262C108.403 118.38 113.794 105.063 113.351 90.4964C113.096 82.1177 112.29 78.4781 109.307 70.5835C107.969 67.0418 103.664 59.652 103.254 56.7727L103.545 56.299C104.344 56.1471 105.9 56.7623 106.781 57.0428C113.269 59.0533 119.428 62.0023 125.061 65.796C143.866 78.603 165.7 110.073 149.137 131.938C138.171 146.415 121.309 162.93 105.492 171.899C102.242 173.701 98.8919 175.315 95.457 176.733C94.3432 177.201 90.8066 178.569 90.0465 179L84.4732 179C70.9864 172.558 60.7158 164.322 50.515 153.385Z"/><path fill="#5D6770" d="M444.283 46.2557C457.617 45.8987 471.069 46.1395 484.424 46.0693C492.332 46.0277 500.417 46.03 508.325 46.1562C509.767 46.1792 512.808 46.7466 514.156 47.3244C519.087 49.439 519.183 51.91 521 56.2382L521 102.44C519.967 104.064 519.718 106.091 518.344 107.691C515.546 110.95 510.489 111.859 506.399 112.298C499.699 113.016 492.804 112.789 486.074 112.763C479.294 112.658 472.477 112.789 465.718 112.279C463.603 112.119 461.498 111.952 459.376 111.908C456.933 111.841 454.488 111.918 452.054 112.137C450.052 112.337 446.318 113.245 444.762 112.033C443.976 110.452 444.401 53.0369 444.283 46.2557ZM465.572 96.2805C469.22 96.2579 498.165 96.6583 500.002 96.1337C500.094 95.9782 500.253 95.7737 500.253 95.6235L500.261 73.3668C500.262 70.2059 500.095 64.579 500.368 61.5704L476.047 61.6283C474.174 61.6323 466.881 61.7758 465.534 61.5611C465.887 68.2422 465.416 76.1936 465.586 83.0136C465.634 84.9379 465.778 94.8011 465.572 96.2805Z"/><defs><linearGradient id="gradient_1" gradientUnits="userSpaceOnUse" x1="109.9454" y1="97.650185" x2="10.08145" y2="91.859299"><stop offset="0" stop-color="#003261"/><stop offset="1" stop-color="#009D74"/></linearGradient></defs><path fill="url(#gradient_1)" d="M0 25.7716C4.98809 23.3767 10.0523 21.5325 14.9116 19.2583C14.7397 23.8758 14.6952 28.1234 15.1592 32.7204C15.4856 35.9546 16.2496 39.5009 16.5183 42.645C18.1912 49.1166 19.4116 54.6221 22.125 60.6081C36.261 91.793 72.8695 119.51 105.714 95.2263C107.142 94.1709 110.019 92.3135 111.624 91.5726C110.094 96.3022 109.82 99.0828 107.544 104.051C101.15 118.489 89.5839 130.25 75.6114 137.424C67.1328 141.777 52.018 146.154 42.6311 142.789C25.3059 136.577 17.1394 114.488 11.4579 99.1891L11.2186 98.1992L10.5523 95.8765C7.86197 87.1369 5.77902 78.2219 4.3183 69.1953C3.22941 62.6721 2.32374 56.1196 1.60237 49.5456C1.33268 46.9865 1.30718 39.7494 0 37.8314L0 25.7716Z"/><path fill="#00A878" d="M0 25.7716C4.98809 23.3767 10.0523 21.5325 14.9116 19.2583C14.7397 23.8758 14.6952 28.1234 15.1592 32.7204C15.4856 35.9546 16.2496 39.5009 16.5183 42.645L16.3627 44.6766L15.7625 43.5246C14.8666 44.0665 15.9782 44.097 14.5155 44.1996C13.9938 43.7738 13.9273 43.65 13.5641 43.0841C13.2243 43.6203 13.2711 43.7864 13.3097 44.4151C13.803 45.0614 13.9484 45.225 14.203 45.9888L14.115 46.6373L13.1707 46.6208C11.9811 47.842 11.6664 79.7989 11.556 84.1451C11.526 85.3245 10.8307 86.9445 10.8693 87.4836C10.9747 88.9569 11.5753 94.2622 11.1614 95.517L10.5523 95.8765C7.86197 87.1369 5.77902 78.2219 4.3183 69.1953C3.22941 62.6721 2.32374 56.1196 1.60237 49.5456C1.33268 46.9865 1.30718 39.7494 0 37.8314L0 25.7716Z"/><path fill="#00A878" d="M11.2186 98.1992C11.289 97.188 11.1276 96.9246 11.7083 96.254C12.4992 96.705 12.3794 97.4886 12.2156 98.2975C11.962 98.6205 11.7556 98.9024 11.4579 99.1891L11.2186 98.1992Z"/><path fill="#002E5E" d="M72.8014 0L102.138 0C105.61 1.12723 115.353 1.18597 119.34 2.64612C120.16 2.94648 120.334 3.23946 120.635 3.92992C120.416 4.4063 119.792 4.88046 119.293 5.09784C89.1344 18.2501 43.6785 55.3206 68.8439 91.7761C70.1848 93.7186 75.0317 98.5338 75.4524 100.297L75.1407 100.492C70.3438 100.394 60.0517 95.5303 55.8721 92.815C40.6113 82.9009 28.7531 67.1002 24.4505 49.3201C22.3257 40.5394 20.3968 25.9852 25.3949 18.0313C32.1969 7.20683 48.5036 3.62027 60.2995 1.55827C64.3451 0.851073 68.3089 1.0419 72.8014 0Z"/></svg>