<?xml version="1.0" encoding="utf-8" ?><svg xmlns="http://www.w3.org/2000/svg" xmlns:xlink="http://www.w3.org/1999/xlink" width="1317" height="572" viewBox="0 0 1317 572"><path fill="white" d="M0 0L274.406 0L282.851 0L1317 0L1317 572L0 572L0 0Z"/><defs><linearGradient id="gradient_0" gradientUnits="userSpaceOnUse" x1="228.59077" y1="96.574318" x2="285.03677" y2="94.112022"><stop offset="0" stop-color="#117AD0"/><stop offset="1" stop-color="#06B9D0"/></linearGradient></defs><path fill="url(#gradient_0)" d="M274.406 0L282.851 0C282.725 9.64988 280.735 22.5922 279.661 32.642L270.902 107.793L264.889 160.973C263.934 169.417 262.706 183.817 260.685 191.541C255.675 185.887 251.106 183.453 245.585 178.72C240.405 174.279 234.9 168.877 229.934 164.138C231.827 156.29 233.988 148.004 236.204 140.239C249.425 93.9059 260.298 46.0319 274.406 0Z"/><path fill="#273C48" d="M315.159 243.209C318.964 245.584 326.813 250.979 330.282 254.006L330.366 255.692C331.617 256.751 332.26 256.682 333.851 256.81C336.373 258.195 340.054 261.298 341.823 261.501C342.483 260.438 342.485 260.398 342.501 259.122C349.82 258.179 374.895 258.712 383.15 258.789C420.165 259.135 456.989 254.787 488.304 279.042C505.394 292.472 516.457 312.141 519.062 333.727C526.197 391.026 492.371 431.721 435.412 437.542C422.716 438.839 410.949 438.509 398.225 438.506L342.51 438.477L342.541 290.854C331.616 285.262 321.246 279.24 310.087 273.876C308.682 269.27 295.253 265.698 291.937 262.199C297.688 257.843 311.723 245.313 315.159 243.209Z"/><path fill="white" d="M401.661 305.039C417.382 304.908 434.692 302.811 446.767 314.786C463.404 331.283 463.706 365.995 447.593 382.931C438.498 392.405 426.865 392.536 414.534 392.503L401.5 392.428L401.502 330.321L401.74 321.686C407.393 324.692 426.388 336.302 431.816 333.969C436.774 326.767 407.713 309.634 401.661 305.039Z"/><path fill="#1096C9" d="M315.159 243.209C318.964 245.584 326.813 250.979 330.282 254.006L330.366 255.692C331.617 256.751 332.26 256.682 333.851 256.81C336.373 258.195 340.054 261.298 341.823 261.501C342.483 260.438 342.485 260.398 342.501 259.122C342.735 261.553 342.426 262.208 344.676 263.935C363.123 278.089 383.051 291.201 401.661 305.039C407.713 309.634 436.774 326.767 431.816 333.969C426.388 336.302 407.393 324.692 401.74 321.686L401.502 330.321L401.38 321.387C381.626 312.036 362.191 300.563 342.541 290.854C331.616 285.262 321.246 279.24 310.087 273.876C308.682 269.27 295.253 265.698 291.937 262.199C297.688 257.843 311.723 245.313 315.159 243.209Z"/><defs><linearGradient id="gradient_1" gradientUnits="userSpaceOnUse" x1="1005.9522" y1="437.20789" x2="1006.3448" y2="298.97784"><stop offset="0" stop-color="#1877D1"/><stop offset="1" stop-color="#01B9D2"/></linearGradient></defs><path fill="url(#gradient_1)" d="M1025.55 328.662C1028.76 322.62 1031.78 317.286 1036.6 312.41C1054.99 293.796 1090.31 292.918 1109.05 311.424C1127.45 329.586 1124 359.284 1123.98 383.285L1123.98 438.477C1108.58 438.328 1093.18 438.375 1077.77 438.618L1077.87 387.088C1077.89 372.252 1081.71 346.382 1064.26 340.472C1043.7 333.506 1029.88 348.949 1029.21 368.534C1028.63 385.636 1028.94 402.735 1028.99 419.831L1029.04 438.459C1014.15 438.418 998.629 438.187 983.793 438.573C983.418 420.973 984.02 403.342 983.766 385.581C983.304 367.487 988.052 339.844 961.769 339.004C951.763 338.684 942.965 343.124 938.53 352.332C933.048 363.712 934.606 378.83 934.592 391.237L934.497 438.448L889.384 438.376L889.321 300.138C903.934 299.774 919.832 300.078 934.546 300.072C934.57 307.277 934.78 314.651 934.909 321.869C945.407 306.639 956.949 299.732 975.61 298.191C999.58 297.426 1016.25 306.191 1025.55 328.662Z"/><defs><linearGradient id="gradient_2" gradientUnits="userSpaceOnUse" x1="1228.5465" y1="487.52576" x2="1231.4653" y2="298.94089"><stop offset="0" stop-color="#1876D0"/><stop offset="1" stop-color="#01BAD3"/></linearGradient></defs><path fill="url(#gradient_2)" d="M1234.98 298.669C1237.35 298.438 1239.73 298.312 1242.11 298.29C1329.47 298.214 1327.88 443.422 1241.42 439.6C1222.89 438.781 1214.05 433.655 1201.34 420.596C1200.95 433.225 1201.27 447.607 1201.28 460.367L1201.25 488.054C1186.22 488.005 1171.2 488.037 1156.17 488.15L1156.09 300.03L1201.25 299.948C1201.26 305.818 1201.35 311.687 1201.54 317.554C1212.26 305.267 1219.24 301.91 1234.98 298.669Z"/><path fill="white" d="M1223.98 334.724C1241.36 333.356 1253.9 338.619 1259.05 356.109C1264.4 374.307 1258.08 396.438 1238.56 402.04C1206.28 406.648 1194.38 377.664 1205.25 350.453C1208.34 342.718 1216.18 337.331 1223.98 334.724Z"/><path fill="#273C48" d="M165.104 337.286C166.803 335.801 182.792 328.752 186.156 327.131C194.81 322.909 203.374 318.506 211.844 313.925C230.997 303.419 249.553 291.859 267.427 279.297L332.256 438.563C312.829 438.46 288.581 437.881 269.264 438.583C267.082 433.269 261.398 418.411 259.877 412.771C237.727 412.762 214.815 412.445 192.726 412.836C189.66 421.407 186.539 429.959 183.364 438.491L122.594 438.485C132.277 415.084 142.1 391.741 152.063 368.459C156.105 358.911 161.599 346.86 165.104 337.286Z"/><path fill="white" d="M226.807 319.078C229.118 321.947 242.722 363.045 245.28 370.088C239.18 370.221 232.807 370.164 226.684 370.197L208.161 370.102C214.573 353.424 220.429 335.945 226.807 319.078Z"/><defs><linearGradient id="gradient_3" gradientUnits="userSpaceOnUse" x1="790.08136" y1="438.17316" x2="789.9314" y2="299.18149"><stop offset="0" stop-color="#1877D1"/><stop offset="1" stop-color="#01B9D2"/></linearGradient></defs><path fill="url(#gradient_3)" d="M786.866 298.207C831.181 298.644 864.429 320.456 865.781 367.547C867.033 411.164 835.338 439.137 792.943 439.519C771.302 439.64 753.703 436.139 736.594 421.448C722.717 409.131 716.054 392.654 714.977 374.492C712.242 328.355 742.092 300.766 786.866 298.207Z"/><path fill="white" d="M784.961 335.36C803.241 334.487 815.495 341.94 819.34 360.941C822.932 378.692 816.125 399.53 796.165 403.274C755.883 410.478 745.361 346.637 784.961 335.36Z"/><defs><linearGradient id="gradient_4" gradientUnits="userSpaceOnUse" x1="624.76331" y1="439.56601" x2="623.7373" y2="257.38617"><stop offset="0" stop-color="#1876D1"/><stop offset="1" stop-color="#01BAD2"/></linearGradient></defs><path fill="url(#gradient_4)" d="M629.882 256.337C654.571 253.127 693.072 268.06 708.858 287.395C700.001 297.253 690.332 309.47 681.768 319.804C680.641 318.529 679.499 317.266 678.344 316.016C668.014 304.873 654.224 296.58 638.824 295.951C592.243 294.048 572.768 353.65 602.961 385.081C611.585 394.239 623.563 399.488 636.137 399.621C653.911 399.857 669.287 390.63 681.608 378.57C684.127 381.033 686.317 383.545 688.65 386.177L709.15 408.126C672.773 445.076 616.541 454.031 574.387 421.088C535.204 390.468 528.942 328.616 560.504 290.41C579.172 267.813 601.582 259.3 629.882 256.337Z"/><path fill="#1A7AC1" d="M364.736 185.854L367.353 186.357C354.534 203.765 339.943 219.795 323.815 234.189C322.01 235.812 314.993 241.356 315.159 243.209C311.723 245.313 297.688 257.843 291.937 262.199C295.253 265.698 308.682 269.27 310.087 273.876L309.251 274.167L307.827 273.037C304.579 270.426 293.678 264.957 289.589 262.847C282.703 268.34 274.742 274.357 267.427 279.297C249.553 291.859 230.997 303.419 211.844 313.925C203.374 318.506 194.81 322.909 186.156 327.131C182.792 328.752 166.803 335.801 165.104 337.286C162.163 337.43 141.619 346.16 136.458 347.738C120.66 352.795 105.7 356.967 89.2565 359.082C59.7709 362.876 20.2487 358.995 27.8779 318.63C32.0635 296.485 47.1938 276.4 61.2549 259.142C37.0208 300.47 43.2044 333.727 97.5325 331.416C117.719 330.558 135.788 325.999 154.937 319.672C161.429 317.527 170.668 315.03 176.332 311.312C182.929 294.203 191.256 275.889 198.316 258.75L259.064 258.741L262.721 267.599C266.732 265.015 275.064 259.957 278.358 257.042C276.326 255.737 269.042 252.392 267.956 250.946C264.592 246.464 265.762 228.897 265.553 222.819C265.463 220.219 266.882 214.186 266.92 210.406L266.922 209.849L267.965 209.635C272.569 211.653 301.628 232.834 305.944 236.596C311.878 236.952 357.709 192.577 364.736 185.854Z"/><path fill="#273C48" d="M198.316 258.75L259.064 258.741L262.721 267.599C251.693 274.473 186.225 311.894 176.332 311.312C182.929 294.203 191.256 275.889 198.316 258.75Z"/><defs><linearGradient id="gradient_5" gradientUnits="userSpaceOnUse" x1="9.3640299" y1="212.53839" x2="240.14998" y2="231.36899"><stop offset="0" stop-color="#1976CD"/><stop offset="1" stop-color="#01B7D2"/></linearGradient></defs><path fill="url(#gradient_5)" d="M238.19 200.373C240.553 200.004 245.903 200.178 248.539 200.203C242.115 207.034 220.552 227.05 212.976 232.908C199.594 233.175 183.272 234.521 169.685 235.35C139.627 237.46 109.55 239.308 79.4598 240.893C59.1149 242.158 37.208 243.85 16.8425 244.073C13.3002 244.208 6.83486 245.221 6.01355 240.767C9.26778 232.781 29.7269 229.196 37.6266 227.442C49.7625 224.749 62.4572 222.52 74.7072 220.375C114.575 213.177 154.684 207.391 194.96 203.03C208.991 201.611 224.023 201.196 238.19 200.373Z"/><path fill="#1096C9" d="M330.282 254.006L330.727 253.714C337.674 249.068 345.433 240.461 351.329 235.038C418.582 173.172 461.193 75.5068 320.396 106.198C318.162 106.684 311.53 109.448 309.606 109.28C314.405 106.39 323.66 103.206 329.215 101.42C355.704 92.907 385.91 84.4592 413.653 90.266C435.654 94.871 444.699 113.951 437.879 134.607C421.506 184.195 373.382 225.77 333.851 256.81C332.26 256.682 331.617 256.751 330.366 255.692L330.282 254.006Z"/><path fill="#273C48" d="M202.532 491.808C204.265 491.783 206.136 491.538 207.546 492.473C207.973 498.344 208.257 547.851 206.946 549.796C205.198 550.072 204.81 550.19 203.096 549.588C201.814 547.843 202.308 544.501 202.395 542.179C193.627 551.268 186.586 553.188 174.865 547.546C164.753 538.783 162.432 523.403 172.695 513.905C176.519 510.396 181.59 508.568 186.773 508.832C194.119 509.186 197.924 512.48 202.424 517.506C202.374 509.228 202.138 499.993 202.532 491.808Z"/><path fill="white" d="M184.303 513.504C187.555 513.288 190.337 513.485 193.362 514.87C197.229 516.644 200.204 519.919 201.6 523.938C205.054 533.732 200.23 542.484 190.545 545.642C187.078 546.262 183.624 546.026 180.391 544.539C176.632 542.792 173.756 539.578 172.435 535.648C168.756 524.986 174.203 516.86 184.303 513.504Z"/><path fill="#273C48" d="M478.041 491.835C479.717 491.802 481.388 491.575 482.781 492.471C483.19 498.379 483.463 547.88 482.169 549.8C479.983 550.001 480.247 550.301 478.515 549.449C477.486 547.429 477.825 543.619 477.852 541.199C470.901 551.734 460.242 553.15 449.669 547.116C438.786 538.598 438.362 520.975 449.644 512.614C453.846 509.508 459.114 508.211 464.277 509.012C470.826 510.055 474.289 513.223 477.935 518.241C477.909 509.439 477.944 500.637 478.041 491.835Z"/><path fill="white" d="M459.342 513.995C468.035 512.363 476.403 518.094 478.029 526.793C479.655 535.492 473.922 543.861 465.227 545.482C456.539 547.102 448.184 541.372 446.559 532.681C444.935 523.99 450.657 515.626 459.342 513.995Z"/><path fill="#273C48" d="M704.581 509.408C706.375 509.362 706.829 509.35 708.649 509.71C710.54 512.061 709.936 514.784 709.885 518.11C713.046 513.841 715.514 511.234 720.961 509.673C726.112 508.246 731.62 508.955 736.242 511.641C751.11 520.4 749.606 545.252 729.991 550.124C720.918 551.536 714.93 548.421 709.849 541.054C709.688 548.646 710.051 557.344 709.593 564.807C707.717 565.81 707.931 565.45 705.47 565.296C703.608 562.785 704.597 515.319 704.581 509.408Z"/><path fill="white" d="M722.916 513.976C731.465 512.687 739.472 518.485 740.92 527.014C742.368 535.543 736.724 543.661 728.228 545.269C722.59 546.336 716.814 544.274 713.126 539.875C709.437 535.476 708.41 529.427 710.44 524.057C712.47 518.686 717.241 514.831 722.916 513.976Z"/><path fill="#1096C9" d="M256.699 191.965C261.247 193.165 263.476 191.102 266.598 195.157C267.783 200.866 263.292 205.155 262.143 212.334C261.562 215.649 259.882 217.653 257.276 219.652C248.471 226.409 184.516 261.702 174.293 260.104C172.138 259.767 170.205 258.892 168.904 257.086C167.526 255.174 166.996 252.408 167.422 250.102C168.293 245.385 173.469 242.473 177.11 239.969C188.616 238.389 203.253 239.219 216.857 237.311C226.137 229.482 239.818 213.018 248.607 206.518C251.073 208.805 255.777 214.372 259.338 214.239C259.747 214.224 260.818 212.712 261.175 212.273C260.97 211.371 260.882 211.116 260.547 210.249C253.289 210.16 242.474 194.992 255.38 192.601L256.699 191.965Z"/><path fill="#273C48" d="M1187.76 509.756C1198.83 506.401 1210.52 512.689 1213.82 523.777C1217.12 534.865 1210.79 546.527 1199.69 549.783C1188.66 553.019 1177.09 546.728 1173.81 535.709C1170.53 524.69 1176.77 513.089 1187.76 509.756Z"/><path fill="white" d="M1188.77 514.633C1197.1 511.863 1206.09 516.351 1208.89 524.67C1211.69 532.989 1207.24 542.008 1198.94 544.84C1190.59 547.687 1181.52 543.205 1178.7 534.841C1175.89 526.478 1180.4 517.418 1188.77 514.633Z"/><path fill="#273C48" d="M1016.39 509.857C1023.62 507.539 1031.54 509.337 1037.07 514.55C1042.6 519.764 1044.86 527.57 1042.97 534.931C1041.08 542.293 1035.34 548.046 1027.99 549.954C1017.06 552.791 1005.85 546.406 1002.71 535.549C999.567 524.691 1005.63 513.304 1016.39 509.857Z"/><path fill="white" d="M1017.97 514.148C1021.29 513.91 1024.93 513.516 1028.07 514.686C1032.07 516.187 1035.29 519.258 1036.98 523.187C1041.09 532.801 1036.63 541.54 1027.28 545.348C1023.75 546.106 1020.73 546.185 1017.26 544.941C1013.62 543.633 1010.66 540.929 1009.02 537.428C1004.46 527.79 1008.56 518.482 1017.97 514.148Z"/><path fill="#273C48" d="M584.122 509.838C595.132 506.377 606.858 512.524 610.281 523.552C613.704 534.579 607.521 546.291 596.488 549.679C585.507 553.052 573.868 546.901 570.461 535.925C567.054 524.948 573.163 513.283 584.122 509.838Z"/><path fill="white" d="M585.556 514.626C591.053 512.874 597.068 514.237 601.274 518.189C605.479 522.141 607.217 528.062 605.813 533.661C604.41 539.261 600.086 543.661 594.514 545.16C586.168 547.405 577.557 542.571 575.122 534.274C572.687 525.976 577.32 517.252 585.556 514.626Z"/><path fill="#273C48" d="M767.411 509.87C778.432 506.372 790.193 512.52 793.617 523.57C797.042 534.619 790.822 546.346 779.756 549.701C768.791 553.026 757.201 546.871 753.807 535.922C750.414 524.973 756.49 513.336 767.411 509.87Z"/><path fill="white" d="M768.495 514.259C771.977 513.895 775.514 513.43 778.882 514.638C782.886 516.051 786.134 519.049 787.862 522.929C791.993 532.127 787.701 541.154 778.821 545.232C775.292 545.971 772.704 546.263 769.158 545.219C765.322 544.109 762.102 541.488 760.237 537.956C755.25 528.563 759.282 518.871 768.495 514.259Z"/><path fill="#273C48" d="M134.374 495.557C136.709 495.452 137.575 495.335 139.822 495.938C142.449 500.475 163.578 546.835 163.669 549.311C162.394 550.245 161.928 549.929 160.075 549.979C156.912 548.605 153.881 539.386 152.442 535.82L139.867 535.865L121.557 535.816C120.084 540.006 117.671 547.977 113.856 549.907C111.868 549.83 111.605 550.2 110.551 549.081C111.148 546.596 111.992 544.606 113.072 542.298C120.307 526.83 126.857 510.881 134.374 495.557Z"/><path fill="white" d="M136.609 502.165C138.84 503.57 148.251 526.604 149.869 530.651L138.581 530.605L124.058 530.556L136.609 502.165Z"/><path fill="#273C48" d="M901.141 509.657C919.729 508.316 924.341 513.509 926.832 531.41L891.975 531.359L892.018 531.572C894.454 543.181 900.221 547.25 912.084 545.463C915.625 544.509 917.498 543.014 920.521 540.988C921.937 541.976 922.108 542.36 922.985 543.797C922.342 545.971 918.977 547.432 916.965 548.317C898.199 556.565 880.695 539.91 888.474 520.644C890.826 514.818 895.487 511.741 901.141 509.657Z"/><path fill="white" d="M906.659 512.942C916.972 514.326 919.24 517.881 921.896 527.287L908.656 527.421C902.888 527.424 897.12 527.364 891.353 527.239C894.781 517.752 896.545 515.38 906.659 512.942Z"/><path fill="#273C48" d="M409.059 509.733C427.246 508.424 432.957 512.742 434.922 531.401C428.371 531.399 406.036 530.519 401.051 531.889L400.624 533.212C402.404 543.708 410.646 546.918 420.28 545.603C424.489 544.338 425.407 542.846 429.391 541.175C430.774 541.558 431.504 541.671 430.982 543.503C430.372 545.641 427.864 547.445 425.918 548.247C414.987 552.75 402.095 550.361 396.821 538.737C394.423 533.372 394.261 527.272 396.371 521.787C398.949 515.181 402.999 512.402 409.059 509.733Z"/><path fill="white" d="M415.081 513.019C425.479 514.12 427.646 518.203 430.163 527.293C425.456 527.488 419.877 527.385 415.097 527.424C409.914 527.44 404.73 527.363 399.549 527.195C403.242 517.919 404.89 515.183 415.081 513.019Z"/><path fill="#273C48" d="M270.481 509.671C287.214 508.853 291.93 510.594 292.174 528.79C292.237 533.516 293.105 545.206 291.626 549.281C289.917 550.395 290.682 550.224 288.761 550.008C287.396 548.911 287.331 547.4 287.015 545.677C280.793 545.44 271.703 558.047 259.49 544.843C257.425 540.922 256.373 534.423 260.016 531.158C266.519 525.329 279.051 526.715 287.348 526.737L287.278 526.049C285.037 504.696 273.269 515.829 262.074 517.256C260.583 515.889 260.943 516.577 260.622 514.697C262.342 511.877 267.307 510.706 270.481 509.671Z"/><path fill="white" d="M274.726 530.48C278.498 530.448 282.219 530.308 285.96 530.782C287.951 532.212 287.34 531.451 288.332 533.637C288.435 539.998 279.6 545.039 273.976 546.122C259.464 545.726 257.631 531.371 274.726 530.48Z"/><path fill="#273C48" d="M621.95 509.394C623.746 509.348 624.876 509.418 626.664 509.567C628.673 511.71 626.684 513.214 627.951 516.915C638.455 507.251 650.859 503.945 658.354 518.907C660.208 516.188 663.261 511.919 666.274 510.894C694.502 501.295 691.556 531.336 689.747 549.119C689.675 549.828 687.923 550.249 687.3 550.486C678.21 547.123 696.104 514.186 670.854 513.853C650.967 520.077 662.501 544.18 658.031 549.955L656.366 550.165C648.963 546.266 657.233 524.494 651.081 517.822C643.967 511.429 639.313 512.969 632.628 517.496C623.182 523.893 630.647 545.887 626.164 549.969C623.818 549.895 623.885 550.281 622.347 549.105C621.523 545.113 621.944 515.119 621.95 509.394Z"/><path fill="#273C48" d="M972.467 494.941C977.01 494.42 988.333 496.013 991.393 499.551C991.748 501.618 991.708 500.93 990.497 503.091C988.6 503.829 979.207 500.206 975.418 499.987C968.131 498.945 956.028 507.714 965.658 514.426C976.593 522.047 1004.91 523.91 990.365 544.981C987.284 549.446 978.3 550.503 972.882 550.758C968.192 549.967 957.402 547.438 954.85 543.187C954.403 540.63 954.212 541.493 955.174 539.229C959.348 537.868 968.749 548.584 977.98 545.167C983.065 545.088 989.574 540.016 987.911 533.978C984.822 522.767 958.595 524.799 956.617 512.103C954.879 500.946 963.327 496.878 972.467 494.941Z"/><path fill="#273C48" d="M543.384 495.025C548.083 494.444 563.802 498.072 563.316 504.208C562.854 504.74 561.721 506.393 561.139 505.984C554.55 501.353 549.84 499.426 541.404 500.273C535.58 500.802 530.228 503.695 526.593 508.279C522.801 513.065 521.055 519.157 521.736 525.226C523.621 541.843 536.972 546.566 551.782 544.764C556.343 543.05 560.166 537.883 563.994 541.139C563.623 543.486 560.882 545.44 559.023 546.607C549.296 552.715 535.898 551.77 526.84 544.851C520.93 540.271 517.101 533.513 516.207 526.087C515.356 518.88 517.4 511.628 521.891 505.929C527.776 498.402 534.287 496.167 543.384 495.025Z"/><path fill="#273C48" d="M306.209 509.439C307.962 509.345 309.085 509.134 310.633 510.014C311.944 511.771 311.46 515.588 311.402 517.976C322.593 502.526 344.855 507.634 343.581 527.853C343.322 531.962 344.498 547.419 342.199 549.841C340.692 549.992 339.753 550.201 338.302 549.683C337.306 547.287 337.798 530.714 337.808 527.171C337.881 516.98 333.56 513.276 322.731 514.071C305.265 515.352 314.959 549.667 308.374 550.534L306.809 549.25C305.868 545.756 306.218 514.876 306.209 509.439Z"/><path fill="#273C48" d="M1075.1 509.445C1077.08 509.383 1077.64 509.395 1079.61 509.723C1084.6 518.097 1070.12 550.961 1097.28 544.47C1112.59 540.811 1101.24 511.448 1109.33 509.011L1110.94 509.921C1111.73 513.34 1111.45 519.678 1111.42 523.422C1111.41 527.878 1112.44 547.722 1110.37 549.836C1108.82 550.025 1108.04 550.307 1106.73 549.511C1105.63 547.445 1106.07 543.797 1106.16 541.314C1098.12 554.037 1078.84 553.969 1075.44 539.114C1073.98 532.725 1075.07 516.697 1075.1 509.445Z"/><path fill="#273C48" d="M1225.76 509.456C1227.52 509.347 1228.68 509.115 1230.21 510.031C1231.51 511.783 1230.91 515.682 1230.8 518.068C1236.58 510.926 1238.8 509.409 1248.37 509.32C1266.13 509.154 1263.1 529.729 1263.31 541.784C1263.35 544.145 1263.41 548.353 1261.76 549.957C1259.49 550.045 1259.84 550.37 1258.15 549.345C1257.23 547.034 1257.68 529.872 1257.68 526.444C1257.78 518.642 1253.3 514.12 1245.62 514.006C1228.3 513.749 1231.01 532.317 1231.01 544.077C1231.01 546.167 1231.12 548.507 1229.66 549.961C1227.3 550.033 1227.65 550.402 1226.16 549.223C1225.03 545.426 1225.77 515.236 1225.76 509.456Z"/><path fill="#273C48" d="M814.708 509.15C817.891 509.14 826.669 509.782 828.493 512.539C828.426 514.111 827.854 514.527 826.815 515.663C825.686 515.768 817.755 513.322 814.206 512.872C810.879 514.242 807.707 515.307 807.074 519.233C808.625 527.633 832.645 528.006 831.239 539.475C830.164 548.249 820.51 550.841 812.442 550.219C808.69 549.58 802.202 548.107 800.319 544.475L801.247 542.588C805.008 541.844 820.452 550.749 824.431 542.584C830.63 529.861 803.259 533.499 802.15 521.802C801.261 512.421 806.646 510.251 814.708 509.15Z"/><path fill="#273C48" d="M1286.22 509.132C1290.1 508.932 1297.02 509.941 1300.07 512.424L1299.89 513.955C1295.24 517.713 1288.1 510.761 1282.24 514.509C1280.39 515.688 1278.49 516.17 1277.68 518.558C1278.77 527.347 1307.11 527.58 1301.77 542.354C1299.14 549.65 1291.9 550.122 1285.26 550.392C1282.09 549.909 1270.74 547.683 1272.25 543.299C1276.31 540.504 1282.65 546.943 1288.14 546.272C1289.98 546.084 1294.42 544.959 1295.48 543.222C1302.05 532.341 1283.04 532.144 1277.63 527.676C1275.83 526.183 1273.78 524.52 1273.63 521.903C1273.09 512.635 1278.25 510.267 1286.22 509.132Z"/><path fill="#273C48" d="M367.33 509.704C372.423 509.202 386.287 509.318 388.495 514.799C388.309 515.349 386.607 518.26 386.095 518.01C381.809 515.867 378.034 513.175 372.922 513.777C352.441 516.19 352.154 547.485 377.979 545.45C384.324 543.801 383.967 540.537 389.121 541.523L389.565 542.76C385.828 550.644 372.642 551.841 365.353 548.866C360.45 546.861 356.575 542.944 354.622 538.018C352.414 532.535 352.461 526.402 354.752 520.953C357.418 514.76 361.427 512.027 367.33 509.704Z"/><path fill="#273C48" d="M235.614 544.563C237.819 539.291 247.494 510.843 250.27 509.225C252.277 509.122 251.473 508.962 253.323 509.918C254.099 511.655 253.795 511.255 252.954 513.602C250.201 519.809 240.866 546.129 238.175 549.324C236.047 550.056 235.742 550.016 233.504 549.677C231.076 548.237 218.64 515.077 216.404 509.482C217.609 509.444 220.089 509.149 221.167 509.63C223.988 510.888 233.753 539.768 235.614 544.563Z"/><path fill="#273C48" d="M862.76 499.915C864.46 499.858 865.666 499.675 867.186 500.486C868.831 502.822 868.114 507.101 868.019 510.312C871.294 510.23 879.234 509.243 880.767 512.791C877.92 515.68 871.933 514.841 868.027 514.728C867.982 521.709 865.584 540.449 871.474 544.712C873.556 546.218 878.225 544.468 880.587 543.694C882.411 548.65 878.759 550.385 874.282 550.563C857.501 551.23 863.236 527.829 862.608 515.723C860.533 513.607 860.785 515.8 857.161 514.39L856.642 512.818C858.03 506.566 863.138 516.353 862.76 499.915Z"/><path fill="#273C48" d="M1128.06 499.849C1129.78 499.803 1130.96 499.612 1132.42 500.543C1133.89 502.818 1133.24 507.268 1133.16 510.294C1138.67 510.174 1141.7 509.49 1146.5 511.897L1146.77 512.855C1143.75 515.568 1137.26 514.835 1133.16 514.728C1133.2 519.681 1133.03 524.882 1132.95 529.836C1132.79 540.407 1132.89 548.746 1146.01 543.605C1147.76 547.949 1145.37 549.93 1140.95 550.437C1122.27 552.58 1129.18 527.785 1127.9 515.418C1125.37 513.66 1124.83 515.916 1122.1 514.087C1121.35 508.871 1124 512.018 1127.27 508.987C1128.58 506.423 1128.15 502.827 1128.06 499.849Z"/><path fill="#273C48" d="M1055.9 491.611C1057.26 491.706 1058.23 491.883 1059.55 492.118C1060.77 494.145 1060.4 544.465 1060.02 550.371C1058.28 550.28 1056.8 550.369 1055.36 549.378C1054.79 543.745 1054.67 493.803 1055.9 491.611Z"/><path fill="#273C48" d="M840.699 509.363C842.721 509.365 844.009 509.219 845.846 510.072C846.582 513.708 846.193 544.71 846.187 550.099C844.173 550.179 843.105 550.356 841.243 549.569C839.959 547.024 840.664 514.425 840.699 509.363Z"/><path fill="#273C48" d="M1157.1 509.322C1159.16 509.323 1159.62 509.357 1161.64 509.82C1162.76 512.14 1162.16 545.437 1162.14 550.296C1160.27 550.213 1159.75 550.187 1157.89 549.714C1156.29 547.812 1157.07 514.15 1157.1 509.322Z"/><path fill="#1096C9" d="M229.338 197.092C239.299 189.153 244.863 182.534 256.699 191.965L255.38 192.601C253.27 191.252 252.069 190.404 249.601 190.262C247.508 191.2 247.326 192.853 246.272 195.337C243.309 197.412 233.326 197.051 229.338 197.092Z"/><path fill="#273C48" d="M1158.19 493.894C1160.06 493.125 1162.19 493.963 1163.03 495.793C1163.87 497.623 1163.12 499.792 1161.33 500.705C1160.1 501.329 1158.63 501.232 1157.5 500.452C1156.37 499.672 1155.75 498.335 1155.9 496.966C1156.04 495.598 1156.92 494.419 1158.19 493.894Z"/><path fill="#273C48" d="M842.062 493.898C843.978 493.152 846.135 494.106 846.873 496.026C847.611 497.947 846.649 500.101 844.726 500.832C842.815 501.558 840.677 500.602 839.943 498.693C839.209 496.783 840.156 494.64 842.062 493.898Z"/><path fill="#1096C9" d="M307.827 273.037L309.251 274.167C306.441 276.335 295.284 283.696 292.255 284.945L292.75 284.393L292.751 284.394C296.197 281.317 303.98 275.739 307.827 273.037Z"/><path fill="#346274" d="M364.736 185.854C366.948 183.438 371.141 178.564 373.621 176.888L372.467 177.866L372.751 178.709L367.353 186.357L364.736 185.854Z"/><path fill="#DCDDDE" d="M288.33 286.69L289.331 287.297C288.407 289.393 283.462 291.519 281.264 292.493L280.742 292.55C281.331 291.267 286.829 287.732 288.33 286.69Z"/><path fill="#DCDDDE" d="M303.946 110.608L304.889 110.652L305.038 111.219C302.231 112.396 300.833 113.047 298.201 114.606L297.488 114.427L297.411 113.664C299.223 112.123 301.687 111.425 303.946 110.608Z"/></svg>