<?xml version="1.0" encoding="utf-8" ?><svg xmlns="http://www.w3.org/2000/svg" xmlns:xlink="http://www.w3.org/1999/xlink" width="305" height="165" viewBox="0 0 305 165"><path fill="white" d="M0 0L305 0L305 85.5689L305 92.1327L305 165L73.1505 165L57.5918 165L0 165L0 0Z"/><path fill="white" d="M126.519 113.537L126.533 69.7592C126.532 64.2372 126.132 56.1249 126.8 50.7975C127.898 42.0465 139.922 37.1751 146.221 44.3552C147.589 45.9149 149.093 47.9057 149.465 50.1426C150.103 56.6693 149.831 63.9761 149.831 70.5135L149.818 113.509C156.167 113.744 163.563 113.562 170.001 113.533C169.829 99.6729 170.013 85.5888 169.962 71.715C169.947 67.5368 169.637 54.0575 170.262 50.6555C170.707 48.316 171.84 46.1626 173.516 44.471C178.148 39.7153 184.853 39.6157 189.575 44.3615C193.396 48.2025 193.306 51.8979 193.338 56.9633C193.369 61.742 193.346 66.561 193.347 71.3533L193.342 113.551L247.403 113.565C257.93 113.565 269.118 113.833 279.568 113.095C283.55 112.814 289.351 111.318 292.93 109.63C298.72 106.9 302.031 102.576 303.784 96.5044C304.187 95.1075 304.538 93.4415 305 92.1327L305 165L73.1505 165C72.9857 163.277 72.9112 161.227 72.8903 159.483C72.7423 147.172 71.4951 134.489 71.5278 122.238C73.5885 121.762 77.2194 119.196 79.7207 118.408C81.2262 125.168 83.5677 137.954 85.9284 144.727C86.1854 145.464 88.6077 145.644 89.5529 145.749C88.7315 135.032 87.1316 124.054 86.1409 113.244C91.1137 108.664 95.2086 103.215 98.2244 97.1649C99.3614 94.8326 100.336 92.2412 101.466 89.8147C101.885 92.2874 101.783 95.7827 101.776 98.3835C102.264 96.0553 102.577 94.4781 102.896 92.1096C102.989 96.8798 102.971 101.652 102.841 106.421C103.018 107.908 102.945 111.871 102.958 113.539L126.519 113.537Z"/><path fill="#F8DD75" d="M101.776 98.3835C102.264 96.0553 102.577 94.4781 102.896 92.1096C102.989 96.8798 102.971 101.652 102.841 106.421C101.545 107.696 96.5863 115.516 95.6262 115.584C95.9432 114.257 97.6068 111.462 98.2842 110.003C100.169 105.946 101.027 102.748 101.776 98.3835Z"/><path fill="#123B69" d="M88.6943 123C114.398 122.619 140.994 122.944 166.75 122.944L303.483 122.957L303.513 137.675C303.515 139.769 303.606 143.653 303.393 145.614C292.745 145.845 281.398 145.656 270.71 145.657L208.909 145.659L133.622 145.657C119.493 145.661 105.148 145.812 91.0473 145.62C90.7065 139.543 89.6202 129.043 88.6943 123Z"/><path fill="white" d="M262.014 127.027C262.538 126.064 262.669 125.927 263.618 125.379L264.242 125.318L264.538 125.727L264.363 126.802L264.946 128.3C266.735 128.627 271.414 127.446 272.778 128.809C272.575 129.796 271.355 129.954 270.472 130.167C270.515 132.559 270.889 138.526 270.072 140.455L269.593 140.893C268.818 140.828 269.098 140.935 268.477 140.391C268.122 137.835 268.406 132.799 268.423 130C265.895 129.591 264.74 129.805 262.213 130.002C262.204 131.044 262.062 132.171 262.607 133.018C264.192 134.219 264.496 132.872 264.936 134.125L264.774 134.893C262.717 136.178 262.103 133.866 262.265 138.803C263.325 138.766 264.912 138.625 265.826 139.229L266.016 139.914C264.356 141.119 262.21 140.83 260.243 140.759C259.737 140.262 259.201 140.379 258.359 140.305C256.329 140.97 255.209 141.419 253.44 139.833C252.688 139.946 252.437 139.916 251.929 140.485C251.281 140.947 251.064 140.78 250.153 140.756C249.275 140.971 248.868 140.91 247.986 140.848C247.271 140.844 247.079 140.818 246.38 140.664C245.625 139.584 245.929 131.969 245.929 130.249L245.391 129.698C245.281 128.766 245.155 128.943 245.561 128.281L246.103 128.4C247.119 127.53 251.005 127.999 251.784 129.335C252.322 129.5 252.682 129.668 253.223 129.52C254.414 127.69 257.165 127.256 258.569 129.017C259.503 128.924 259.666 128.869 260.343 128.223C260.562 128.141 261.318 128.067 261.592 128.033L262.014 127.027Z"/><path fill="white" d="M246.103 128.4C247.119 127.53 251.005 127.999 251.784 129.335C252.322 129.5 252.682 129.668 253.223 129.52C253.443 133.033 253.04 136.169 253.44 139.833C252.688 139.946 252.437 139.916 251.929 140.485C251.281 140.947 251.064 140.78 250.153 140.756C249.275 140.971 248.868 140.91 247.986 140.848C247.271 140.844 247.079 140.818 246.38 140.664C245.625 139.584 245.929 131.969 245.929 130.249L245.391 129.698C245.281 128.766 245.155 128.943 245.561 128.281L246.103 128.4Z"/><path fill="#214A78" d="M251.784 129.335C252.322 129.5 252.682 129.668 253.223 129.52C253.443 133.033 253.04 136.169 253.44 139.833C252.688 139.946 252.437 139.916 251.929 140.485C252.003 139.081 252.038 137.864 251.721 136.482C251.118 133.848 252.013 132.124 251.784 129.335Z"/><path fill="#244C75" d="M247.986 140.848C248.038 138.911 247.883 137.677 248.67 135.905L249.02 135.755C250.333 137.463 249.861 138.967 250.153 140.756C249.275 140.971 248.868 140.91 247.986 140.848Z"/><path fill="#244C75" d="M245.929 130.249L245.391 129.698C245.281 128.766 245.155 128.943 245.561 128.281L246.103 128.4L245.929 130.249Z"/><path fill="#244C75" d="M248.013 129.845C249.193 129.887 249.326 129.903 249.932 130.846C250.085 131.903 249.843 132.645 249.606 133.679C248.713 133.66 248.921 133.793 248.288 133.328C247.801 132.4 247.974 130.939 248.013 129.845Z"/><path fill="white" d="M262.014 127.027C262.538 126.064 262.669 125.927 263.618 125.379L264.242 125.318L264.538 125.727L264.363 126.802L264.946 128.3C266.735 128.627 271.414 127.446 272.778 128.809C272.575 129.796 271.355 129.954 270.472 130.167C270.515 132.559 270.889 138.526 270.072 140.455L269.593 140.893C268.818 140.828 269.098 140.935 268.477 140.391C268.122 137.835 268.406 132.799 268.423 130C265.895 129.591 264.74 129.805 262.213 130.002C262.204 131.044 262.062 132.171 262.607 133.018C264.192 134.219 264.496 132.872 264.936 134.125L264.774 134.893C262.717 136.178 262.103 133.866 262.265 138.803C263.325 138.766 264.912 138.625 265.826 139.229L266.016 139.914C264.356 141.119 262.21 140.83 260.243 140.759C260.255 136.645 260.207 132.316 260.343 128.223C260.562 128.141 261.318 128.067 261.592 128.033L262.014 127.027Z"/><path fill="white" d="M262.014 127.027C262.538 126.064 262.669 125.927 263.618 125.379L264.242 125.318L264.538 125.727L264.363 126.802C263.232 127.434 263.079 127.657 262.014 127.027Z"/><path fill="#214A78" d="M261.592 128.033L262.014 127.027C263.079 127.657 263.232 127.434 264.363 126.802L264.946 128.3C263.707 128.262 262.812 128.249 261.592 128.033Z"/><path fill="#214A78" d="M258.569 129.017C259.503 128.924 259.666 128.869 260.343 128.223C260.207 132.316 260.255 136.645 260.243 140.759C259.737 140.262 259.201 140.379 258.359 140.305C259.059 139.165 259.45 134.738 258.671 133.735C257.96 133.469 257.807 133.392 257.075 133.541C255.523 135.158 257.594 138.135 256.451 139.065C255.157 138.738 255.199 136.944 255.199 135.844C255.201 134.294 254.921 130.731 255.953 129.631L256.41 129.721C257.561 131.238 256.259 132.022 257.882 132.579C258.735 132.375 258.451 132.547 259.032 131.904C259.189 131.042 258.797 129.899 258.569 129.017Z"/><path fill="white" d="M202.378 127.105C202.351 126.226 202.238 126.539 202.827 125.878C204.364 125.345 205.095 125.431 206.58 125.84L206.983 126.229C206.942 126.676 206.961 126.937 206.666 127.285L206.3 128.219C207.005 128.629 207.129 128.709 207.641 129.335C208.287 129 208.454 128.761 208.939 128.211C210.573 127.946 213.321 127.801 214.853 128.491L215.578 129.183C218.343 126.523 222.232 128.441 220.951 131.76L220.544 131.888C219.365 131.244 218.703 130.044 217.885 129.881C216.139 131.81 220.192 134.489 220.935 136.057C222.934 140.272 217.767 142.725 215.312 139.407L214.797 139.87C213.644 141.327 210.779 140.799 208.945 140.724C208.603 140.122 208.165 139.918 207.574 139.546C206.476 140.782 204.31 141.695 202.926 140.35C201.458 138.923 201.668 137.578 201.642 135.703L201.669 132.48C201.666 130.81 201.585 129.875 202.55 128.444L202.378 127.105Z"/><path fill="white" d="M202.378 127.105C202.351 126.226 202.238 126.539 202.827 125.878C204.364 125.345 205.095 125.431 206.58 125.84L206.983 126.229C206.942 126.676 206.961 126.937 206.666 127.285L206.3 128.219C207.005 128.629 207.129 128.709 207.641 129.335C207.773 133.06 207.72 135.882 207.574 139.546C206.476 140.782 204.31 141.695 202.926 140.35C201.458 138.923 201.668 137.578 201.642 135.703L201.669 132.48C201.666 130.81 201.585 129.875 202.55 128.444L202.378 127.105Z"/><path fill="white" d="M202.378 127.105C202.351 126.226 202.238 126.539 202.827 125.878C204.364 125.345 205.095 125.431 206.58 125.84L206.983 126.229C206.942 126.676 206.961 126.937 206.666 127.285L206.3 128.219C204.971 128.198 203.854 128.127 202.55 128.444L202.378 127.105Z"/><path fill="#214A78" d="M202.378 127.105C203.893 127.099 205.328 127.286 206.666 127.285L206.3 128.219C204.971 128.198 203.854 128.127 202.55 128.444L202.378 127.105Z"/><path fill="#214A78" d="M204.128 129.607C204.709 129.747 204.843 129.753 205.26 130.194C205.788 131.868 205.843 137.69 205.087 139.154L204.488 139.01C203.22 137.791 203.479 131.044 204.128 129.607Z"/><path fill="white" d="M215.578 129.183C218.343 126.523 222.232 128.441 220.951 131.76L220.544 131.888C219.365 131.244 218.703 130.044 217.885 129.881C216.139 131.81 220.192 134.489 220.935 136.057C222.934 140.272 217.767 142.725 215.312 139.407C215.217 138.482 215.13 137.41 215.853 136.735C216.553 136.932 217.49 138.213 218.052 138.831L218.6 138.842L219.156 138.248C218.966 137.001 218.818 136.733 218.056 135.784C215.689 133.405 214.814 132.653 215.578 129.183Z"/><path fill="#214A78" d="M214.853 128.491L215.578 129.183C214.814 132.653 215.689 133.405 218.056 135.784C218.818 136.733 218.966 137.001 219.156 138.248L218.6 138.842L218.052 138.831C217.49 138.213 216.553 136.932 215.853 136.735C215.13 137.41 215.217 138.482 215.312 139.407L214.797 139.87C213.845 138.341 212.692 138.778 211.043 138.911L210.911 135.248C211.902 135.202 212.578 135.218 213.526 134.895C213.869 134.24 213.82 134.516 213.685 133.792C213.033 133.283 212.387 133.453 211.4 133.409C210.828 132.804 210.899 131.074 210.823 130.057C212.796 129.988 213.924 130.364 214.853 128.491Z"/><path fill="#123B69" d="M219.156 138.248C218.385 137.896 218.116 137.818 217.61 137.156C217.552 136.297 217.51 136.605 218.056 135.784C218.818 136.733 218.966 137.001 219.156 138.248Z"/><path fill="#214A78" d="M207.641 129.335C208.287 129 208.454 128.761 208.939 128.211C208.958 132.24 209.067 136.733 208.945 140.724C208.603 140.122 208.165 139.918 207.574 139.546C207.72 135.882 207.773 133.06 207.641 129.335Z"/><path fill="white" d="M229.872 128.022C230.741 128.069 231.089 128.005 231.941 127.872C232.486 127.93 233.899 128.047 234.357 128.184C234.982 128.185 235.745 128.215 236.348 128.105C237.089 128.018 237.347 127.946 238.018 128.243C238.602 128.37 238.844 128.469 239.392 128.231C240.733 127.854 244.383 127.452 244.864 129.206C244.157 129.959 243.985 129.983 242.886 130.015C242.407 130.027 241.927 130.033 241.447 130.033C241.434 131.098 241.269 132.295 241.869 133.117C243.402 134.055 243.418 133.022 244.123 133.829C244.093 134.681 244.239 134.603 243.779 135.075C242.57 135.125 242.78 134.95 241.865 135.555C241.292 136.449 241.472 137.72 241.498 138.831C242.707 138.774 243.777 138.602 244.818 139.214L245.231 139.704C244.208 141.197 241.038 140.832 239.431 140.752L237.972 140.741C237.131 140.802 236.873 140.855 236.095 140.561C235.37 139.853 235.215 138.149 234.926 136.968L233.652 137.649C233.643 138.554 233.761 139.889 233.279 140.582C232.756 140.952 232.461 140.911 231.821 140.93C230.893 140.726 228.355 141.509 227.059 140.908C226.449 140.867 225.964 140.788 225.361 140.69C224.689 139.89 224.995 129.872 225.009 128.029L229.872 128.022Z"/><path fill="white" d="M225.009 128.029L229.872 128.022C230.778 128.599 230.689 128.488 231.056 129.748C231.58 130.137 231.451 130.275 231.638 131.102C231.663 132.478 231.748 135.591 231.63 136.893L231.821 140.93C230.893 140.726 228.355 141.509 227.059 140.908C226.449 140.867 225.964 140.788 225.361 140.69C224.689 139.89 224.995 129.872 225.009 128.029Z"/><path fill="#214A78" d="M226.992 130.021C228.269 129.983 229.764 129.839 231.056 129.748C231.58 130.137 231.451 130.275 231.638 131.102C231.663 132.478 231.748 135.591 231.63 136.893C231.341 137.993 231.511 138.243 230.302 138.608C229.376 138.789 228.032 138.767 227.051 138.783L227.017 135.267C227.972 135.28 228.5 135.306 229.459 135.125C230.071 134.536 229.935 134.802 230.147 134.036C229.531 133.476 228.206 133.383 227.285 133.22C226.909 132.652 227 130.808 226.992 130.021Z"/><path fill="#244C75" d="M230.302 138.608C231.511 138.243 231.341 137.993 231.63 136.893L231.821 140.93C230.893 140.726 228.355 141.509 227.059 140.908C228.323 140.644 229.703 141.231 230.714 140.188C230.771 139.462 230.634 139.271 230.302 138.608Z"/><path fill="white" d="M239.392 128.231C240.733 127.854 244.383 127.452 244.864 129.206C244.157 129.959 243.985 129.983 242.886 130.015C242.407 130.027 241.927 130.033 241.447 130.033C241.434 131.098 241.269 132.295 241.869 133.117C243.402 134.055 243.418 133.022 244.123 133.829C244.093 134.681 244.239 134.603 243.779 135.075C242.57 135.125 242.78 134.95 241.865 135.555C241.292 136.449 241.472 137.72 241.498 138.831C242.707 138.774 243.777 138.602 244.818 139.214L245.231 139.704C244.208 141.197 241.038 140.832 239.431 140.752L237.972 140.741C238.039 136.615 237.969 132.399 238.018 128.243C238.602 128.37 238.844 128.469 239.392 128.231Z"/><path fill="#214A78" d="M238.018 128.243C238.602 128.37 238.844 128.469 239.392 128.231C239.472 132.424 239.363 136.598 239.431 140.752L237.972 140.741C238.039 136.615 237.969 132.399 238.018 128.243Z"/><path fill="#214A78" d="M234.357 128.184C234.982 128.185 235.745 128.215 236.348 128.105C236.006 130.002 236.006 130.785 236.015 132.669L235.397 133.091C234.987 131.491 234.679 129.809 234.357 128.184Z"/><path fill="#244C75" d="M233.256 131.624C233.877 133.433 234.388 135.135 234.926 136.968L233.652 137.649C233.587 135.744 233.386 133.548 233.256 131.624Z"/><path fill="#244C75" d="M229.872 128.022C230.741 128.069 231.089 128.005 231.941 127.872C231.801 128.955 231.635 130.01 231.638 131.102C231.451 130.275 231.58 130.137 231.056 129.748C230.689 128.488 230.778 128.599 229.872 128.022Z"/><path fill="#86949A" d="M236.015 132.669C236.04 133.442 236.174 134.201 235.681 134.772C235.254 134.246 235.383 133.914 235.397 133.091L236.015 132.669Z"/><path fill="white" d="M130.182 127.92C130.739 128.141 130.844 128.207 131.429 128.04C132.431 128.039 132.511 127.886 133.299 128.36C133.385 128.636 133.489 128.899 133.511 129.182C133.731 129.403 134.291 129.999 134.523 130.118C136.699 125.892 141.491 127.797 140.402 132.76C137.542 132.06 139.308 131.337 137.728 130.016L137.279 129.994C136.419 131.059 136.375 138.065 137.485 138.965C139.556 138.683 137.374 135.256 140.556 135.901C140.512 137.117 140.48 138.333 140.461 139.55C139.586 140.363 139.282 140.477 138.194 140.948L136.991 141.079C135.917 140.562 135.665 140.36 134.753 139.597C134.162 139.611 133.866 139.943 133.406 140.324C133.258 140.563 132.823 140.874 132.582 141.07C131.889 140.906 132.127 141.016 131.612 140.537C131.175 139.309 131.24 137.94 131.229 136.633C130.811 134.719 131.868 131.787 129.988 131.194C130.128 129.953 130.224 129.165 130.182 127.92Z"/><path fill="white" d="M130.182 127.92C130.739 128.141 130.844 128.207 131.429 128.04C132.431 128.039 132.511 127.886 133.299 128.36C133.385 128.636 133.489 128.899 133.511 129.182C133.731 129.403 134.291 129.999 134.523 130.118C134.512 132.207 134.38 137.838 134.753 139.597C134.162 139.611 133.866 139.943 133.406 140.324C133.258 140.563 132.823 140.874 132.582 141.07C131.889 140.906 132.127 141.016 131.612 140.537C131.175 139.309 131.24 137.94 131.229 136.633C130.811 134.719 131.868 131.787 129.988 131.194C130.128 129.953 130.224 129.165 130.182 127.92Z"/><path fill="#214A78" d="M133.511 129.182C133.731 129.403 134.291 129.999 134.523 130.118C134.512 132.207 134.38 137.838 134.753 139.597C134.162 139.611 133.866 139.943 133.406 140.324C133.366 136.61 133.401 132.895 133.511 129.182Z"/><path fill="#214A78" d="M130.182 127.92C130.739 128.141 130.844 128.207 131.429 128.04C131.067 130.918 131.425 133.851 131.229 136.633C130.811 134.719 131.868 131.787 129.988 131.194C130.128 129.953 130.224 129.165 130.182 127.92Z"/><path fill="white" d="M276.415 130.5C278.773 123.906 285.465 130.97 281.304 132.656C279.784 131.897 281.145 131.325 279.92 129.786L279.48 129.599C278.183 130.598 278.384 137.764 279.119 138.882L279.892 138.992C280.982 138.033 280.06 137.015 280.875 135.981C281.623 135.786 281.814 135.808 282.592 135.859C283.152 135.993 283.193 136.47 283.614 136.728C283.489 137.976 283.304 139.43 283.228 140.663C282.83 140.38 282.372 140.307 281.891 140.183C281.647 140.302 281.396 140.409 281.141 140.503C278.762 141.363 277.258 140.86 276.454 138.475C274.923 138.471 275.927 139.882 275.26 140.958C274.463 140.902 274.14 140.915 273.424 140.578C273.129 139.378 273.109 129.823 273.389 128.391C274.272 127.88 274.356 128.043 275.458 128.04C275.507 128.811 275.442 130.236 275.851 130.655L276.415 130.5Z"/><path fill="white" d="M275.26 140.958C274.463 140.902 274.14 140.915 273.424 140.578C273.129 139.378 273.109 129.823 273.389 128.391C274.272 127.88 274.356 128.043 275.458 128.04C275.507 128.811 275.442 130.236 275.851 130.655L276.415 130.5C276.517 131.979 276.588 136.973 276.454 138.475C274.923 138.471 275.927 139.882 275.26 140.958Z"/><path fill="#214A78" d="M275.458 128.04C275.507 128.811 275.442 130.236 275.851 130.655L276.415 130.5C276.517 131.979 276.588 136.973 276.454 138.475C274.923 138.471 275.927 139.882 275.26 140.958C275.213 137.451 275.012 131.345 275.458 128.04Z"/><path fill="#214A78" d="M282.592 135.859C283.152 135.993 283.193 136.47 283.614 136.728C283.489 137.976 283.304 139.43 283.228 140.663C282.83 140.38 282.372 140.307 281.891 140.183C282.428 138.349 282.472 137.751 282.592 135.859Z"/><path fill="white" d="M141.405 131.6C141.587 127.086 146.234 126.565 147.695 130.251L148.511 130.709L148.492 131.713L147.699 132.713L147.656 136.995L148.484 136.852L148.533 138.406L147.577 139.08C146.36 141.559 142.899 141.436 141.531 139.147L140.461 139.55C140.48 138.333 140.512 137.117 140.556 135.901L141.064 135.862C141.434 134.983 141.264 133.916 141.202 132.941C141.141 132.075 141.009 132.188 141.405 131.6Z"/><path fill="#214A78" d="M141.202 132.941C141.141 132.075 141.009 132.188 141.405 131.6C141.631 133.327 141.532 137.247 141.531 139.147L140.461 139.55C140.48 138.333 140.512 137.117 140.556 135.901L141.064 135.862C141.434 134.983 141.264 133.916 141.202 132.941Z"/><path fill="#244C75" d="M147.656 136.995L148.484 136.852L148.533 138.406L147.577 139.08L147.656 136.995Z"/><path fill="#244C75" d="M147.695 130.251L148.511 130.709L148.492 131.713L147.699 132.713C147.649 131.883 147.677 131.08 147.695 130.251Z"/><path fill="#123B69" d="M143.84 129.812C144.47 129.852 144.652 129.825 145.155 130.212C145.91 131.847 145.607 137.314 145.284 139.137C144.458 139.036 144.653 139.169 144.04 138.707C143.241 136.794 143.668 132.022 143.84 129.812Z"/><path fill="white" d="M174.313 131.924C174.386 128.215 176.092 126.596 179.517 128.855C180.29 129.366 180.566 131.145 180.68 132.756C180.927 136.265 180.684 143.385 175.019 140.096C174.336 139.7 174.361 137.292 174.337 136.233C174.241 134.656 174.263 133.488 174.313 131.924Z"/><path fill="#123B69" d="M176.58 129.812C177.505 129.924 177.339 129.769 177.962 130.294C178.649 132.063 178.373 137.18 177.983 139.066C177.124 138.967 177.382 139.103 176.754 138.602C175.989 136.731 176.417 131.984 176.58 129.812Z"/><path fill="white" d="M117.075 127.995C119.027 128.005 120.716 127.93 122.522 128.754C122.738 130.197 122.919 132.113 122.664 133.561C121.591 135.554 124.796 139.895 121.963 141.021C120.188 140.262 121.402 136.765 120.166 135.638C119.478 135.692 119.678 135.68 119.065 136.217C118.233 137.882 120.111 139.327 118.271 140.782L117.039 140.931L115.761 140.735C115.798 139.652 115.876 139.345 115.305 138.64C115.76 138.366 115.641 138.826 116.532 138.316L116.733 137.234C116.76 134.314 116.604 130.788 117.075 127.995Z"/><path fill="#244C75" d="M116.733 137.234L117.039 140.931L115.761 140.735C115.798 139.652 115.876 139.345 115.305 138.64C115.76 138.366 115.641 138.826 116.532 138.316L116.733 137.234Z"/><path fill="#214A78" d="M119.06 129.829C121.546 130.066 121.001 131.906 120.441 133.693C119.582 133.651 119.876 133.768 119.218 133.279C118.786 132.376 118.996 130.881 119.06 129.829Z"/><path fill="white" d="M187.529 138.33C187.473 135.953 186.987 129.979 188.068 128.324C188.816 127.879 188.493 127.954 189.356 128.02C190.416 129.42 189.035 136.904 190.156 138.802C190.775 139.045 190.51 139.038 191.151 138.819C192.394 136.92 190.692 131.283 192.002 128.322C192.687 127.878 192.664 128.053 193.651 128.201C193.735 128.974 193.782 129.439 193.975 130.196C194.194 130.318 194.353 130.433 194.591 130.489C194.706 131.673 194.855 137.443 194.626 138.471L193.529 139.252C192.245 141.427 189.508 141.574 187.914 139.629L187.529 138.33Z"/><path fill="#214A78" d="M193.651 128.201C193.735 128.974 193.782 129.439 193.975 130.196C194.194 130.318 194.353 130.433 194.591 130.489C194.706 131.673 194.855 137.443 194.626 138.471L193.529 139.252C193.524 135.987 193.384 131.358 193.651 128.201Z"/><path fill="white" d="M108.875 139.717C106.226 142.668 101.956 139.871 103.539 136.858C104.935 136.532 105.197 138.432 106.359 138.82C107.053 138.403 106.851 138.643 107.117 137.811C106.459 135.441 102.197 132.752 103.341 129.219C104.272 127.905 106.601 127.715 108.024 128.349C108.892 128.736 109.097 130.336 109.263 131.228L110.224 131.11L110.196 132.354C109.738 134.457 110.424 135.387 109.122 136.369C109.199 137.877 109.193 138.247 108.875 139.717Z"/><path fill="#214A78" d="M109.122 136.369C107.936 134.169 104.536 132.175 105.681 129.769L106.093 129.745C106.904 130.277 107.216 130.861 107.752 131.661C108.629 131.733 108.359 131.719 109.263 131.228L110.224 131.11L110.196 132.354C109.738 134.457 110.424 135.387 109.122 136.369Z"/><path fill="white" d="M148.511 130.709C150.235 125.17 155.449 128.668 154.396 131.676C153.604 131.784 153.139 131.363 152.448 130.839C152.063 130.544 151.681 130.246 151.302 129.943L150.841 130.029C150.35 132.284 155.428 136.208 154.49 139.393C153.921 141.324 151.463 140.851 149.936 140.605C149.132 140.475 148.702 139.075 148.533 138.406L148.484 136.852L147.656 136.995L147.699 132.713L148.492 131.713L148.511 130.709Z"/><path fill="#214A78" d="M148.492 131.713C149.622 135.501 153.105 136.06 152.18 138.646C151.651 139.036 151.879 138.948 151.123 138.862C149.872 137.392 150.964 137.367 149.677 136.77L148.484 136.852L147.656 136.995L147.699 132.713L148.492 131.713Z"/><path fill="white" d="M285.224 127.987C285.995 127.993 287.382 127.901 287.997 128.248C288.594 129.603 289.244 134.901 289.483 136.55L290.387 137.215C290.568 138.444 290.877 139.307 291.509 140.392L290.005 140.027C289.776 140.645 289.896 140.579 289.442 140.972C288.115 140.838 287.781 139.581 287.146 138.444C284.403 138.638 285.722 140.483 283.907 140.892L283.228 140.663C283.304 139.43 283.489 137.976 283.614 136.728L285.224 127.987Z"/><path fill="#244C75" d="M289.483 136.55L290.387 137.215C290.568 138.444 290.877 139.307 291.509 140.392L290.005 140.027C289.775 139.216 289.598 137.457 289.483 136.55Z"/><path fill="#244C75" d="M286.356 131.43L286.628 131.712C286.844 132.904 287.493 135.996 286.967 136.933L286.076 136.577C285.389 135.506 286.106 132.718 286.356 131.43Z"/><path fill="white" d="M127.618 134.007C127.814 132.544 128.048 129.515 128.866 128.287C129.11 127.92 129.662 127.978 130.182 127.92C130.224 129.165 130.128 129.953 129.988 131.194C129.7 133.704 129.809 142.504 125.798 140.593C125.155 140.287 124.501 135.295 124.53 134.476L124.008 133.814C123.433 133.863 123.33 133.84 122.796 133.618L122.664 133.561C122.919 132.113 122.738 130.197 122.522 128.754L123.637 128C124.664 128.052 125.42 127.848 125.773 129.003C126.27 130.627 126.315 132.435 126.659 134.127C126.914 134.162 127.349 134.057 127.618 134.007Z"/><path fill="#244C75" d="M122.522 128.754L123.637 128C123.814 129.378 124.499 133.41 124.53 134.476L124.008 133.814C123.433 133.863 123.33 133.84 122.796 133.618L122.664 133.561C122.919 132.113 122.738 130.197 122.522 128.754Z"/><path fill="#214A78" d="M126.659 134.127C126.914 134.162 127.349 134.057 127.618 134.007C127.556 135.442 127.455 136.875 127.316 138.304C127.109 137.019 126.797 135.393 126.659 134.127Z"/><path fill="white" d="M194.591 130.489C195.244 128.718 196.627 127.207 198.691 128.027C199.519 128.364 200.178 129.021 200.517 129.849C200.799 130.549 200.66 131.65 200.595 132.415C199.584 132.477 199.679 132.633 198.949 132.162C198.434 130.858 198.734 130.367 197.944 129.877C197.614 129.957 197.169 129.982 197.044 130.322C196.525 131.725 196.559 137.653 197.219 138.784C199.095 138.747 197.968 136.07 200.378 135.517C200.625 137.028 200.624 138.002 200.638 139.523C197.472 142.041 200.091 141.46 198.912 143.253C197.858 143.767 196.45 143.749 195.788 142.646L195.878 142.25C196.667 141.909 196.541 142.05 197.534 142.327L197.602 142.086C196.386 140.324 195.317 140.587 194.626 138.471C194.855 137.443 194.706 131.673 194.591 130.489Z"/><path fill="white" d="M110.283 128.004C112.605 127.962 113.855 127.726 115.936 128.818L116.11 129.234C114.998 130.097 113.826 130.013 112.449 130.049C112.432 131.065 112.256 132.314 112.827 133.084C113.845 133.98 114.258 132.995 115.164 133.902C115.215 134.735 115.325 134.49 114.865 135.04C113.639 135.277 113.123 134.989 112.505 135.608C111.987 138.798 112.497 139.043 115.305 138.64C115.876 139.345 115.798 139.652 115.761 140.735C113.97 140.823 111.959 140.78 110.15 140.781C109.831 140.137 110.159 139.923 109.542 139.389L108.875 139.717C109.193 138.247 109.199 137.877 109.122 136.369C110.424 135.387 109.738 134.457 110.196 132.354L110.224 131.11L110.283 128.004Z"/><path fill="#244C75" d="M109.122 136.369C110.424 135.387 109.738 134.457 110.196 132.354C110.22 133.885 110.379 139.578 110.15 140.781C109.831 140.137 110.159 139.923 109.542 139.389L108.875 139.717C109.193 138.247 109.199 137.877 109.122 136.369Z"/><path fill="white" d="M173.497 136.806C173.443 137.572 173.427 138.873 172.972 139.49C171.339 141.705 167.55 141.502 167.522 138.265C167.515 137.458 167.44 137.156 167.972 136.534C168.983 136.818 169.314 138.351 170.593 138.971C172.279 138.155 170.516 136.028 169.723 135.221C168.231 133.702 166.709 132.009 167.613 129.711C168.945 126.329 174.798 128.059 173.078 131.759L173.043 131.833C170.775 131.378 172.017 130.522 170.344 129.981L169.747 130.144C169.318 132.289 172.582 134.573 173.382 136.508L173.428 136.616C173.451 136.679 173.474 136.743 173.497 136.806Z"/><path fill="white" d="M290.387 137.215C291.329 136.818 291.019 136.81 291.926 136.94C292.552 137.624 293.247 138.572 294.076 138.841C296.386 136.36 287.821 132.925 291.353 128.926C294.028 125.898 297.104 129.407 296.444 131.298C295.854 131.736 296.076 131.62 295.247 131.605C293.933 130.546 294.744 129.972 292.958 130.101C292.115 132.075 298.049 136.32 296.449 139.277C295.317 141.369 293.22 141.125 291.509 140.392C290.877 139.307 290.568 138.444 290.387 137.215Z"/><path fill="white" d="M158.341 128.002C159.947 127.982 163.223 127.76 164.26 129.157C163.545 130.088 161.503 130.004 160.431 130.03C160.451 131.111 160.289 132.361 160.913 133.168C161.909 133.716 161.645 133.561 162.873 133.533L163.17 133.832L163.163 134.562C162.472 135.588 161.984 134.644 160.795 135.621C160.283 136.299 160.465 137.383 160.504 138.277L160.612 138.657C162.042 139.289 162.71 137.951 163.763 139.358C163.78 140.199 163.864 139.888 163.41 140.607C162.621 140.949 159.371 140.798 158.313 140.787C158.275 136.525 158.285 132.264 158.341 128.002Z"/><path fill="white" d="M181.49 140.769C181.599 138.887 181.333 128.928 181.987 128.123C182.797 127.969 182.497 127.911 183.181 128.328C184.13 129.989 183.631 136.231 183.726 138.852L186.958 138.634L187.529 138.33L187.914 139.629L187.022 140.551C186.374 140.942 182.445 140.784 181.49 140.769Z"/><path fill="#214A78" d="M187.529 138.33L187.914 139.629L187.022 140.551L186.958 138.634L187.529 138.33Z"/><path fill="#E3E0E2" d="M136.991 141.079L138.194 140.948C139.021 141.694 139.083 141.704 139.19 142.624C138.291 144.274 136.553 143.927 135.629 142.509L135.775 142.226L137.485 142.086L137.599 141.788L136.991 141.079Z"/><path fill="#009BE0" d="M87.9147 116.424C94.9719 116.818 105.059 116.507 112.396 116.507L159.644 116.502L303.502 116.492L303.507 120.222C292.157 120.342 280.692 120.354 269.344 120.263C209.034 119.78 148.535 120.946 88.248 120.223L87.9147 116.424Z"/><path fill="#123B69" d="M112.65 29.4696C120.562 24.1277 127.11 25.2614 136.118 25.2729L160.767 25.3081L184.585 25.2819C188.99 25.2775 194.717 25.067 198.841 25.7074C206.662 26.9216 215.398 35.8297 216.506 43.7174C217.334 49.6187 216.988 57.5784 216.987 63.7468L216.993 102.696L249.849 102.729C255.202 102.73 260.729 102.911 266.042 102.395C267.841 102.22 270.859 100.628 272.059 99.3222C276.361 94.6451 275.592 89.138 271.132 84.9195C265.911 79.9824 259.389 78.5882 252.959 75.8777C240.301 70.4144 224.05 63.445 223.519 47.3328C223.348 42.1446 225.756 36.9848 229.226 33.3522C235.053 27.2532 244.14 25.321 252.309 25.3019C266.256 25.2694 280.256 25.2907 294.22 25.3104C294.214 28.9098 294.265 32.6739 294.159 36.2595L271.043 36.2541C263.663 36.2458 254.466 34.5477 250.506 42.0643C250.142 51.2025 259.885 53.644 266.627 56.4332C274.635 59.7461 286.285 62.4599 293.45 67.0804C296.12 68.7646 298.427 70.9646 300.236 73.5515C302.278 76.455 303.25 79.0627 304.128 82.4429C304.304 83.1224 304.755 85.0631 305 85.5689L305 92.1327C304.538 93.4415 304.187 95.1075 303.784 96.5044C302.031 102.576 298.72 106.9 292.93 109.63C289.351 111.318 283.55 112.814 279.568 113.095C269.118 113.833 257.93 113.565 247.403 113.565L193.342 113.551L193.347 71.3533C193.346 66.561 193.369 61.742 193.338 56.9633C193.306 51.8979 193.396 48.2025 189.575 44.3615C184.853 39.6157 178.148 39.7153 173.516 44.471C171.84 46.1626 170.707 48.316 170.262 50.6555C169.637 54.0575 169.947 67.5368 169.962 71.715C170.013 85.5888 169.829 99.6729 170.001 113.533C163.563 113.562 156.167 113.744 149.818 113.509L149.831 70.5135C149.831 63.9761 150.103 56.6693 149.465 50.1426C149.093 47.9057 147.589 45.9149 146.221 44.3552C139.922 37.1751 127.898 42.0465 126.8 50.7975C126.132 56.1249 126.532 64.2372 126.533 69.7592L126.519 113.537L102.958 113.539C102.945 111.871 103.018 107.908 102.841 106.421C102.971 101.652 102.989 96.8798 102.896 92.1096C103.056 78.7824 102.798 65.3677 102.861 52.0335C102.897 44.2512 102.966 42.2311 106.841 35.3554C106.081 34.5869 104.562 33.3737 103.711 32.659C104.998 30.9931 106.308 29.3455 107.641 27.7165C109.052 28.3294 110.725 28.9722 111.78 30.1074L112.65 29.4696Z"/><path fill="white" d="M103.711 32.659C104.998 30.9931 106.308 29.3455 107.641 27.7165C109.052 28.3294 110.725 28.9722 111.78 30.1074C109.736 32.0854 108.695 33.2089 106.841 35.3554C106.081 34.5869 104.562 33.3737 103.711 32.659Z"/><path fill="#123B69" d="M24.5207 20.857C22.5668 18.7441 12.2599 8.75925 13.429 6.5238C14.6308 6.42417 25.9679 15.2643 27.5858 16.4665C27.8993 16.7047 28.4913 17.1847 28.7955 17.3772L34.2575 21.4148C40.6478 26.2268 47.8403 31.8284 54.3655 36.3521C62.3355 33.2491 75.8102 35.0992 81.8456 41.3774C86.8251 37.2858 91.7519 33.1303 96.6246 28.912C97.7411 28.0422 98.9273 27.0172 100.028 26.1073C101.171 25.1294 102.318 24.1575 103.47 23.1915C106.441 20.6713 117.726 10.4733 120.593 9.93539L120.99 10.1501C120.972 11.7346 110.375 24.2283 108.643 26.5172L107.641 27.7165C106.308 29.3455 104.998 30.9931 103.711 32.659C104.562 33.3737 106.081 34.5869 106.841 35.3554C102.966 42.2311 102.897 44.2512 102.861 52.0335C102.798 65.3677 103.056 78.7824 102.896 92.1096C102.577 94.4781 102.264 96.0553 101.776 98.3835C101.783 95.7827 101.885 92.2874 101.466 89.8147C100.336 92.2412 99.3614 94.8326 98.2244 97.1649C95.2086 103.215 91.1137 108.664 86.1409 113.244C87.1316 124.054 88.7315 135.032 89.5529 145.749C88.6077 145.644 86.1854 145.464 85.9284 144.727C83.5677 137.954 81.2262 125.168 79.7207 118.408C77.2194 119.196 73.5885 121.762 71.5278 122.238C71.4951 134.489 72.7423 147.172 72.8903 159.483C72.9112 161.227 72.9857 163.277 73.1505 165L57.5918 165C57.6965 163.849 57.681 162.787 57.7027 161.637C57.9767 147.119 57.8154 132.547 58.2006 118.038C58.2683 115.863 58.2416 113.515 58.2586 111.326L58.2948 110.049C58.1249 104.734 58.4561 97.6847 58.509 92.1961C55.9303 91.9201 51.4545 89.9611 49.1815 88.6392C42.284 84.628 37.738 78.5178 35.6991 70.8273C33.7 63.1397 34.9687 54.9676 39.2046 48.2479C40.6072 46.0596 42.4962 44.1522 43.7085 42.0614C42.5892 40.6218 40.3775 38.4243 39.0975 36.989C36.233 33.7769 33.2906 30.561 30.3494 27.4187C29.7574 26.5901 27.656 24.3835 26.8678 23.5197L24.5207 20.857Z"/><path fill="#FBE8A8" d="M103.711 32.659C104.562 33.3737 106.081 34.5869 106.841 35.3554C102.966 42.2311 102.897 44.2512 102.861 52.0335C102.798 65.3677 103.056 78.7824 102.896 92.1096C102.577 94.4781 102.264 96.0553 101.776 98.3835C101.783 95.7827 101.885 92.2874 101.466 89.8147C100.336 92.2412 99.3614 94.8326 98.2244 97.1649C95.2086 103.215 91.1137 108.664 86.1409 113.244C84.8701 103.735 84.1841 94.0262 82.9254 84.6652C83.0982 84.6022 83.5307 84.422 83.6552 84.3086C88.0029 80.35 91.0261 74.1405 91.8854 68.4949C92.7236 62.9879 92.2867 55.296 89.1154 50.926C93.9432 44.8073 98.8085 38.7182 103.711 32.659Z"/><defs><linearGradient id="gradient_0" gradientUnits="userSpaceOnUse" x1="36.234787" y1="71.699814" x2="62.795815" y2="63.647251"><stop offset="0" stop-color="#F7D95E"/><stop offset="1" stop-color="#FBE6A2"/></linearGradient></defs><path fill="url(#gradient_0)" d="M43.7085 42.0614C45.2549 43.8301 47.5601 46.5779 49.3567 47.8945C53.1155 50.6489 57.5805 52.8109 61.4267 55.4905C55.6785 58.518 47.2565 62.7469 41.3549 65.4513C42.3123 68.4299 42.0509 71.2836 42.5257 74.1743C44.3739 75.0331 48.1016 76.5883 49.6313 77.5615C52.9283 76.4889 55.4568 75.7491 58.7962 74.9186L58.509 92.1961C55.9303 91.9201 51.4545 89.9611 49.1815 88.6392C42.284 84.628 37.738 78.5178 35.6991 70.8273C33.7 63.1397 34.9687 54.9676 39.2046 48.2479C40.6072 46.0596 42.4962 44.1522 43.7085 42.0614Z"/><path fill="#F8DD75" d="M79.7326 65.2569C83.4969 61.7347 82.2672 61.3998 83.7538 57.3232C84.0087 56.6242 88.3693 51.7971 89.1154 50.926C92.2867 55.296 92.7236 62.9879 91.8854 68.4949C91.0261 74.1405 88.0029 80.35 83.6552 84.3086C83.5307 84.422 83.0982 84.6022 82.9254 84.6652C82.3557 80.3788 80.804 69.0107 79.7326 65.2569Z"/><path fill="#F8DD75" d="M54.3655 36.3521C62.3355 33.2491 75.8102 35.0992 81.8456 41.3774C76.3839 46.0895 76.932 48.3059 73.3684 54.0873C66.5535 48.0524 61.9052 41.9978 54.3655 36.3521Z"/><path fill="#FBE8A8" d="M70.4901 91.4951C71.791 91.3288 72.5294 91.226 73.7884 90.8791C75.0843 97.1152 76.6259 103.547 77.8323 109.741C75.5404 110.714 73.3999 112.425 71.2666 113.175C71.3188 106.571 70.5995 98.3786 70.4901 91.4951Z"/><path fill="white" d="M71.2666 113.175C73.3999 112.425 75.5404 110.714 77.8323 109.741L78.682 113.559C79.0793 115.165 79.5118 116.767 79.7207 118.408C77.2194 119.196 73.5885 121.762 71.5278 122.238L71.5075 120.27L71.2666 113.175Z"/><path fill="#F8DD75" d="M78.682 113.559C79.0793 115.165 79.5118 116.767 79.7207 118.408C77.2194 119.196 73.5885 121.762 71.5278 122.238L71.5075 120.27C73.0496 119.666 77.785 115.05 78.682 113.559Z"/><path fill="#FBE8A8" d="M72.9448 69.7121L73.6374 70.0832C72.8018 73.8235 72.6017 77.2922 71.8942 80.799C71.918 80.2838 71.8041 80.0376 71.6435 79.5605C71.1231 78.9716 70.7763 78.9897 69.9765 78.8762C69.7345 76.5922 69.7464 73.8557 69.7037 71.5223L72.9448 69.7121Z"/><path fill="#F8DD75" d="M70.1121 82.222C70.9366 82.5988 71.7682 82.873 72.2625 83.6242C72.689 86.236 73.158 88.3026 73.7884 90.8791C72.5294 91.226 71.791 91.3288 70.4901 91.4951C70.4079 88.4273 70.2418 85.2936 70.1121 82.222Z"/><path fill="#F8DD75" d="M69.9765 78.8762C70.7763 78.9897 71.1231 78.9716 71.6435 79.5605C71.8041 80.0376 71.918 80.2838 71.8942 80.799C71.9688 81.9046 71.9977 82.5394 72.2625 83.6242C71.7682 82.873 70.9366 82.5988 70.1121 82.222L69.9765 78.8762Z"/><path fill="#C5C4B2" d="M72.9448 69.7121C73.3382 68.1274 73.4561 66.7148 74.1617 65.3206C74.6065 66.1134 73.8831 69.0833 73.6374 70.0832L72.9448 69.7121Z"/><defs><linearGradient id="gradient_1" gradientUnits="userSpaceOnUse" x1="4.3452787" y1="74.222305" x2="50.88522" y2="63.353958"><stop offset="0" stop-color="#F8DD7E"/><stop offset="1" stop-color="#FCEDB9"/></linearGradient></defs><path fill="url(#gradient_1)" d="M24.5207 20.857L26.8678 23.5197C27.656 24.3835 29.7574 26.5901 30.3494 27.4187C33.2906 30.561 36.233 33.7769 39.0975 36.989C40.3775 38.4243 42.5892 40.6218 43.7085 42.0614C42.4962 44.1522 40.6072 46.0596 39.2046 48.2479C34.9687 54.9676 33.7 63.1397 35.6991 70.8273C37.738 78.5178 42.284 84.628 49.1815 88.6392C51.4545 89.9611 55.9303 91.9201 58.509 92.1961C58.4561 97.6847 58.1249 104.734 58.2948 110.049C55.1437 110.037 51.5276 110.669 47.7772 110.592C34.3717 110.317 24.2312 105.775 13.814 97.7244L14.2814 96.992C22.4215 101.513 28.7331 102.365 37.8052 101.834C25.4258 96.4057 17.7967 92.1725 9.71094 80.4753C8.08719 78.1263 1.79407 66.4742 2.21324 64.3489C2.81864 64.8208 4.54692 68.1172 5.10706 69.0156C9.4216 75.9358 14.6969 80.6239 22.2535 83.6317C20.4037 81.0676 18.5076 79.0951 16.7726 76.2538C8.27814 62.3421 7.83173 52.2022 9.09789 36.7304L9.60617 36.6613C10.05 37.9068 9.55908 39.3488 9.82971 40.3059L9.92242 40.29C9.97973 39.9012 10.0488 38.7095 10.0778 38.5694C10.2467 38.9869 10.419 42.4798 10.5773 43.3885C11.6883 49.7644 13.6992 55.5189 18.0618 60.3639C15.0759 46.9784 17.1295 32.4953 24.5207 20.857Z"/><path fill="white" d="M26.8678 23.5197C27.656 24.3835 29.7574 26.5901 30.3494 27.4187C28.2884 30.7446 26.9489 34.4632 25.5988 38.1168C25.0352 34.6727 24.9174 26.2954 26.8678 23.5197Z"/><defs><linearGradient id="gradient_2" gradientUnits="userSpaceOnUse" x1="70.536133" y1="3.6540828" x2="67.109612" y2="38.848976"><stop offset="0" stop-color="#F7D96C"/><stop offset="1" stop-color="#FCEFBF"/></linearGradient></defs><path fill="url(#gradient_2)" d="M34.2575 21.4148C34.296 21.3542 34.3359 21.2943 34.3769 21.2353C39.8019 13.3805 54.4927 3.62424 63.6658 1.93567C53.0047 7.46024 48.6534 11.8136 43.2757 22.4229C44.2919 21.7941 47.2296 19.4707 48.318 18.6447C60.1795 9.64248 75.6818 6.95366 90.2965 9.22247C90.498 9.91568 90.3296 9.69864 90.9046 10.059C82.0211 10.485 73.7054 11.8619 66.7773 18.0575C77.1647 16.1819 85.7996 16.0856 95.9089 19.7145C98.3156 20.5784 101.422 21.6696 103.47 23.1915C102.318 24.1575 101.171 25.1294 100.028 26.1073C98.9273 27.0172 97.7411 28.0422 96.6246 28.912C91.7519 33.1303 86.8251 37.2858 81.8456 41.3774C75.8102 35.0992 62.3355 33.2491 54.3655 36.3521C47.8403 31.8284 40.6478 26.2268 34.2575 21.4148Z"/><path fill="white" d="M89.1929 25.701C89.7817 25.6144 90.3725 25.5418 90.9647 25.4833C93.0745 25.275 98.4133 24.7826 100.028 26.1073C98.9273 27.0172 97.7411 28.0422 96.6246 28.912C94.9776 27.8443 91.1814 26.4666 89.1929 25.701Z"/><path fill="#F8DD75" d="M33.1269 117.31C39.7005 116.737 45.1032 117.171 51.5172 114.607C53.504 113.813 56.7177 111.668 58.2586 111.326C58.2416 113.515 58.2683 115.863 58.2006 118.038C51.9226 118.69 39.0443 119.519 33.1269 117.31Z"/><path fill="#F8DD75" d="M33.3036 9.16515C32.1731 11.9602 30.0086 14.3668 28.7955 17.3772C28.4913 17.1847 27.8993 16.7047 27.5858 16.4665C28.9854 14.1335 31.4525 11.1941 33.3036 9.16515Z"/><path fill="#F8DD75" d="M108.643 26.5172C109.972 27.266 111.833 28.1939 112.65 29.4696L111.78 30.1074C110.725 28.9722 109.052 28.3294 107.641 27.7165L108.643 26.5172Z"/><path fill="#F8DD75" d="M10.6667 31.7808C10.1697 34.4811 10.01 35.7367 10.0778 38.5694C10.0488 38.7095 9.97973 39.9012 9.92242 40.29L9.82971 40.3059C9.55908 39.3488 10.05 37.9068 9.60617 36.6613L9.09789 36.7304C9.39652 34.6512 9.77165 33.6846 10.6667 31.7808Z"/><path fill="#F8DD75" d="M13.814 97.7244C12.6603 97.0606 11.2394 96.1132 10.8866 94.9069C10.7162 94.8724 10.785 94.877 10.6717 94.8815C11.8323 95.2041 13.2429 96.284 14.2814 96.992L13.814 97.7244Z"/><path fill="#F8DD75" d="M90.2965 9.22247C92.2303 9.49776 92.9124 9.71064 94.7189 10.3194C93.5596 10.2364 92.0359 10.0806 90.9046 10.059C90.3296 9.69864 90.498 9.91568 90.2965 9.22247Z"/></svg>