<?xml version="1.0" encoding="utf-8" ?><svg xmlns="http://www.w3.org/2000/svg" xmlns:xlink="http://www.w3.org/1999/xlink" width="319" height="158" viewBox="0 0 319 158"><path fill="white" d="M0 0L319 0L319 158L0 158L0 0Z"/><path fill="#FE6700" d="M52.1012 12.1046C54.0357 13.1559 59.7888 21.1011 61.4765 23.2233C65.4129 28.1733 69.46 33.3888 73.2229 38.4952C73.895 39.4073 77.3034 46.0612 77.7667 46.1884C81.5013 47.2134 82.2462 46.7316 84.9216 49.8871C88.4774 49.043 92.0862 48.4401 95.7233 48.0824C99.0289 47.7625 125.153 46.6552 126.739 47.1444C127.293 47.3152 127.56 47.7989 127.818 48.2817C127.585 50.9139 117.189 51.5027 114.6 51.8608C113.936 54.6745 112.794 57.7989 111.992 60.6132C110.013 67.5574 108.39 72.5509 105.252 79.0293C106.849 81.2809 106.911 81.5903 106.061 84.2129C112.134 89.7478 115.651 95.2908 120.585 101.785L117.541 102.639C112.34 97.2795 107.757 92.7763 103.768 86.4212C104.523 104.665 104.411 123.967 104.832 142.364C106.114 143.496 107.208 144.498 108.429 145.702C105.474 145.732 99.778 145.831 97.016 145.539L96.9264 145.242C97.5515 144.295 98.8631 143.368 99.7863 142.637C100.199 135.777 100.149 126.806 100.303 119.752C100.536 109.115 101.058 96.8397 100.791 86.3022L98.6848 84.4766C92.2696 86.3449 88.5381 86.7526 81.9569 87.4735C82.1433 105.334 82.517 123.192 83.0778 141.044C84.1505 141.985 86.83 143.789 87.2239 145.002L87.0162 145.379L86.0624 145.495C81.4822 145.51 76.7252 145.57 72.1397 145.461C71.3532 145.442 71.355 145.431 70.9698 144.968C71.2458 144.14 74.7475 141.542 75.634 140.839C75.5143 136.922 75.7359 131.749 75.7948 127.754C75.8969 119.308 76.0616 110.864 76.2887 102.42L76.1728 102.348C73.1292 100.403 67 93.102 64.1621 90.008C63.1394 92.1421 61.4304 97.1622 58.9012 97.3294C58.0272 96.808 58.3156 97.0755 57.7706 96.1448C57.5348 94.7466 60.3776 88.6996 61.0679 86.7013C57.6559 83.2146 56.177 80.9712 53.3784 76.9793C53.7698 83.0591 53.6298 90.6707 53.7713 96.8068C54.1384 111.827 54.3909 126.849 54.5287 141.873C55.4322 142.603 57.7708 144.312 58.2034 145.246L57.9662 145.609C54.2886 145.855 48.2894 145.667 44.4377 145.669C45.7092 144.493 47.4734 143.094 48.8306 141.959C49.0649 137.407 48.948 132.364 49.0404 127.751L49.6162 102.048C49.7148 94.4591 50.2487 83.956 49.8589 76.6493L47.5392 74.6275C41.9557 76.1125 38.6552 76.8003 33.0363 77.5203L20.9429 79.0436C19.1212 79.2738 15.18 80.1753 13.854 79.1504C13.5855 78.3447 13.5918 78.6656 13.9092 77.8285C15.1509 76.7506 35.5254 72.2336 38.2704 71.774C41.0036 71.2919 43.7697 71.0201 46.5444 70.9611C47.9328 68.6404 48.8508 67.5586 51.4659 66.7526C54.407 56.7694 59.1481 45.2424 63.8618 35.8957C62.2824 33.5479 50.5073 15.1938 50.5687 14.0297C50.7595 13.1643 51.4359 12.6964 52.1012 12.1046Z"/><path fill="white" d="M111.053 52.3749L111.578 52.344C112.085 54.0988 103.324 71.2061 103.074 74.5287C103.053 74.8136 102.387 77.0669 102.258 77.56C99.9795 78.5426 99.257 79.0813 98.1078 81.1949C97.524 81.2925 96.8565 81.3684 96.267 81.4071C91.4273 81.725 86.9624 82.7913 82.2586 83.9149C81.502 83.1105 81.4779 61.4446 81.4378 58.7441C83.5071 57.6908 84.4181 56.5297 85.4294 54.4972C89.151 54.6339 94.21 54.6019 97.8144 54.206C102.192 53.7251 106.622 52.8421 111.053 52.3749Z"/><path fill="white" d="M65.4496 38.8792C65.7326 39.1453 65.9411 39.5075 66.173 39.8183C68.6379 43.1219 71.3227 46.2416 73.9581 49.4099C72.4003 52.6293 72.8409 54.1828 74.748 57.1493C68.8817 65.5201 67.4189 71.5729 63.4732 80.6605L63.3484 81.0817C62.5923 81.0227 57.4625 75.4727 56.0906 74.3236C57.0161 71.4748 56.9996 70.7384 55.1065 68.2906C59.3046 60.6546 62.7438 47.6773 65.4496 38.8792Z"/><path fill="white" d="M76.5385 65.8884C77.0631 66.9964 76.6535 82.5697 76.7215 85.1689C75.335 85.4943 69.4584 86.5709 69.45 88.1695C70.9503 89.0807 74.7355 88.3941 76.5548 88.1907C76.5151 89.6888 76.5275 97.8918 75.9603 98.6246L75.5885 98.229C72.7534 94.2253 69.3693 89.9076 66.3726 85.9866C69.536 79.2403 73.7194 73.0945 76.5385 65.8884Z"/><path fill="#003D6C" d="M276.627 56.8739C284.326 56.7998 289.955 56.9796 296.321 62.4899C301.125 66.6477 303.168 72.2354 303.537 78.4426C298.293 78.396 293.049 78.4149 287.806 78.4992C286.922 75.8681 286.595 75.1923 284.466 73.4543C282.912 73.1154 280.494 72.9668 278.748 73.0199C274.179 73.1591 265.802 71.5658 265.753 78.5312C265.72 87.6308 265.555 96.4336 265.842 105.555C266.072 112.847 273.515 110.765 278.499 111.105C281.753 111.328 284.066 111.225 286.485 108.886L291.26 108.286C295.201 107.754 299.981 106.689 303.742 105.44C303.345 107.605 303.473 108.842 302.845 111.273C283.981 114.205 268.99 113.03 250.328 110.82C249.213 105.381 249.977 93.6295 249.755 87.6334C249.438 79.0778 249.497 69.3981 256.119 63.0543C262.406 57.0317 268.617 56.8728 276.627 56.8739Z"/><path fill="#003D6C" d="M197.218 56.878L227.578 56.8977C233.502 56.8996 239.869 57.0168 245.739 56.8356C245.609 62.0749 245.709 67.7605 245.699 73.0367C240.29 73.0757 234.882 73.0769 229.474 73.0403L229.471 90.375L229.488 106.895C226.394 106.11 216.432 103.857 213.497 103.47L213.512 73.0309C208.103 73.1242 202.662 73.0306 197.217 73.1323L197.218 56.878Z"/><path fill="#003D6C" d="M122.773 104.786C122.871 104.389 123.023 103.414 123.287 103.356C127.498 102.422 135.056 102.087 139.229 101.758L139.209 105.926C139.281 106.574 139.293 107.028 139.56 107.623C142.001 111.953 146.449 112.362 149.403 108.267C162.275 109.653 174.394 111.665 186.916 114.907C188.072 115.207 189.367 115.527 190.537 115.758C189.352 117.645 188.458 118.826 186.968 120.529C180.229 128.23 165.645 129.654 158.023 122.27C144.793 132.931 124.756 124.467 123.219 108.199C123.192 107.193 122.987 105.773 122.773 104.786Z"/><defs><linearGradient id="gradient_0" gradientUnits="userSpaceOnUse" x1="131.93843" y1="109.31607" x2="136.67897" y2="104.29477"><stop offset="0" stop-color="#D4D9E4"/><stop offset="1" stop-color="#FCF3F6"/></linearGradient></defs><path fill="url(#gradient_0)" d="M127.193 107.665C131.36 106.401 134.871 106.214 139.209 105.926C139.281 106.574 139.293 107.028 139.56 107.623C135.434 107.356 131.397 107.837 127.193 107.665Z"/><path fill="#003D6C" d="M123.183 56.8842C126.711 57.152 135.283 56.8975 139.161 56.9358C138.935 60.3734 139.147 65.2573 139.093 68.7982C138.946 78.5215 139.285 88.3954 139.12 98.1139L136.559 98.4935C134.408 98.6088 125.185 100.701 122.988 101.257L122.974 70.5293C122.973 68.5793 122.817 58.0951 123.183 56.8842Z"/><path fill="#003D6C" d="M192.761 56.8916L192.79 56.9095C193.286 57.5306 193.047 95.1112 193.041 99.3361C189.256 98.5789 183.751 97.7681 179.915 97.3961C178.861 97.3404 178.243 97.3417 177.225 97.0326C176.894 96.4042 177.011 59.8751 177.003 56.9451C182.029 56.7675 187.689 56.8911 192.761 56.8916Z"/><path fill="#003D6C" d="M300.623 116.507C292.618 128.954 280.957 127.338 268.081 126.768C266.217 126.686 263.995 125.934 262.384 125.02L262.142 124.664C262.721 124.431 264.413 124.686 265.412 124.608C268.385 124.378 271.316 123.99 274.273 123.619C273.896 122.964 273.72 122.921 273 122.642C268.243 122.858 262.513 122.515 257.677 122.342C256.164 120.878 254.676 119.462 253.531 117.673C267.942 119.008 286.324 119.791 300.623 116.507Z"/><path fill="#EAE8EF" d="M273 122.642C275.126 122.454 277.256 122.321 279.389 122.243C277.555 122.948 276.278 123.385 274.273 123.619C273.896 122.964 273.72 122.921 273 122.642Z"/><path fill="#003D6C" d="M150.042 83.9437L166.183 83.9651L166.146 96.4449C160.394 96.449 155.763 96.5962 150.032 97.0188C150.091 92.7043 150.04 88.2684 150.042 83.9437Z"/><path fill="#FE6700" d="M125.507 142.012C126.078 139.601 126.142 134.801 127.449 133.227C128.338 132.786 128.343 132.937 129.4 132.987C130.387 133.685 131.002 140.352 131.517 142.436C131.739 140.542 132.171 133.753 133.533 132.998C134.455 133.021 134.571 132.881 135.28 133.335C135.329 134.004 135.103 134.719 134.94 135.378C134.3 138.866 133.632 142.349 132.935 145.827L129.814 145.905C129.432 143.206 129.086 140.75 128.52 138.075C127.741 140.595 127.371 143.248 126.996 145.85C126.073 145.845 124.85 145.934 123.904 145.976C122.996 141.658 122.146 137.328 121.352 132.988C122.269 132.95 123.004 132.857 123.876 133.154C124.22 133.931 125.23 140.55 125.507 142.012Z"/><path fill="#FE6700" d="M152.787 132.925C154.623 132.936 158.135 132.797 159.555 133.845C162.595 136.086 161.866 141.885 160.036 144.605C158.369 145.922 154.894 145.728 152.811 145.757C152.758 141.494 152.786 137.191 152.787 132.925Z"/><path fill="white" d="M155.286 135.442C155.838 135.465 157.015 135.519 157.492 135.731C159.928 136.815 159.201 140.818 158.39 142.677C157.363 143.056 156.707 143.242 155.745 142.879C154.638 141.359 155.214 137.561 155.286 135.442Z"/><path fill="#003D6C" d="M176.982 132.963C177.827 132.954 178.672 132.953 179.517 132.96C185.231 132.989 187.745 136.836 183.04 141.087C183.945 142.51 185.125 143.839 184.966 145.382C184.186 145.916 183.833 145.729 182.754 145.727C182.103 144.557 181.164 141.705 180.005 141.244C178.424 142.362 180.555 144.683 178.364 146.025C177.712 145.879 177.031 145.31 177.011 144.601C176.9 140.736 176.975 136.837 176.982 132.963Z"/><path fill="white" d="M179.522 135.488C180.974 135.462 182.023 135.393 182.775 136.722C182.859 137.528 182.57 137.883 182.162 138.569C181.946 138.636 181.729 138.697 181.51 138.752C180.601 138.973 180.392 138.894 179.729 138.495C179.245 137.648 179.455 136.5 179.522 135.488Z"/><path fill="#003D6C" d="M213.503 120.422C216.515 121.159 226.482 122.675 229.495 122.85C229.5 124.338 229.508 125.665 229.395 127.155C224.608 126.992 218.27 127.101 213.502 127.227L213.503 120.422Z"/><path fill="#003D6C" d="M293.643 132.994C296.017 132.936 299.038 132.624 300.886 134.375C303.277 136.641 301.611 139.328 299.798 141.145C300.603 142.478 301.803 143.967 301.619 145.371C300.784 145.878 300.451 145.662 299.309 145.606C298.767 144.342 297.945 141.944 296.817 141.317C295.41 141.986 296.656 144.285 295.475 145.987L295.046 146.063C294.417 145.87 293.61 144.761 293.618 144.176C293.669 140.447 293.722 136.729 293.643 132.994Z"/><path fill="white" d="M296.192 135.476C297.691 135.46 298.538 135.375 299.356 136.687C299.462 137.567 299.272 137.829 298.864 138.596C298.042 138.759 297.183 138.983 296.478 138.552C295.745 137.463 295.972 136.817 296.192 135.476Z"/><path fill="#003D6C" d="M177.028 103.174C177.556 103.29 178.088 103.363 178.622 103.438C183.476 104.117 188.287 105.025 193.113 105.879C193.054 107.55 192.65 109.613 192.362 111.285C188.718 110.456 180.103 108.542 176.526 108.155C176.891 106.155 176.983 105.195 177.028 103.174Z"/><path fill="#FE6700" d="M142.003 132.726C142.334 132.76 143.222 132.885 143.481 132.999C145.243 133.776 147.243 138.793 148.151 140.622C148.11 138.482 147.376 134.977 148.473 133.371C149.357 132.914 148.984 132.998 149.992 133.047C150.87 134.015 150.497 143.866 150.404 145.803C150.138 145.807 149.019 145.816 148.859 145.744C147.021 144.924 145.293 140.514 144.054 138.538C143.931 140.087 144.643 145.068 143.605 145.638C142.889 145.658 142.514 145.736 141.948 145.319C141.613 143.878 141.671 134.054 142.003 132.726Z"/><path fill="#003D6C" d="M202.908 132.94C203.265 132.93 204.302 132.906 204.561 133.023C206.256 133.782 208.249 138.847 209.213 140.711C209.096 138.64 208.475 134.508 209.73 133.033C210.603 132.988 210.698 132.833 211.33 133.266C211.717 135.59 211.506 142.914 211.491 145.715C211.078 145.735 210.01 145.798 209.721 145.651C208.126 144.843 206.128 140.212 205.124 138.484C204.936 140.795 206.18 144.204 204.288 145.652C203.424 145.75 203.658 145.849 202.987 145.469C202.628 142.813 202.756 135.759 202.908 132.94Z"/><path fill="#003D6C" d="M218.579 132.951C219.129 132.945 219.707 132.973 220.259 132.992C222.034 133.876 223.992 138.783 224.859 140.637C224.917 138.717 224.219 134.372 225.657 133.112C226.509 132.928 226.215 132.88 226.966 133.179C227.394 135.296 227.195 142.962 227.175 145.412C224.749 148.064 221.662 139.733 220.969 138.23C220.839 140.57 221.91 144.687 219.719 145.724C219.401 145.7 218.789 145.75 218.746 145.415C218.283 141.827 218.534 136.486 218.579 132.951Z"/><path fill="#003D6C" d="M263.685 132.971C264.063 132.946 265.146 132.874 265.419 133.035C267.304 134.149 268.954 138.693 269.803 140.652C269.865 138.74 269.457 134.376 270.587 133.159C271.413 132.919 271.088 132.924 271.917 133.118C272.551 134.395 272.233 143.577 272.205 145.707C271.865 145.725 270.642 145.786 270.425 145.669C268.506 144.635 266.9 140.107 266.081 138.2C265.909 140.514 266.84 144.424 264.933 145.691C264.142 145.739 264.271 145.856 263.731 145.486C263.452 142.367 263.66 136.309 263.685 132.971Z"/><path fill="#003D6C" d="M213.506 110.347C218.849 111.422 224.158 112.825 229.509 113.892L229.475 118.533C224.218 117.555 218.767 116.465 213.502 115.618L213.506 110.347Z"/><path fill="#003D6C" d="M190.138 133.014C191.196 132.939 191.741 132.866 192.791 133.073C193.663 133.845 196.553 144.768 196.036 145.563C195.203 145.729 195.023 145.742 194.181 145.64C193.535 145.161 193.322 143.837 193.097 142.989C192.076 142.983 191.562 142.975 190.544 143.141C189.702 143.984 189.985 144.247 189.488 145.514C188.476 145.93 188.057 146.124 187.24 145.364C187.06 144.694 189.786 134.715 190.138 133.014Z"/><path fill="#EAE8EF" d="M191.461 137.141C192.363 138.037 192.763 139.883 191.971 140.999C191.54 140.88 191.34 140.753 190.959 140.543C190.603 139.329 191.068 138.358 191.461 137.141Z"/><path fill="#003D6C" d="M232.411 133.032C234.083 132.964 236.496 132.589 237.564 134.017C237.658 137.61 235.065 134.45 232.98 135.717C230.389 137.292 231.84 145.71 235.408 142.824C235.53 141.397 233.333 140.831 234.074 139.173C234.7 138.652 235.44 138.723 236.257 138.697C236.658 138.72 237.073 138.802 237.472 138.868C238.278 139.796 237.884 143.745 237.856 145.209C230.593 147.059 227.94 143.804 229.592 136.171C229.921 134.651 231.039 133.708 232.411 133.032Z"/><path fill="#003D6C" d="M150.071 101.407C154.574 101.841 160.88 101.531 166.234 102.001L166.17 106.501C160.577 105.995 155.684 105.597 150.057 105.483L150.071 101.407Z"/><path fill="#003D6C" d="M284.046 132.977C285.372 132.961 290.497 132.747 291.277 133.306C291.774 134.203 291.799 133.94 291.689 134.784C290.912 135.814 288.172 135.357 286.683 135.768C286.123 136.575 286.138 136.303 286.19 137.116C286.973 138.165 289.495 137.716 290.733 138.351C290.866 139.436 290.975 139.148 290.573 140.018C289.131 140.915 287.5 139.482 286.372 140.989C286.54 145.354 289.394 141.924 291.31 143.643C291.575 144.456 291.552 144.615 291.441 145.473C290.767 145.843 285.261 145.704 284.042 145.707C284.146 141.556 284.084 137.138 284.046 132.977Z"/><path fill="#003D6C" d="M254.006 132.99C255.242 132.986 260.532 132.797 261.367 133.24C261.535 133.816 261.387 134.205 261.247 134.791C259.715 136.469 258.405 134.983 256.563 135.758C254.79 138.609 259.156 137.465 260.476 138.294C260.934 139.015 260.89 138.727 260.788 139.496C259.187 141.636 256.976 139.075 256.278 140.987C256.209 144.79 258.096 142.826 260.641 143.1C261.519 143.194 261.597 144.773 261.298 145.473C260.272 145.901 255.365 145.707 253.994 145.703L254.006 132.99Z"/><path fill="#003D6C" d="M247.685 132.8C249.213 132.718 251.1 132.957 252.296 133.992C253.291 136.942 248.049 134.973 246.961 135.917C245.529 137.159 245.955 141.166 246.913 142.519C247.794 143.763 250.625 142.952 252.08 143.068C252.181 144.109 252.459 145.234 251.196 145.616C248.163 146.605 244.502 145.352 243.819 141.933C243.03 137.985 243.285 134.023 247.685 132.8Z"/><path fill="#003D6C" d="M274.205 133.012C276.288 133.018 280.913 132.198 282.133 133.886C282.303 134.687 282.363 134.467 282.14 135.192C281.489 135.701 280.238 135.562 279.351 135.561C279.324 138.228 279.319 140.895 279.335 143.563C279.389 144.58 279.619 145.047 279.079 145.678C278.031 145.774 278.357 145.88 277.524 145.423C276.134 143.316 277.482 138.092 276.869 135.783C275.835 135.176 275.947 135.798 274.532 135.475C274.048 134.73 274.22 134.036 274.205 133.012Z"/><path fill="#003D6C" d="M166.967 133.01C168.524 132.986 173.482 132.838 174.786 133.047C175.097 133.451 175.145 133.889 175.033 134.451C174.632 136.458 173.474 134.869 172.329 135.821C171.872 137.269 172.081 141.629 172.102 143.313C172.106 144.334 172.295 144.972 171.814 145.706C170.766 145.753 171.001 145.891 170.254 145.419C169.094 143.319 170.182 138.403 169.726 135.744C168.938 135.207 168.565 135.874 167.267 135.458C166.843 134.718 166.987 133.969 166.967 133.01Z"/><path fill="#FE6700" d="M137.071 132.934C137.872 132.931 138.654 132.843 139.329 133.261C139.606 134.64 139.498 143.823 139.502 145.763C138.642 145.783 138.271 145.824 137.428 145.564C136.688 144.792 137.051 134.741 137.071 132.934Z"/><path fill="#003D6C" d="M198.217 132.989C198.98 132.96 199.643 132.871 200.338 133.195C200.65 134.168 200.507 144.078 200.501 145.621C199.712 145.685 198.981 145.817 198.256 145.502C197.988 144.588 198.202 134.553 198.217 132.989Z"/><path fill="#003D6C" d="M213.915 132.991C214.675 132.974 215.522 132.843 216.088 133.303C216.341 135.505 216.247 143.285 216.15 145.698C215.357 145.729 214.998 145.717 214.211 145.622C213.586 144.875 213.898 134.751 213.915 132.991Z"/><path fill="#FE6700" d="M118.509 103.902C120.957 103.346 121.237 102.748 122.773 104.786C122.987 105.773 123.192 107.193 123.219 108.199C122.105 108.033 119.53 104.949 118.509 103.902Z"/></svg>