<?xml version="1.0" encoding="utf-8" ?><svg xmlns="http://www.w3.org/2000/svg" xmlns:xlink="http://www.w3.org/1999/xlink" width="166" height="60" viewBox="0 0 166 60"><path fill="white" d="M0 0L166 0L166 60L0 60L0 0Z"/><path fill="#173568" d="M9.43427 21.3218C10.3156 20.3087 14.5349 15.7566 15.7023 15.8128L15.0482 16.7234C16.1712 18.1379 15.9618 17.9655 14.8674 19.5835L13.8298 22.2403C14.1493 23.5613 14.579 23.8871 16.0003 24.078C18.2022 24.9214 19.3307 24.9222 18.1088 27.4581L17.9193 27.9774C18.8401 28.0936 19.6883 28.1303 20.4677 28.6383C22.1994 31.0806 16.5708 33.0365 15.3396 34.0021C14.7831 34.5209 13.6741 34.8133 12.918 35.0645L11.4052 35.2527C10.9136 36.7084 11.7609 37.4599 11.6167 38.4653C11.2833 38.1577 10.5134 36.9077 9.83372 36.2037L9.4118 35.6871C8.97333 34.6801 8.47602 33.7089 8.43351 32.6086C7.63206 31.9307 6.32579 32.5044 5.15743 32.3618C5.36654 31.9832 6.55497 31.9447 7.37185 31.5168C8.34404 29.1565 5.78161 26.963 9.43427 21.3218Z"/><path fill="#24A4CD" d="M9.43427 21.3218C10.3156 20.3087 14.5349 15.7566 15.7023 15.8128L15.0482 16.7234C16.1712 18.1379 15.9618 17.9655 14.8674 19.5835L13.8298 22.2403C14.1493 23.5613 14.579 23.8871 16.0003 24.078C18.2022 24.9214 19.3307 24.9222 18.1088 27.4581C16.7485 28.2513 14.8984 29.299 13.7715 30.3429C13.6119 30.2699 12.9352 29.6683 12.7563 29.515C12.5538 29.6274 11.9054 30.0042 11.7319 30.0686C11.42 28.8864 11.4991 28.1945 11.5654 26.9994C11.4763 25.289 11.5466 25.3613 10.176 24.4586C10.3855 23.5024 10.8442 22.5 11.2272 21.5898L9.43427 21.3218Z"/><path fill="#D5F9FE" d="M13.8298 22.2403C14.1493 23.5613 14.579 23.8871 16.0003 24.078C18.2022 24.9214 19.3307 24.9222 18.1088 27.4581C16.7485 28.2513 14.8984 29.299 13.7715 30.3429C13.6119 30.2699 12.9352 29.6683 12.7563 29.515C12.9179 29.3993 13.5679 29.0813 13.7833 28.9703C13.0256 27.2186 13.2578 24.0757 13.8298 22.2403Z"/><path fill="#081E3D" d="M16.0003 24.078C18.2022 24.9214 19.3307 24.9222 18.1088 27.4581C16.7485 28.2513 14.8984 29.299 13.7715 30.3429C13.6119 30.2699 12.9352 29.6683 12.7563 29.515C12.9179 29.3993 13.5679 29.0813 13.7833 28.9703C14.2253 28.721 14.6487 28.4401 15.0502 28.1298C17.9184 25.9268 15.7677 25.8342 16.0003 24.078Z"/><path fill="#194760" d="M9.43427 21.3218C10.3156 20.3087 14.5349 15.7566 15.7023 15.8128L15.0482 16.7234C16.1712 18.1379 15.9618 17.9655 14.8674 19.5835L14.546 19.4775L14.2453 19.789C13.9831 19.9818 13.6765 20.1388 13.3903 20.2966L12.7131 19.3888L11.2272 21.5898L9.43427 21.3218Z"/><path fill="#D5F9FE" d="M15.0482 16.7234C16.1712 18.1379 15.9618 17.9655 14.8674 19.5835L14.546 19.4775L14.2453 19.789C13.9831 19.9818 13.6765 20.1388 13.3903 20.2966L12.7131 19.3888C13.3606 18.523 14.1729 17.3005 15.0482 16.7234Z"/><path fill="#BDF7FF" d="M11.2272 21.5898L12.7131 19.3888L13.3903 20.2966C13.6765 20.1388 13.9831 19.9818 14.2453 19.789C12.6632 22.4669 11.9868 23.8828 11.5654 26.9994C11.4763 25.289 11.5466 25.3613 10.176 24.4586C10.3855 23.5024 10.8442 22.5 11.2272 21.5898Z"/><path fill="#194760" d="M13.7715 30.3429C14.8984 29.299 16.7485 28.2513 18.1088 27.4581L17.9193 27.9774C18.8401 28.0936 19.6883 28.1303 20.4677 28.6383C22.1994 31.0806 16.5708 33.0365 15.3396 34.0021C14.7831 34.5209 13.6741 34.8133 12.918 35.0645L11.4052 35.2527L11.1593 35.1265C11.9496 34.6953 12.202 34.5665 12.8243 33.9155L12.6405 33.5512C12.748 33.4198 12.8589 33.2911 12.9729 33.1653C13.6076 32.4761 13.6292 32.5687 14.4205 32.535C14.4913 31.5159 14.3525 31.0966 13.7715 30.3429Z"/><path fill="#D5F9FE" d="M13.7715 30.3429C14.8984 29.299 16.7485 28.2513 18.1088 27.4581L17.9193 27.9774C18.3135 28.8158 18.7705 29.3292 18.413 30.2704C17.7973 31.8917 16.2851 32.5618 14.6549 32.7924L14.4205 32.535C14.4913 31.5159 14.3525 31.0966 13.7715 30.3429Z"/><path fill="#D5F9FE" d="M10.176 24.4586C11.5466 25.3613 11.4763 25.289 11.5654 26.9994C11.4991 28.1945 11.42 28.8864 11.7319 30.0686C11.6701 30.1252 11.6051 30.1781 11.5372 30.2273C10.9397 30.6542 10.6763 30.8076 10.0651 30.7017C9.03758 29.5142 9.84957 25.9324 10.176 24.4586Z"/><path fill="#173568" d="M8.43351 32.6086C8.90494 32.3672 9.37129 32.116 9.83226 31.8552C10.0967 32.7745 10.4526 34.5349 11.1593 35.1265L11.4052 35.2527C10.9136 36.7084 11.7609 37.4599 11.6167 38.4653C11.2833 38.1577 10.5134 36.9077 9.83372 36.2037L9.4118 35.6871C8.97333 34.6801 8.47602 33.7089 8.43351 32.6086Z"/><path fill="#BDF7FF" d="M9.83226 31.8552C10.4555 31.5792 11.4287 31.0549 12.0596 31.1577C12.6964 32.0413 12.0337 32.6308 12.6405 33.5512L12.8243 33.9155C12.202 34.5665 11.9496 34.6953 11.1593 35.1265C10.4526 34.5349 10.0967 32.7745 9.83226 31.8552Z"/><path fill="white" d="M119.32 28.7227C120.002 28.8123 120.159 28.8296 120.771 28.5277C122.873 28.4834 125.648 28.3715 126.269 30.9369C125.947 32.4798 125.248 32.6585 123.916 33.3632C124.731 34.321 126.68 36.2592 126.612 37.3972C124.807 37.6035 123.657 33.7368 122.206 33.7292C121.704 35.5889 123.072 36.6262 120.938 37.7486C120.407 36.9417 119.789 37.0893 119.011 37.1967C117.343 37.2802 115.376 37.2617 113.683 37.29C113.546 34.5679 113.686 31.3043 113.685 28.5214C115.23 28.5038 117.903 28.4283 119.32 28.7227Z"/><path fill="#081E3D" d="M120.771 28.5277C122.873 28.4834 125.648 28.3715 126.269 30.9369C125.947 32.4798 125.248 32.6585 123.916 33.3632C124.731 34.321 126.68 36.2592 126.612 37.3972C124.807 37.6035 123.657 33.7368 122.206 33.7292C121.704 35.5889 123.072 36.6262 120.938 37.7486C120.615 36.0692 120.984 30.8789 120.771 28.5277Z"/><defs><linearGradient id="gradient_0" gradientUnits="userSpaceOnUse" x1="123.41795" y1="29.989071" x2="123.20856" y2="31.561079"><stop offset="0" stop-color="#D4E6F7"/><stop offset="1" stop-color="#DEDFFF"/></linearGradient></defs><path fill="url(#gradient_0)" d="M122.587 29.7366C123.231 29.3415 124.073 29.5263 124.492 30.155C124.912 30.7838 124.76 31.6317 124.148 32.0752C123.73 32.3776 123.181 32.4275 122.715 32.2052C122.25 31.9829 121.944 31.524 121.917 31.0091C121.89 30.4943 122.147 30.0061 122.587 29.7366Z"/><path fill="#081E3D" d="M113.685 28.5214C115.23 28.5038 117.903 28.4283 119.32 28.7227C117.954 30.3477 113.417 28.7068 115.028 31.7433C115.94 31.8938 118.215 31.9432 118.758 32.2838L118.729 32.6643C116.905 34.1311 116.422 32.5911 115.224 33.4057C114.798 34.2319 114.942 35.2387 114.995 36.1724C116.067 36.1456 117.623 36.0029 118.572 36.3944C118.758 36.6469 118.979 36.889 119.011 37.1967C117.343 37.2802 115.376 37.2617 113.683 37.29C113.546 34.5679 113.686 31.3043 113.685 28.5214Z"/><path fill="#081E3D" d="M92.4388 28.4742C94.9 28.4534 97.2246 28.3736 99.2564 30.0497C101.296 31.7322 100.464 34.5489 98.9215 36.2775C96.924 37.5369 94.6235 37.3036 92.3308 37.2816C92.4213 34.4111 92.4049 31.3601 92.4388 28.4742Z"/><path fill="white" d="M93.7366 29.4316C97.2998 30.0069 100.966 31.1104 97.8726 35.478C96.574 36.1114 95.1209 36.1738 93.7049 36.284L93.7366 29.4316Z"/><path fill="#24A4CD" d="M12.918 35.0645C13.6741 34.8133 14.7831 34.5209 15.3396 34.0021C17.7468 40.0521 15.0771 44.4391 11.0632 48.7185C11.7291 46.9321 12.6573 44.6412 13.0495 42.8249C12.8637 40.5343 13.6604 40.2202 11.6167 38.4653C11.7609 37.4599 10.9136 36.7084 11.4052 35.2527L12.918 35.0645Z"/><path fill="#D5F9FE" d="M11.4052 35.2527L12.918 35.0645C13.131 37.1102 13.5531 40.8877 13.0495 42.8249C12.8637 40.5343 13.6604 40.2202 11.6167 38.4653C11.7609 37.4599 10.9136 36.7084 11.4052 35.2527Z"/><path fill="#081E3D" d="M72.8396 34.823C73.3121 32.8105 74.226 29.9086 75.6791 28.3959L75.9925 28.5124C76.101 29.4804 75.6666 30.5099 75.3488 31.4393C74.9238 32.5334 73.6528 36.5464 72.6613 36.7398C71.8359 35.9126 70.6369 32.1662 70.2007 30.9167C69.6821 33.0073 68.4889 35.5417 67.6128 37.5622C66.2537 34.4991 65.1479 31.4695 63.9788 28.3307L64.9971 28.5374C66.3127 29.4303 67.135 33.0522 67.6768 34.7315C68.0942 33.5895 69.4153 29.4611 70.2595 29.0581C71.1427 29.5499 72.4115 33.6194 72.8396 34.823Z"/><path fill="#081E3D" d="M88.6971 34.7488C88.665 32.9229 88.498 30.4747 89.0986 28.7743L89.3816 28.851C90.1169 30.844 90.048 35.4947 89.7888 37.6682C88.8405 36.4068 84.2751 32.4197 82.7565 30.9746C82.8382 32.2198 83.255 36.4808 82.3817 37.348L82.05 37.0275C81.197 34.6941 81.5463 31.0191 81.6489 28.4447C83.926 30.2673 86.5909 32.7414 88.6971 34.7488Z"/><path fill="#081E3D" d="M33.9873 28.5711C36.2109 28.4646 38.988 28.115 39.991 30.7141C39.912 33.3059 37.4218 33.3431 35.4297 33.3823C35.2183 34.2867 35.8231 36.3378 35.1828 37.4126L34.6147 37.4569C33.8047 36.4965 34.0027 30.1652 33.9873 28.5711Z"/><path fill="white" d="M36.0776 29.4446C37.2331 29.6052 37.7301 29.6228 38.316 30.6981C38.2618 31.4329 38.2118 31.5748 37.7179 32.1204C36.4839 32.0625 35.7464 32.3116 35.2204 31.068C35.3127 30.3088 35.6051 30.0259 36.0776 29.4446Z"/><path fill="#173568" d="M41.273 28.4869C42.7786 28.4533 43.8084 28.5314 45.3042 28.6609C46.1121 29.1126 46.591 29.3679 46.819 30.3847C47.5242 33.5291 44.6293 33.0441 42.7063 33.517C42.2874 33.62 42.7993 36.4615 42.3646 37.2734C41.7509 37.479 41.9808 37.4832 41.3437 37.1824C40.7482 36.1643 41.129 33.0783 41.1867 31.7325L41.273 28.4869Z"/><defs><linearGradient id="gradient_1" gradientUnits="userSpaceOnUse" x1="43.90004" y1="28.699957" x2="42.913307" y2="32.317322"><stop offset="0" stop-color="#0E1C42"/><stop offset="1" stop-color="#1E4176"/></linearGradient></defs><path fill="url(#gradient_1)" d="M41.273 28.4869C42.7786 28.4533 43.8084 28.5314 45.3042 28.6609C45.6877 29.4464 46.0266 29.7855 45.6005 30.6789C45.1483 31.7186 45.3914 31.5477 44.5199 32.1216C43.9735 32.161 43.3254 32.2259 42.7878 32.2402C42.0104 32.176 41.8505 32.0936 41.1867 31.7325L41.273 28.4869Z"/><path fill="white" d="M42.7878 32.2402C42.627 31.4171 42.5003 30.9946 42.688 30.1694C43.2476 29.4798 42.9704 29.6369 43.8053 29.4867C44.7499 29.8044 44.917 29.9507 45.6005 30.6789C45.1483 31.7186 45.3914 31.5477 44.5199 32.1216C43.9735 32.161 43.3254 32.2259 42.7878 32.2402Z"/><path fill="#081E3D" d="M28.4086 28.4014C29.101 28.8166 32.3602 35.9886 32.6006 37.1423L32.381 37.3148C30.6743 36.2175 31.2119 35.2623 29.1781 34.9878C26.5418 34.8386 26.9818 35.4874 24.5919 37.0797L24.4667 36.8156C25.4724 33.8262 26.9622 31.207 28.4086 28.4014Z"/><path fill="#081E3D" d="M55.3465 28.382C56.1045 28.8525 59.4227 36.125 59.6457 37.2193L59.2507 37.4401C57.8266 36.815 58.4271 35.2615 56.3125 34.9785C52.1927 34.8779 54.2329 35.7307 51.601 37.5506L51.3123 37.4374C51.2068 36.4494 54.7033 29.7199 55.3465 28.382Z"/><path fill="#081E3D" d="M144.704 28.3032C145.931 28.299 147.739 28.6235 148.25 29.8627C147.671 30.5472 144.656 29.029 143.412 29.7951C139.544 32.1777 142.006 37.7592 146.325 35.9939C147.146 35.6676 147.119 35.511 147.795 35.7667L147.85 36.2986C146.681 37.9025 143.091 37.798 141.869 36.6482C138.27 33.2609 140.289 29.0924 144.704 28.3032Z"/><path fill="#081E3D" d="M158.304 28.56C159.771 28.3536 161.361 28.0996 162.311 29.5178C161.907 30.4849 160.212 29.1006 158.509 30.0026C157.981 31.8751 167.013 34.5577 160.507 37.5784C159.504 37.5029 158.718 37.4874 157.774 37.1059C157.223 36.5985 157.139 36.4701 157.014 35.7328L157.26 35.4659C158.892 35.8811 159.759 36.6645 161.12 35.5347C161.374 33.1999 153.714 31.97 158.304 28.56Z"/><path fill="#081E3D" d="M107.113 28.5078C107.7 28.4654 108.289 28.4533 108.877 28.4716C109.95 28.5055 110.66 28.6868 111.418 29.4947C110.666 29.9616 108.601 29.1906 107.334 30.1663C107.444 31.9153 111.236 32.8205 111.851 34.6614C112.358 36.1813 110.711 37.1501 109.595 37.5028C108.047 37.4274 106.499 37.5214 105.885 35.7485C106.898 35.2851 109.212 37.1568 110.282 35.2776C109.93 32.3768 103.324 32.9326 107.113 28.5078Z"/><path fill="#081E3D" d="M134.611 28.1138C134.769 28.2481 135.148 28.5104 135.1 28.6791C134.724 29.9898 132.346 36.2627 131.485 36.857L131.057 36.7265C130.204 35.6825 129.019 32.7953 128.41 31.4364C127.992 30.4368 127.559 29.6202 127.705 28.5324L128.081 28.6162C129.768 30.8308 130.231 32.233 131.255 34.7721C132.122 32.9705 133.147 29.3765 134.611 28.1138Z"/><path fill="#173568" d="M150.095 28.9592L150.505 29.3185L151.321 29.149L151.774 29.6064C151.347 30.4186 151.307 30.6043 151.365 31.5203C152.682 31.7685 153.958 31.849 155.071 32.516C154.186 33.376 152.461 33.0503 151.467 33.4122C151.489 34.0016 151.519 35.7918 151.628 36.2732L150.944 36.8919L151.416 37.4105C150.522 37.3129 150.746 37.4584 150.181 36.9364C149.693 35.0263 149.998 31.0801 150.095 28.9592Z"/><path fill="#081E3D" d="M136.708 28.217C137.149 28.309 137.336 28.4447 137.719 28.6751C138.38 30.1872 138.064 35.8586 137.88 37.6805C137.575 37.6195 137.181 37.4611 136.881 37.3524C136.184 36.1226 136.45 29.7927 136.708 28.217Z"/><path fill="#081E3D" d="M48.4311 28.3145C48.9365 28.3925 49.0581 28.4088 49.4928 28.6765C50.1544 30.1644 49.8401 35.9381 49.5777 37.6936C49.1049 37.5986 49.0086 37.5445 48.5951 37.2958C47.9129 35.7055 48.3433 30.2269 48.4311 28.3145Z"/><path fill="#081E3D" d="M77.9232 28.1208C78.229 28.2234 78.5093 28.433 78.7803 28.6129C79.3046 30.0509 79.3369 36.2456 78.719 37.5854L77.91 37.2262C77.3177 36.2238 77.6911 29.5538 77.9232 28.1208Z"/><path fill="#081E3D" d="M150.095 28.9592L150.429 28.4931C151.87 28.4288 154.119 28.1974 155.313 29.0737C154.732 29.6613 152.688 29.5911 151.774 29.6064L151.321 29.149L150.505 29.3185L150.095 28.9592Z"/><path fill="#081E3D" d="M151.628 36.2732C152.667 36.1794 153.976 35.9438 154.886 36.3956L154.974 36.753C153.99 37.5054 152.703 37.3634 151.416 37.4105L150.944 36.8919L151.628 36.2732Z"/><path fill="#A6A9B1" d="M9.4118 35.6871L9.83372 36.2037C9.38644 36.2805 8.93788 36.3497 8.48823 36.4111C7.49438 36.5413 6.78078 36.6774 6.07461 36.1339L5.71761 36.4123L5.62712 36.2959C6.52479 35.8508 8.348 35.7841 9.4118 35.6871Z"/></svg>